<svg width="512" height="512" viewBox="0 0 512 512" fill="none" xmlns="http://www.w3.org/2000/svg">
<path d="M208.074 248.897C215.882 262.569 224.933 269.405 235.225 269.405C255.101 269.405 265.038 251.175 265.038 214.716C265.038 194.734 263.885 174.051 261.578 152.666C259.271 131.282 254.391 110.861 246.938 91.4048C239.484 71.9484 230.256 62.2202 219.254 62.2202C203.993 62.2202 196.362 73.7889 196.362 96.9263V194.734C196.362 217.17 200.266 235.225 208.074 248.897Z" fill="black"/>
<path fill-rule="evenodd" clip-rule="evenodd" d="M244.276 0C226.905 0 210.113 2.44755 194.919 8.14023C194.338 7.74839 193.74 7.3646 193.127 6.98939C182.442 0.455918 171.354 0.0281349 163.864 0.757544C156.239 1.50006 149.069 3.73084 142.969 6.14077L141.713 6.63729L61.3746 45.7776L61.0459 45.9464C47.7351 52.7832 29 67.2799 29 92.7195V95.8746C29 108.464 34.5823 118.267 38.7898 124.134C41.6495 128.122 44.9796 131.819 48.4798 135.222L56.1512 142.794V337.765C56.1512 338.047 56.15 340.576 52.13 345.903C47.8375 351.591 43.8501 357.52 40.799 363.474C38.0973 368.746 34.3238 377.424 34.3238 387.721V389.824C34.3238 400.516 37.8322 414.256 50.0592 424.401L122.437 495.843C122.487 495.902 122.537 495.96 122.586 496.018C122.621 496.059 122.656 496.099 122.691 496.139L122.735 496.19C124.24 497.926 125.937 499.599 127.848 501.184C137.534 509.22 148.572 511.474 156.853 511.912C158.037 511.975 159.163 512 160.222 512H285.33C286.389 512 287.516 511.975 288.699 511.912C296.981 511.474 308.019 509.22 317.705 501.184C329.932 491.039 333.44 477.299 333.44 466.607V464.504C333.44 453.247 328.84 444.017 325.845 438.807C322.379 432.779 317.885 426.833 313.097 421.178C309.698 417.164 309.052 415 308.951 414.472V407.917C313.275 408.249 317.651 408.408 322.064 408.408C360.597 408.408 394.876 395.896 423.73 371.843C427.852 368.407 431.864 364.735 435.761 360.83C468.07 328.461 483.038 286.483 483.038 238.389C483.038 205.163 475.089 174.586 457.735 148.179C457.316 147.542 456.894 146.907 456.469 146.277C450.089 136.82 443.018 128.188 435.228 120.503L357.439 43.7204C345.853 32.2911 332.678 22.9549 317.828 16.1097C294.58 5.39357 269.944 0 244.276 0ZM244.276 34.3502C264.861 34.3502 284.47 38.6447 303.103 47.2335C321.736 55.8224 337.619 70.108 350.751 90.0902C363.883 110.072 370.449 133.911 370.449 161.606C370.449 202.271 358.027 235.049 333.183 259.939C308.338 284.83 278.703 297.275 244.276 297.275C225.11 297.275 209.139 293.594 196.362 286.232V337.765C196.362 347.23 200.443 356.783 208.607 366.424C216.77 376.064 220.851 383.163 220.851 387.721V389.824C220.851 397.186 216.415 400.867 207.542 400.867H82.4334C73.5604 400.867 69.124 397.186 69.124 389.824V387.721C69.124 383.163 72.7619 376.064 80.0377 366.424C87.3135 356.783 90.9514 347.23 90.9514 337.765V139.52C90.9514 130.756 86.4262 122.518 77.3758 114.805C68.3254 107.093 63.8002 100.782 63.8002 95.8746V92.7195C63.8002 86.4093 68.2367 80.9755 77.1096 76.4181L155.901 38.0312C164.774 34.5255 171.074 33.912 174.801 36.1907C178.527 38.4694 180.391 42.7638 180.391 49.074V59.591C193.523 42.7638 214.818 34.3502 244.276 34.3502Z" fill="black"/>
</svg>
