<svg width="512" height="512" viewBox="0 0 512 512" fill="none" xmlns="http://www.w3.org/2000/svg">
<g clip-path="url(#clip0_112_26)">
<rect width="512" height="512" fill="black"/>
<path d="M131.659 323.391C131.659 331.49 134.26 342.782 144.09 351.352L179.125 386.347C180.325 387.72 181.656 389.031 183.122 390.262C191.167 397.016 200.104 398.697 206.044 399.015C206.91 399.061 207.728 399.08 208.488 399.08H270.405C271.164 399.08 271.982 399.061 272.849 399.015C278.788 398.697 287.725 397.016 295.77 390.262C306.04 381.64 308.735 370.087 308.735 361.843V360.79C308.735 354.715 307.17 349.528 305.552 345.717C321.334 342.887 335.732 336.042 348.269 325.467C350.657 323.452 352.967 321.312 355.197 319.05C374.307 299.677 382.772 274.766 382.772 247.552C382.772 228.58 378.263 210.422 367.911 194.482C367.672 194.115 367.432 193.749 367.189 193.385C363.548 187.924 359.45 182.845 354.857 178.26L316.357 139.804C309.51 132.969 301.614 127.284 292.632 123.094C279.201 116.829 264.911 113.664 250.086 113.664C242.38 113.664 234.553 114.513 226.982 116.582C219.907 113.726 213.246 113.682 208.865 114.113C203.227 114.669 198.27 116.292 194.553 117.778L193.407 118.236L153.001 138.156L152.702 138.311L152.7 138.312C144.44 142.606 129.024 153.658 129.024 174.602V176.182C129.024 186.773 133.65 194.639 136.538 198.714C138.4 201.342 140.451 203.665 142.461 205.688V293.953L139.155 298.844L136.427 303.648C134.713 307.032 131.659 313.807 131.659 322.337V323.391Z" fill="url(#paint0_linear_112_26)"/>
<path d="M225.66 132.245C233.179 129.394 241.49 128.168 250.086 128.168C262.79 128.168 274.982 130.869 286.488 136.236C293.837 139.664 300.358 144.339 306.091 150.063L344.59 188.516C348.445 192.364 351.945 196.687 355.102 201.423C355.312 201.739 355.521 202.056 355.729 202.376C364.317 215.6 368.251 230.913 368.251 247.552C368.251 271.638 360.843 292.66 344.853 308.871C342.925 310.826 340.939 312.665 338.899 314.386C324.619 326.431 307.654 332.697 288.584 332.697C286.4 332.697 284.235 332.618 282.094 332.452V335.734C282.144 335.999 282.464 337.082 284.146 339.092C286.516 341.924 288.74 344.902 290.455 347.921C291.938 350.53 294.214 355.153 294.214 360.79V361.843C294.214 367.198 292.478 374.079 286.427 379.159C281.633 383.184 276.17 384.312 272.072 384.532C271.486 384.563 270.929 384.576 270.405 384.576H208.488C207.964 384.576 207.406 384.563 206.821 384.532C202.722 384.312 197.259 383.184 192.466 379.159C191.52 378.365 190.68 377.528 189.935 376.658L189.913 376.633L189.862 376.572C189.837 376.543 189.812 376.514 189.788 376.485L153.968 340.707C147.916 335.626 146.18 328.745 146.18 323.391V322.337C146.18 317.181 148.048 312.835 149.385 310.194C150.895 307.213 152.868 304.243 154.992 301.395C156.982 298.727 156.983 297.461 156.983 297.32V199.679L153.186 195.887C151.454 194.182 149.806 192.331 148.39 190.334C146.308 187.396 143.545 182.487 143.545 176.182V174.602C143.545 161.862 152.817 154.602 159.405 151.178L159.568 151.093L199.327 131.492L199.949 131.243C202.968 130.036 206.517 128.919 210.29 128.547C213.997 128.182 219.484 128.396 224.773 131.668C225.076 131.856 225.372 132.048 225.66 132.245Z" fill="black"/>
<path fill-rule="evenodd" clip-rule="evenodd" d="M245.607 263.085C240.513 263.085 236.034 259.662 232.17 252.815C228.306 245.968 226.374 236.926 226.374 225.69V176.708C226.374 165.121 230.15 159.328 237.703 159.328C243.148 159.328 247.715 164.2 251.404 173.943C255.092 183.687 257.508 193.913 258.649 204.623C259.791 215.332 260.362 225.69 260.362 235.697C260.362 253.956 255.444 263.085 245.607 263.085ZM279.2 151.822C269.979 147.521 260.274 145.371 250.086 145.371C235.507 145.371 224.968 149.584 218.469 158.011V152.744C218.469 149.584 217.547 147.433 215.703 146.292C213.858 145.151 210.741 145.458 206.349 147.214L167.355 166.438C162.964 168.72 160.768 171.442 160.768 174.602V176.182C160.768 178.64 163.008 181.8 167.487 185.662C171.966 189.524 174.205 193.65 174.205 198.039V297.32C174.205 302.06 172.405 306.844 168.804 311.672C165.203 316.5 163.403 320.055 163.403 322.337V323.391C163.403 327.077 165.598 328.921 169.99 328.921H231.907C236.298 328.921 238.493 327.077 238.493 323.391V322.337C238.493 320.055 236.473 316.5 232.433 311.672C228.394 306.844 226.374 302.06 226.374 297.32V271.512C232.697 275.199 240.601 277.042 250.086 277.042C267.124 277.042 281.791 270.81 294.087 258.345C306.382 245.88 312.53 229.465 312.53 209.1C312.53 195.23 309.281 183.292 302.782 173.285C296.282 163.278 288.422 156.124 279.2 151.822Z" fill="white"/>
</g>
<defs>
<linearGradient id="paint0_linear_112_26" x1="129.024" y1="399.08" x2="382.772" y2="399.08" gradientUnits="userSpaceOnUse">
<stop stop-color="#FF00CC"/>
<stop offset="0.704761" stop-color="#FFFF00"/>
<stop offset="1" stop-color="#B0FF31"/>
</linearGradient>
<clipPath id="clip0_112_26">
<rect width="512" height="512" fill="white"/>
</clipPath>
</defs>
</svg>
