<svg width="666" height="761" viewBox="0 0 666 761" fill="none" xmlns="http://www.w3.org/2000/svg">
<path d="M243.156 12.0859C265.422 3.6339 290.032 0 315.489 0C353.105 0 389.209 8.00787 423.28 23.9182C445.043 34.0813 464.351 47.9428 481.33 64.912L595.33 178.912C606.747 190.322 617.11 203.137 626.459 217.178C627.082 218.114 627.701 219.056 628.315 220.003C653.748 259.21 665.396 304.606 665.396 353.937C665.396 425.343 643.461 487.669 596.112 535.727C590.4 541.524 584.522 546.975 578.481 552.077C536.194 587.789 485.958 606.366 429.488 606.366C423.02 606.366 416.608 606.13 410.27 605.637V615.369C410.418 616.153 411.365 619.365 416.347 625.325C423.364 633.721 429.949 642.549 435.028 651.5C439.418 659.234 446.16 672.939 446.16 689.651V692.774C446.16 708.649 441.018 729.049 423.099 744.111C408.905 756.042 392.728 759.389 380.591 760.039C378.857 760.132 377.206 760.17 375.654 760.17H192.307C190.756 760.17 189.104 760.132 187.37 760.039C175.233 759.389 159.057 756.042 144.862 744.111C142.063 741.757 139.575 739.273 137.37 736.697L137.305 736.621C137.254 736.561 137.203 736.501 137.152 736.441C137.079 736.355 137.006 736.268 136.933 736.182L30.8624 630.111C12.9436 615.049 7.802 594.649 7.802 578.774V575.651C7.802 560.365 13.3321 547.479 17.2915 539.652C21.7629 530.812 27.6065 522.009 33.8972 513.564C39.7885 505.656 39.7903 501.901 39.7903 501.482V212.008L28.5478 200.765C23.4183 195.712 18.5379 190.223 14.3471 184.303C8.18097 175.592 0 161.038 0 142.346V137.661C0 99.891 27.4564 78.3675 46.9635 68.217L47.4452 67.9662L165.181 9.85443L167.023 9.11724C175.962 5.5392 186.47 2.22715 197.645 1.12473C208.621 0.0417721 224.87 0.676904 240.529 10.3772C241.429 10.9343 242.304 11.5041 243.156 12.0859Z" fill="black"/>
<path fill-rule="evenodd" clip-rule="evenodd" d="M302.225 399.987C287.141 399.987 273.878 389.837 262.435 369.538C250.992 349.239 245.27 322.434 245.27 289.123V143.907C245.27 109.555 256.453 92.3787 278.819 92.3787C294.943 92.3787 308.467 106.822 319.389 135.709C330.312 164.596 337.464 194.915 340.845 226.665C344.226 258.414 345.916 289.123 345.916 318.791C345.916 372.921 331.353 399.987 302.225 399.987ZM401.701 70.1279C374.394 57.376 345.656 51 315.488 51C272.317 51 241.109 63.4917 221.864 88.4751V72.8605C221.864 63.4917 219.133 57.1157 213.672 53.7326C208.211 50.3494 198.978 51.2602 185.975 56.4651L70.505 113.458C57.5017 120.225 51 128.292 51 137.661V142.346C51 149.632 57.6317 159.001 70.8951 170.452C84.1586 181.903 90.7903 194.134 90.7903 207.146V501.482C90.7903 515.535 85.4589 529.718 74.7962 544.032C64.1334 558.345 58.802 568.885 58.802 575.651V578.774C58.802 589.704 65.3037 595.17 78.3071 595.17H261.654C274.658 595.17 281.16 589.704 281.16 578.774V575.651C281.16 568.885 275.178 558.345 263.215 544.032C251.252 529.718 245.27 515.535 245.27 501.482V424.97C263.995 435.9 287.401 441.366 315.488 441.366C365.941 441.366 409.373 422.888 445.782 385.934C482.192 348.979 500.396 300.313 500.396 239.937C500.396 198.818 490.774 163.425 471.529 133.757C452.284 104.09 429.008 82.8799 401.701 70.1279Z" fill="white"/>
</svg>
