<svg width="2389" height="767" viewBox="0 0 2389 767" fill="none" xmlns="http://www.w3.org/2000/svg">
<path fill-rule="evenodd" clip-rule="evenodd" d="M2367.65 137.672C2367.06 137.02 2366.41 136.434 2365.82 135.847C2365.24 135.196 2364.59 134.609 2363.94 133.958C2363.41 133.371 2362.76 132.72 2362.11 132.134C2361.53 131.482 2360.88 130.896 2360.29 130.309C2359.7 129.658 2359.05 129.071 2358.4 128.42C2357.88 127.833 2357.23 127.182 2356.58 126.595C2355.99 125.944 2355.41 125.357 2354.76 124.706C2354.17 124.12 2353.52 123.533 2352.87 122.882C2352.28 122.295 2351.7 121.644 2351.05 121.057C2350.46 120.406 2349.87 119.819 2349.22 119.168C2348.57 118.581 2347.99 117.995 2347.33 117.343C2346.75 116.692 2346.16 116.106 2345.51 115.519C2344.86 114.868 2344.34 114.281 2343.69 113.63C2343.04 113.043 2342.45 112.392 2341.87 111.805C2341.21 111.154 2340.63 110.567 2339.98 109.981C2339.33 109.329 2338.81 108.743 2338.16 108.091C2337.5 107.505 2336.92 106.854 2336.33 106.267C2335.68 105.616 2335.1 105.029 2334.44 104.443C2333.79 103.791 2333.27 103.205 2332.62 102.553C2331.97 101.967 2331.38 101.315 2330.8 100.729C2330.15 100.077 2329.56 99.4911 2328.91 98.9047C2328.32 98.2531 2327.74 97.6668 2327.09 97.0152C2326.44 96.4288 2325.85 95.7773 2325.26 95.1909C2324.61 94.5393 2324.03 93.9529 2323.38 93.3665C2322.79 92.715 2322.2 92.1286 2321.55 91.5422C2320.9 90.8907 2320.32 90.2391 2319.73 89.6527C2319.08 89.0012 2318.49 88.4148 2317.84 87.8284C2317.26 87.1769 2316.67 86.5253 2316.02 85.9389C2315.37 85.2874 2314.78 84.701 2314.2 84.1146C2313.55 83.463 2312.96 82.8767 2312.31 82.2251C2311.72 81.6387 2311.14 80.9872 2310.49 80.4008C2309.84 79.8144 2309.31 79.1628 2308.66 78.5765C2308.01 77.9249 2307.43 77.3385 2306.71 76.687C2306.19 76.1006 2305.6 75.449 2304.95 74.8626C2304.3 74.2111 2303.72 73.6247 2303.06 73.0383C2302.48 72.3868 2301.89 71.8004 2301.18 71.1488C2300.66 70.5624 2300.01 69.9109 2299.35 69.3245C2298.77 68.673 2298.25 68.0866 2297.53 67.5002C2296.95 66.8486 2296.29 66.2622 2295.71 65.6758C2295.12 65.0243 2294.47 64.3727 2293.82 63.7864C2293.23 63.1348 2292.65 62.5484 2292 61.962C2291.41 61.3105 2290.76 60.7241 2290.17 60.0725C2289.59 59.4862 2288.94 58.8998 2288.29 58.2482C2287.7 57.5967 2287.11 57.0103 2286.46 56.4239C2285.88 55.7723 2285.23 55.186 2284.64 54.5344C2283.99 53.948 2283.4 53.3616 2282.75 52.7101C2282.23 52.1237 2281.58 51.4721 2280.93 50.8206L2279.11 48.9963C2278.46 48.3447 2277.87 47.7583 2277.22 47.1719C2276.63 46.5204 2276.05 45.934 2275.4 45.3476C2274.75 44.6961 2274.16 44.0445 2273.57 43.4581C2272.92 42.8066 2272.34 42.2202 2271.69 41.6338C2271.1 40.9822 2270.51 40.3959 2269.86 39.8095C2269.21 39.1579 2268.63 38.5715 2268.04 37.92C2267.39 37.2684 2266.8 36.682 2266.15 36.0956C2265.57 35.4441 2264.98 34.8577 2264.33 34.2713C2263.68 33.6198 2263.16 33.0334 2262.51 32.3818C2261.85 31.7954 2261.27 31.1439 2260.62 30.5575C2260.03 29.906 2259.45 29.3196 2258.8 28.7332C2246.04 15.5068 2227.94 7.81855 2206.65 7.81855H2095C2068.5 7.81855 2046.76 19.807 2034.45 38.8321C2034.39 38.767 2034.32 38.767 2034.26 38.7018C2033.8 38.2458 2033.54 37.6594 2033.02 37.2033C2032.82 37.073 2032.63 37.0078 2032.43 36.8124C2031.98 36.4214 2031.65 35.835 2031.2 35.3789C2031 35.2486 2030.74 35.1835 2030.55 34.988C2030.09 34.5319 2029.83 34.0107 2029.37 33.5546C2029.18 33.3592 2028.92 33.294 2028.72 33.1637C2028.27 32.7076 2028.01 32.1212 2027.49 31.7303C2027.29 31.5348 2027.1 31.4697 2026.9 31.3394C2026.44 30.8833 2026.12 30.2969 2025.66 29.8408C2025.47 29.6453 2025.21 29.6453 2025.01 29.4499C2024.56 29.059 2024.3 28.4074 2023.84 28.0165C2023.65 27.821 2023.38 27.7559 2023.19 27.6256C2022.73 27.1695 2022.47 26.5831 2021.95 26.1922C2009.06 14.2037 1992.07 7.81855 1973.13 7.81855H1787.19C1762 7.81855 1742.08 19.2206 1729.45 36.4866C1722.29 31.9258 1714.99 27.6256 1707.31 24.042C1673.13 8.07917 1636.61 0 1598.92 0C1571.77 0 1547.55 3.97443 1526.52 11.8581C1525.81 11.4672 1525.16 11.0111 1524.5 10.555C1514.09 4.10474 1501.78 0.651546 1488.76 0.651546C1476.85 0.651546 1464.15 3.45319 1449.9 9.1868C1448.66 9.70804 1447.42 10.2293 1446.25 10.8157L1330.56 67.8911C1325.62 70.4973 1322.62 73.4944 1318.65 76.3612C1298.73 53.6874 1275.94 36.0305 1250.29 24.042C1216.11 8.07917 1179.59 0 1141.9 0C1114.75 0 1090.53 3.97443 1069.5 11.8581C1068.85 11.4672 1068.14 11.0111 1067.49 10.555C1057.07 4.10474 1044.76 0.651546 1031.74 0.651546C1019.83 0.651546 1007.14 3.45319 992.878 9.1868C991.641 9.70804 990.404 10.2293 989.232 10.8157L879.795 64.7637C879.664 64.6334 879.469 64.5031 879.339 64.3727C878.753 63.7212 878.102 63.1348 877.516 62.5484C876.93 61.8969 876.214 61.3105 875.628 60.6589C875.042 60.0725 874.391 59.421 873.805 58.8346C873.219 58.1831 872.568 57.5967 871.982 57.0103C871.396 56.3587 870.68 55.7723 870.16 55.1208C866.514 51.2767 862.608 47.4326 857.985 43.6536C822.179 14.6598 773.743 0 713.783 0C647.769 0 589.893 22.8693 541.848 68.0214C531.887 77.4037 523.489 87.6329 515.612 98.188C515.546 98.1228 515.481 98.0577 515.416 97.9925C514.765 97.4061 514.244 96.6894 513.593 96.103C512.942 95.5818 512.356 94.8651 511.77 94.2787C511.119 93.6923 510.534 92.9756 509.883 92.4544C509.231 91.868 508.711 91.1513 508.06 90.6301C507.409 90.0437 506.823 89.327 506.172 88.7406C505.521 88.1542 505 87.4375 504.349 86.9162C503.698 86.3299 503.112 85.6131 502.526 85.0268C501.875 84.5055 501.289 83.7888 500.638 83.2024C500.052 82.616 499.466 81.9645 498.815 81.3781C498.164 80.7917 497.578 80.075 496.992 79.4886C496.341 78.9022 495.755 78.2507 495.169 77.6643C494.518 77.0779 493.932 76.3612 493.281 75.7748C492.63 75.2536 492.044 74.5369 491.458 73.9505C490.807 73.4292 490.222 72.6474 489.571 72.1261C488.985 71.5398 488.399 70.8231 487.748 70.3018C487.097 69.7154 486.511 68.9987 485.925 68.4775C485.274 67.8259 484.688 67.1092 484.037 66.588C483.451 66.0016 482.865 65.2849 482.214 64.7637C481.563 64.1773 481.042 63.4606 480.326 62.8742C479.675 62.2878 479.154 61.6363 478.503 61.0499C477.852 60.4635 477.331 59.7468 476.68 59.1604C476.029 58.6391 475.508 57.9224 474.792 57.3361C459.688 43.6536 443.218 32.3818 425.314 24.042C391.136 8.07917 354.678 0 316.919 0C289.771 0 265.553 3.97443 244.525 11.8581C243.874 11.4672 243.158 11.0111 242.507 10.555C232.09 4.10474 219.786 0.651546 206.765 0.651546C194.852 0.651546 182.157 3.45319 167.899 9.1868C166.662 9.70804 165.425 10.2293 164.254 10.8157L48.5664 67.8911C6.18473 89.9785 0 121.839 0 138.91V143.536C0 167.903 13.1507 186.668 26.692 200.481C27.343 201.197 27.929 201.719 28.58 202.37C29.1659 203.022 29.7518 203.543 30.4029 204.195C31.0539 204.846 31.6398 205.432 32.2257 206.084C32.8767 206.736 33.4627 207.257 34.0486 207.908C34.7647 208.56 35.2855 209.081 36.0017 209.733C36.5876 210.384 37.1735 210.971 37.7594 211.557C38.4105 212.274 38.9964 212.795 39.6474 213.446C39.7125 213.512 39.7776 213.642 39.8427 213.707V503.189C39.8427 504.948 38.3453 509.053 34.1137 514.721C15.9501 539.089 7.8123 558.44 7.8123 577.465C7.8123 599.422 15.885 617.47 29.1659 630.11C29.8169 630.697 30.4029 631.348 30.9888 631.935C31.6398 632.586 32.2257 633.172 32.8767 633.759C33.4627 634.41 34.0486 634.997 34.6996 635.648C35.3506 636.235 35.9366 636.886 36.5225 637.473C37.1735 638.124 37.7594 638.711 38.4105 639.362C38.9964 639.949 39.5823 640.535 40.2333 641.186C40.8843 641.773 41.4703 642.424 42.0562 643.011L43.9442 644.9C44.5301 645.487 45.116 646.138 45.767 646.725C46.4181 647.376 47.004 647.963 47.655 648.549C48.2409 649.2 48.8268 649.787 49.4779 650.438C50.0638 651.025 50.7148 651.676 51.3007 652.263C51.9518 652.914 52.5377 653.501 53.1887 654.087C53.7746 654.739 54.3606 655.325 55.0116 655.977C55.5975 656.563 56.2485 657.215 56.8344 657.801C57.4855 658.452 58.0714 659.039 58.7224 659.625C59.3083 660.277 59.8943 660.863 60.5453 661.515C61.1312 662.101 61.7822 662.753 62.3682 663.339C63.0192 663.991 63.6051 664.577 64.2561 665.163C64.8421 665.815 65.428 666.401 66.079 667.053C66.6649 667.639 67.3159 668.291 67.9019 668.877C68.5529 669.529 69.1388 670.115 69.7898 670.701C70.3758 671.353 70.9617 671.939 71.6127 672.526C72.2637 673.177 72.7846 673.829 73.5007 674.415C74.0866 675.067 74.6725 675.653 75.3235 676.24C75.9095 676.891 76.5605 677.543 77.1464 678.129C77.7974 678.716 78.3183 679.367 79.0344 679.953C79.6203 680.605 80.2062 681.191 80.8573 681.843C81.4432 682.429 82.0942 683.081 82.6801 683.667C83.3312 684.319 83.9171 684.905 84.5681 685.492C85.154 686.143 85.7399 686.73 86.391 687.381C86.9769 687.967 87.6279 688.619 88.2138 689.205C88.8649 689.857 89.4508 690.443 90.1018 691.03C90.6877 691.681 91.2737 692.268 91.9247 692.854C92.5106 693.506 93.0965 694.157 93.7476 694.744C94.3986 695.395 94.9845 695.981 95.6355 696.568C96.2214 697.219 96.8074 697.806 97.4584 698.392C98.1094 699.044 98.6302 699.63 99.2813 700.282C99.9323 700.933 100.518 701.52 101.169 702.106C101.755 702.758 102.341 703.344 102.992 703.995C103.643 704.582 104.164 705.168 104.815 705.82C105.466 706.406 106.052 707.058 106.703 707.709C107.289 708.296 107.875 708.882 108.526 709.534C109.177 710.12 109.698 710.706 110.349 711.358C111 712.01 111.586 712.596 112.237 713.182C112.823 713.834 113.408 714.42 114.06 715.072C114.711 715.723 115.296 716.31 115.947 716.896C116.533 717.548 117.119 718.134 117.77 718.72C118.356 719.372 118.942 720.024 119.593 720.61C120.244 721.261 120.83 721.848 121.481 722.434C122.067 723.086 122.653 723.672 123.304 724.259C123.89 724.91 124.476 725.497 125.127 726.148C125.713 726.8 126.364 727.386 127.015 727.972C127.601 728.624 128.187 729.21 128.838 729.797C129.424 730.448 130.01 731.035 130.661 731.686C131.247 732.273 131.898 732.924 132.484 733.511C133.135 734.162 133.72 734.748 134.371 735.335C134.957 735.986 135.543 736.573 136.194 737.224C136.845 737.811 137.431 738.462 138.082 739.049C150.842 752.21 168.941 759.963 190.164 759.963H373.753C415.224 759.963 445.366 731.165 445.366 691.421C445.366 662.687 430.197 641.056 415.289 623.269C410.08 616.949 409.429 613.822 409.429 613.756V605.286C415.354 605.742 421.408 605.938 427.658 605.938C492.37 605.938 548.749 582.026 595.167 534.919C604.021 525.928 611.312 516.09 618.408 505.991C618.473 506.056 618.539 506.186 618.604 506.251C618.929 506.642 619.32 506.838 619.645 507.098C619.971 507.424 620.166 507.815 620.492 508.141C620.752 508.467 621.208 508.662 621.533 508.988C621.794 509.314 621.989 509.639 622.314 509.965C622.64 510.291 623.031 510.486 623.356 510.812C623.616 511.138 623.812 511.529 624.137 511.855C624.463 512.18 624.853 512.311 625.179 512.702C625.504 512.962 625.7 513.353 626.025 513.679C626.286 514.005 626.741 514.2 627.067 514.526C627.327 514.852 627.523 515.177 627.848 515.503C628.174 515.829 628.564 516.024 628.89 516.35C629.15 516.676 629.411 517.067 629.671 517.393C629.997 517.718 630.387 517.849 630.713 518.24C631.038 518.5 631.234 518.891 631.559 519.217C631.819 519.543 632.275 519.738 632.601 520.064C632.926 520.39 633.056 520.716 633.382 521.041C633.707 521.367 634.098 521.628 634.424 521.888C634.749 522.214 634.944 522.605 635.205 522.931C635.53 523.191 635.921 523.387 636.246 523.713C636.572 524.038 636.767 524.429 637.028 524.755C637.418 525.081 637.809 525.276 638.134 525.602C638.395 525.928 638.59 526.254 638.916 526.58C639.241 526.905 639.632 527.101 639.957 527.427C640.283 527.752 640.478 528.143 640.738 528.469C641.064 528.73 641.455 528.99 641.78 529.316C642.106 529.642 642.301 529.968 642.561 530.293C642.952 530.619 643.343 530.815 643.668 531.14C643.928 531.466 644.124 531.792 644.449 532.118C644.775 532.443 645.165 532.639 645.491 532.965C645.816 533.29 646.012 533.681 646.337 534.007C646.598 534.268 646.988 534.528 647.379 534.854C647.639 535.18 647.835 535.506 648.16 535.831C694.318 582.352 754.472 605.938 826.866 605.938C830.707 605.938 834.093 605.221 837.869 605.091C841.514 614.864 846.983 623.269 854.144 630.11C854.795 630.697 855.381 631.348 855.967 631.935C856.618 632.586 857.204 633.172 857.855 633.759C858.441 634.41 859.027 634.997 859.678 635.648C860.329 636.235 860.85 636.886 861.501 637.473C862.152 638.124 862.738 638.711 863.389 639.362C863.975 639.949 864.561 640.535 865.212 641.186C865.863 641.773 866.384 642.424 867.035 643.011L868.923 644.9C869.509 645.487 870.094 646.138 870.745 646.725C871.396 647.376 871.982 647.963 872.633 648.549C873.219 649.2 873.805 649.787 874.456 650.438C875.042 651.025 875.693 651.676 876.279 652.263C876.93 652.914 877.516 653.501 878.167 654.087C878.753 654.739 879.339 655.325 879.99 655.977C880.576 656.563 881.162 657.215 881.813 657.801C882.464 658.452 883.05 659.039 883.701 659.625C884.287 660.277 884.873 660.863 885.524 661.515C886.11 662.101 886.696 662.753 887.347 663.339C887.932 663.991 888.584 664.577 889.235 665.163C889.82 665.815 890.406 666.401 891.057 667.053C891.643 667.639 892.229 668.291 892.88 668.877C893.531 669.529 894.117 670.115 894.703 670.701C895.354 671.353 895.94 671.939 896.591 672.526C897.242 673.177 897.763 673.829 898.479 674.415C899.065 675.067 899.651 675.653 900.237 676.24C900.888 676.891 901.474 677.543 902.125 678.129C902.776 678.716 903.297 679.367 904.013 679.953C904.599 680.605 905.185 681.191 905.836 681.843C906.422 682.429 907.008 683.081 907.659 683.667C908.244 684.319 908.895 684.905 909.547 685.492C910.132 686.143 910.718 686.73 911.369 687.381C911.955 687.967 912.541 688.619 913.192 689.205C913.778 689.857 914.429 690.443 915.08 691.03C915.666 691.681 916.252 692.268 916.903 692.854C917.489 693.506 918.075 694.157 918.726 694.744C919.312 695.395 919.963 695.981 920.549 696.568C921.2 697.219 921.786 697.806 922.437 698.392C923.088 699.044 923.609 699.63 924.26 700.282C924.911 700.933 925.497 701.52 926.083 702.106C926.734 702.758 927.319 703.344 927.971 703.995C928.622 704.582 929.142 705.168 929.793 705.82C930.444 706.406 931.03 707.058 931.616 707.709C932.267 708.296 932.853 708.882 933.504 709.534C934.09 710.12 934.676 710.706 935.327 711.358C935.978 712.01 936.564 712.596 937.215 713.182C937.801 713.834 938.387 714.42 939.038 715.072C939.624 715.723 940.275 716.31 940.861 716.896C941.512 717.548 942.098 718.134 942.749 718.72C943.335 719.372 943.921 720.024 944.572 720.61C945.158 721.261 945.809 721.848 946.395 722.434C947.046 723.086 947.631 723.672 948.282 724.259C948.868 724.91 949.454 725.497 950.105 726.148C950.691 726.8 951.342 727.386 951.928 727.972C952.579 728.624 953.165 729.21 953.816 729.797C954.402 730.448 954.988 731.035 955.639 731.686C956.225 732.273 956.876 732.924 957.462 733.511C958.113 734.162 958.699 734.748 959.35 735.335C959.936 735.986 960.522 736.573 961.173 737.224C961.824 737.811 962.41 738.462 963.061 739.049C975.821 752.21 993.854 759.963 1015.14 759.963H1198.73C1240.2 759.963 1270.34 731.165 1270.34 691.421C1270.34 662.687 1255.18 641.056 1240.27 623.269C1235.06 616.949 1234.41 613.822 1234.41 613.756V605.286C1240.33 605.742 1246.39 605.938 1252.64 605.938C1267.02 605.938 1280.76 604.374 1294.3 601.963C1297.88 612.975 1303.29 622.617 1311.16 630.11C1311.75 630.697 1312.4 631.348 1312.99 631.935C1313.64 632.586 1314.22 633.172 1314.87 633.759C1315.46 634.41 1316.05 634.997 1316.7 635.648C1317.35 636.235 1317.87 636.886 1318.52 637.473C1319.17 638.124 1319.76 638.711 1320.41 639.362C1320.99 639.949 1321.58 640.535 1322.23 641.186C1322.88 641.773 1323.4 642.424 1324.12 643.011C1324.7 643.662 1325.29 644.249 1325.94 644.9C1326.53 645.487 1327.11 646.138 1327.76 646.725C1328.42 647.376 1329 647.963 1329.65 648.549C1330.24 649.2 1330.82 649.787 1331.48 650.438C1332.06 651.025 1332.71 651.676 1333.3 652.263C1333.95 652.914 1334.54 653.501 1335.19 654.087C1335.77 654.739 1336.36 655.325 1337.01 655.977C1337.6 656.563 1338.18 657.215 1338.83 657.801C1339.48 658.452 1340.07 659.039 1340.72 659.625C1341.31 660.277 1341.89 660.863 1342.54 661.515C1343.19 662.101 1343.71 662.753 1344.37 663.339C1345.02 663.991 1345.6 664.577 1346.25 665.163C1346.84 665.815 1347.43 666.401 1348.08 667.053C1348.73 667.639 1349.25 668.291 1349.9 668.877C1350.55 669.529 1351.14 670.115 1351.79 670.701C1352.37 671.353 1352.96 671.939 1353.61 672.526C1354.26 673.177 1354.78 673.829 1355.5 674.415C1356.08 675.067 1356.67 675.653 1357.26 676.24C1357.91 676.891 1358.49 677.543 1359.14 678.129C1359.8 678.716 1360.32 679.367 1360.97 679.953C1361.62 680.605 1362.2 681.191 1362.85 681.843C1363.44 682.429 1364.03 683.081 1364.68 683.667C1365.33 684.319 1365.85 684.905 1366.57 685.492C1367.15 686.143 1367.74 686.73 1368.39 687.381C1368.97 687.967 1369.56 688.619 1370.21 689.205C1370.8 689.857 1371.45 690.443 1372.1 691.03C1372.69 691.681 1373.27 692.268 1373.92 692.854C1374.51 693.506 1375.09 694.157 1375.75 694.744C1376.33 695.395 1376.98 695.981 1377.57 696.568C1378.22 697.219 1378.81 697.806 1379.46 698.392C1380.04 699.044 1380.63 699.63 1381.28 700.282C1381.93 700.933 1382.52 701.52 1383.1 702.106C1383.75 702.758 1384.34 703.344 1384.99 703.995C1385.64 704.582 1386.16 705.168 1386.81 705.82C1387.46 706.406 1388.05 707.058 1388.64 707.709C1389.29 708.296 1389.87 708.882 1390.52 709.534C1391.11 710.12 1391.7 710.706 1392.41 711.358C1393 712.01 1393.58 712.596 1394.23 713.182C1394.82 713.834 1395.41 714.42 1396.06 715.072C1396.64 715.723 1397.29 716.31 1397.88 716.896C1398.53 717.548 1399.12 718.134 1399.77 718.72C1400.35 719.372 1400.94 720.024 1401.59 720.61C1402.18 721.261 1402.83 721.848 1403.41 722.434C1404.06 723.086 1404.65 723.672 1405.3 724.259C1405.89 724.91 1406.47 725.497 1407.12 726.148C1407.71 726.8 1408.36 727.386 1408.95 727.972C1409.6 728.624 1410.18 729.21 1410.84 729.797C1411.42 730.448 1412.01 731.035 1412.66 731.686C1413.24 732.273 1413.9 732.924 1414.48 733.511C1415.13 734.162 1415.72 734.748 1416.37 735.335C1416.96 735.986 1417.54 736.573 1418.19 737.224C1418.84 737.811 1419.43 738.462 1420.01 739.049C1432.84 752.21 1450.87 759.963 1472.16 759.963H1655.75C1697.22 759.963 1727.36 731.165 1727.36 691.421C1727.36 662.687 1712.19 641.056 1697.29 623.269C1692.08 616.949 1691.43 613.822 1691.43 613.756V605.286C1697.35 605.742 1703.41 605.938 1709.66 605.938C1721.57 605.938 1733.03 604.765 1744.29 603.006C1744.36 603.071 1744.36 603.071 1744.42 603.136C1744.94 603.723 1745.72 604.374 1746.24 604.961C1746.76 605.612 1747.61 606.198 1748.07 606.85C1748.59 607.436 1749.43 608.023 1749.95 608.674C1750.48 609.261 1751.26 609.912 1751.78 610.499C1752.3 611.15 1753.14 611.737 1753.6 612.388C1754.12 612.975 1754.97 613.561 1755.49 614.212C1755.94 614.799 1756.79 615.45 1757.31 616.037C1757.83 616.688 1758.68 617.275 1759.13 617.926C1759.65 618.513 1760.5 619.099 1761.02 619.751C1761.48 620.402 1762.39 620.923 1762.84 621.575C1763.37 622.226 1764.21 622.813 1764.67 623.464C1765.19 624.051 1766.03 624.637 1766.56 625.289C1767.01 625.94 1767.92 626.461 1768.38 627.113C1768.9 627.765 1769.75 628.351 1770.27 629.003C1770.72 629.589 1771.57 630.175 1772.09 630.827C1772.54 631.478 1773.46 632 1773.91 632.651C1774.43 633.303 1775.28 633.889 1775.8 634.541C1776.26 635.127 1777.1 635.779 1777.62 636.365C1778.08 637.017 1778.99 637.603 1779.45 638.255C1779.97 638.841 1780.81 639.427 1781.33 640.014C1781.79 640.665 1782.64 641.252 1783.16 641.903C1783.68 642.555 1784.46 643.141 1784.98 643.793C1785.5 644.379 1786.35 644.965 1786.87 645.617C1787.32 646.203 1788.23 646.79 1788.69 647.441C1789.21 648.028 1789.99 648.679 1790.51 649.266C1791.03 649.917 1791.88 650.504 1792.4 651.155C1792.86 651.807 1793.77 652.328 1794.22 652.979C1794.74 653.566 1795.53 654.217 1796.11 654.804C1796.57 655.455 1797.41 656.042 1797.93 656.693C1798.39 657.345 1799.3 657.866 1799.76 658.518C1800.28 659.169 1801.12 659.756 1801.65 660.342C1802.1 660.993 1802.95 661.58 1803.47 662.231C1803.92 662.883 1804.77 663.469 1805.29 664.121C1805.81 664.707 1806.66 665.294 1807.18 665.88C1807.64 666.532 1808.48 667.118 1809 667.77C1809.46 668.421 1810.3 669.007 1810.83 669.594C1811.35 670.245 1812.19 670.832 1812.71 671.418C1813.17 672.07 1814.02 672.656 1814.54 673.308C1815.06 673.894 1815.84 674.546 1816.36 675.132C1816.88 675.784 1817.73 676.37 1818.25 677.021C1818.7 677.608 1819.55 678.194 1820.07 678.846C1820.59 679.432 1821.37 680.084 1821.89 680.67C1822.41 681.322 1823.26 681.908 1823.78 682.56C1824.24 683.211 1825.08 683.732 1825.6 684.384C1826.12 685.036 1826.97 685.622 1827.49 686.208C1827.95 686.86 1828.79 687.446 1829.25 688.098C1829.77 688.749 1830.62 689.271 1831.14 689.922C1831.66 690.574 1832.5 691.16 1832.96 691.746C1833.48 692.398 1834.33 692.984 1834.85 693.636C1835.3 694.222 1836.15 694.809 1836.67 695.46C1837.19 696.112 1838.04 696.698 1838.56 697.285C1839.01 697.936 1839.86 698.523 1840.38 699.174C1847.93 708.817 1857.37 718.329 1869.16 727.516C1902.81 753.708 1945.65 767 1996.37 767C2075.99 767 2142 711.619 2192.78 602.354L2339.65 286.55C2341.15 283.162 2345.45 275.018 2358.34 259.446C2371.55 243.483 2389 218.985 2389 190.251C2389 168.36 2380.93 150.247 2367.65 137.672" fill="black"/>
<path fill-rule="evenodd" clip-rule="evenodd" d="M262.435 373.538C273.878 393.837 287.141 403.987 302.225 403.987C331.353 403.987 345.916 376.921 345.916 322.791C345.916 293.123 344.226 262.414 340.845 230.665C337.464 198.915 330.312 168.596 319.389 139.709C308.467 110.822 294.943 96.3787 278.819 96.3787C256.453 96.3787 245.27 113.555 245.27 147.907V293.123C245.27 326.434 250.992 353.239 262.435 373.538ZM315.488 55C345.656 55 374.394 61.376 401.701 74.1279C429.008 86.8799 452.284 108.09 471.529 137.757C490.774 167.425 500.396 202.818 500.396 243.937C500.396 304.313 482.192 352.979 445.782 389.934C409.373 426.888 365.941 445.366 315.488 445.366C287.401 445.366 263.995 439.9 245.27 428.97V505.482C245.27 519.535 251.252 533.718 263.215 548.032C275.178 562.345 281.16 572.885 281.16 579.651V582.774C281.16 593.704 274.658 599.17 261.654 599.17H78.3071C65.3037 599.17 58.802 593.704 58.802 582.774V579.651C58.802 572.885 64.1334 562.345 74.7962 548.032C85.4589 533.718 90.7903 519.535 90.7903 505.482V211.146C90.7903 198.134 84.1586 185.903 70.8951 174.452C57.6317 163.001 51 153.632 51 146.346V141.661C51 132.292 57.5017 124.225 70.505 117.458L185.975 60.4651C198.978 55.2602 208.211 54.3494 213.672 57.7326C219.133 61.1157 221.864 67.4917 221.864 76.8605V92.4751C241.109 67.4917 272.317 55 315.488 55ZM657.889 160.209C657.889 143.064 661.669 128.257 669.228 115.788C676.788 103.318 686.824 97.0837 699.337 97.0837C707.678 97.0837 714.977 99.9413 721.233 105.656C727.49 111.371 732.052 118.645 734.919 127.478C737.786 136.31 739.742 144.493 740.784 152.026C741.827 159.56 742.348 166.704 742.348 173.458C742.348 192.162 735.571 206.45 722.016 216.321L671.965 252.949C662.581 226.452 657.889 195.539 657.889 160.209ZM861.999 305.164C854.7 302.567 848.183 304.385 842.448 310.62C825.765 327.245 802.565 335.558 772.848 335.558C741.045 335.558 714.977 322.569 694.644 296.592L836.192 204.631C853.918 193.201 862.781 177.874 862.781 158.651C862.781 132.154 849.617 108.254 823.289 86.9525C796.96 65.6508 759.814 55 711.849 55C659.192 55 613.704 72.9246 575.385 108.774C537.065 144.623 517.905 190.863 517.905 247.494C517.905 306.204 536.022 353.743 572.256 390.111C608.491 426.48 655.803 444.664 714.195 444.664C761.117 444.664 799.306 430.766 828.763 402.97C858.219 375.174 872.948 348.287 872.948 322.31C872.948 313.477 869.298 307.762 861.999 305.164ZM1088.27 373.538C1099.72 393.837 1112.98 403.987 1128.06 403.987C1157.19 403.987 1171.75 376.921 1171.75 322.791C1171.75 293.123 1170.06 262.414 1166.68 230.665C1163.3 198.915 1156.15 168.596 1145.23 139.709C1134.31 110.822 1120.78 96.3787 1104.66 96.3787C1082.29 96.3787 1071.11 113.555 1071.11 147.907V293.123C1071.11 326.434 1076.83 353.239 1088.27 373.538ZM1141.33 55C1171.49 55 1200.23 61.376 1227.54 74.1279C1254.85 86.8799 1278.12 108.09 1297.37 137.757C1316.61 167.425 1326.23 202.818 1326.23 243.937C1326.23 304.313 1308.03 352.979 1271.62 389.934C1235.21 426.888 1191.78 445.366 1141.33 445.366C1113.24 445.366 1089.83 439.9 1071.11 428.97V505.482C1071.11 519.535 1077.09 533.718 1089.05 548.032C1101.02 562.345 1107 572.885 1107 579.651V582.774C1107 593.704 1100.5 599.17 1087.49 599.17H904.146C891.142 599.17 884.641 593.704 884.641 582.774V579.651C884.641 572.885 889.972 562.345 900.635 548.032C911.297 533.718 916.629 519.535 916.629 505.482V211.146C916.629 198.134 909.997 185.903 896.734 174.452C883.47 163.001 876.839 153.632 876.839 146.346V141.661C876.839 132.292 883.34 124.225 896.344 117.458L1011.81 60.4651C1024.82 55.2602 1034.05 54.3494 1039.51 57.7326C1044.97 61.1157 1047.7 67.4917 1047.7 76.8605V92.4751C1066.95 67.4917 1098.16 55 1141.33 55ZM1586.21 403.987C1571.13 403.987 1557.87 393.837 1546.42 373.538C1534.98 353.239 1529.26 326.434 1529.26 293.123V147.907C1529.26 113.555 1540.44 96.3787 1562.81 96.3787C1578.93 96.3787 1592.46 110.822 1603.38 139.709C1614.3 168.596 1621.45 198.915 1624.83 230.665C1628.22 262.414 1629.91 293.123 1629.91 322.791C1629.91 376.921 1615.34 403.987 1586.21 403.987ZM1755.52 137.757C1736.27 108.09 1713 86.8799 1685.69 74.1279C1658.38 61.376 1629.65 55 1599.48 55C1556.31 55 1525.1 67.4917 1505.85 92.4751V76.8605C1505.85 67.4917 1503.12 61.1157 1497.66 57.7326C1492.2 54.3494 1482.97 55.2602 1469.96 60.4651L1354.49 117.458C1341.49 124.225 1334.99 132.292 1334.99 141.661V146.346C1334.99 153.632 1341.62 163.001 1354.88 174.452C1368.15 185.903 1374.78 198.134 1374.78 211.146V505.482C1374.78 519.535 1369.45 533.718 1358.79 548.032C1348.12 562.345 1342.79 572.885 1342.79 579.651V582.774C1342.79 593.704 1349.29 599.17 1362.3 599.17H1545.64C1558.65 599.17 1565.15 593.704 1565.15 582.774V579.651C1565.15 572.885 1559.17 562.345 1547.2 548.032C1535.24 533.718 1529.26 519.535 1529.26 505.482V428.97C1547.98 439.9 1571.39 445.366 1599.48 445.366C1649.93 445.366 1693.36 426.888 1729.77 389.934C1766.18 352.979 1784.39 304.313 1784.39 243.937C1784.39 202.818 1774.76 167.425 1755.52 137.757ZM2206.46 60.8304H2094.71C2081.68 60.8304 2075.17 66.564 2075.17 78.0312V81.1586C2075.17 86.8922 2080.32 94.0591 2090.41 102.66C2100.57 111.26 2108.51 119.86 2114.25 128.461C2119.98 137.061 2119.72 151.525 2113.46 171.854L2050.94 325.097L1981.46 156.998C1975.73 139.798 1973.64 128.07 1975.2 121.815C1976.77 115.56 1979.89 108.654 1984.58 101.096C1989.27 93.5379 1991.62 86.8922 1991.62 81.1586V78.0312C1991.62 72.8188 1989.92 68.6489 1986.54 65.5215C1983.15 62.3941 1978.53 60.8304 1972.86 60.8304H1786.86C1773.84 60.8304 1767.33 66.3034 1767.33 77.2493V80.3767C1767.33 89.2377 1773.58 101.356 1786.08 116.733C1798.59 132.109 1807.44 144.749 1812.65 154.653L1973.64 464.266C1947.53 527.792 1924.93 559.653 1905.65 559.653C1898.88 559.653 1893.54 553.789 1889.63 542.061C1885.72 530.333 1882.6 517.432 1880.25 503.359C1877.91 489.286 1871.33 476.385 1860.71 464.657C1850.03 452.93 1834.99 447.066 1815.78 447.066C1796.5 447.066 1781.26 452.669 1770.06 463.876C1758.86 475.082 1753.26 490.068 1753.26 508.832C1753.26 534.894 1765.5 557.437 1789.99 576.462C1814.41 595.487 1846.26 605 1885.33 605C1943.16 605 1992.85 560.174 2034.53 470.521L2181.45 154.653C2186.14 144.228 2194.74 131.458 2207.31 116.342C2219.75 101.226 2226 89.2377 2226 80.3767V77.2493C2226 66.3034 2219.49 60.8304 2206.46 60.8304Z" fill="white"/>
</svg>
