<svg width="752" height="847" viewBox="0 0 752 847" fill="none" xmlns="http://www.w3.org/2000/svg">
<path d="M7.802 621.774C7.802 645.786 15.5058 679.265 44.6124 704.672L148.36 808.419C151.913 812.492 155.853 816.378 160.194 820.027C184.017 840.052 210.481 845.035 228.07 845.977C230.636 846.115 233.058 846.17 235.307 846.17H418.654C420.904 846.17 423.326 846.115 425.891 845.977C443.48 845.035 469.944 840.052 493.768 820.027C524.178 794.465 532.16 760.215 532.16 735.774V732.651C532.16 714.641 527.525 699.262 522.732 687.966C569.467 679.575 612.102 659.28 649.225 627.929C656.297 621.957 663.136 615.611 669.742 608.906C726.33 551.471 751.396 477.618 751.396 396.937C751.396 340.691 738.044 286.857 707.39 239.601C706.683 238.512 705.97 237.427 705.251 236.347C694.471 220.156 682.335 205.099 668.736 191.506L554.727 77.4978C534.452 57.2344 511.073 40.3782 484.474 27.957C444.701 9.38379 402.386 0 358.489 0C335.668 0 312.492 2.51802 290.073 8.65142C269.122 0.185097 249.397 0.052494 236.423 1.33249C219.728 2.97957 205.049 7.79134 194.044 12.1965L190.649 13.5551L71.0005 72.6111L70.1147 73.0722L70.1104 73.0744C45.6496 85.8037 0 118.571 0 180.661V185.346C0 216.745 13.6985 240.065 22.2503 252.147C27.7646 259.937 33.8368 266.826 39.7903 272.823V534.5L30 549L21.921 563.243C16.8454 573.277 7.802 593.361 7.802 618.651V621.774Z" fill="url(#paint0_linear_106_2592)"/>
<path d="M286.156 55.0859C308.422 46.6339 333.032 43 358.489 43C396.105 43 432.209 51.0079 466.28 66.9182C488.043 77.0813 507.351 90.9428 524.33 107.912L638.33 221.912C649.747 233.322 660.11 246.137 669.459 260.178C670.082 261.114 670.701 262.056 671.315 263.003C696.748 302.21 708.396 347.606 708.396 396.937C708.396 468.343 686.461 530.669 639.112 578.727C633.4 584.524 627.522 589.975 621.481 595.077C579.194 630.789 528.958 649.366 472.488 649.366C466.02 649.366 459.608 649.13 453.27 648.637V658.369C453.418 659.153 454.365 662.365 459.347 668.325C466.364 676.721 472.949 685.549 478.028 694.5C482.418 702.234 489.16 715.939 489.16 732.651V735.774C489.16 751.649 484.018 772.049 466.099 787.111C451.905 799.042 435.728 802.389 423.591 803.039C421.857 803.132 420.206 803.17 418.654 803.17H235.307C233.756 803.17 232.104 803.132 230.37 803.039C218.233 802.389 202.057 799.042 187.862 787.111C185.063 784.757 182.575 782.273 180.37 779.697L180.305 779.621C180.254 779.561 180.203 779.501 180.152 779.441C180.079 779.355 180.006 779.268 179.933 779.182L73.8624 673.111C55.9436 658.049 50.802 637.649 50.802 621.774V618.651C50.802 603.365 56.3321 590.479 60.2915 582.652C64.7629 573.812 70.6065 565.009 76.8972 556.564C82.7885 548.656 82.7903 544.901 82.7903 544.482V255.008L71.5478 243.765C66.4183 238.712 61.5379 233.223 57.3471 227.303C51.181 218.592 43 204.038 43 185.346V180.661C43 142.891 70.4564 121.368 89.9635 111.217L90.4452 110.966L208.181 52.8544L210.023 52.1172C218.962 48.5392 229.47 45.2271 240.645 44.1247C251.621 43.0418 267.87 43.6769 283.529 53.3772C284.429 53.9343 285.304 54.5041 286.156 55.0859Z" fill="black"/>
<path fill-rule="evenodd" clip-rule="evenodd" d="M345.225 442.987C330.141 442.987 316.878 432.837 305.435 412.538C293.992 392.239 288.27 365.434 288.27 332.123V186.907C288.27 152.555 299.453 135.379 321.819 135.379C337.943 135.379 351.467 149.822 362.389 178.709C373.312 207.596 380.464 237.915 383.845 269.665C387.226 301.414 388.916 332.123 388.916 361.791C388.916 415.921 374.353 442.987 345.225 442.987ZM444.701 113.128C417.394 100.376 388.656 94 358.488 94C315.317 94 284.109 106.492 264.864 131.475V115.86C264.864 106.492 262.133 100.116 256.672 96.7326C251.211 93.3494 241.978 94.2602 228.975 99.4651L113.505 156.458C100.502 163.225 94 171.292 94 180.661V185.346C94 192.632 100.632 202.001 113.895 213.452C127.159 224.903 133.79 237.134 133.79 250.146V544.482C133.79 558.535 128.459 572.718 117.796 587.032C107.133 601.345 101.802 611.885 101.802 618.651V621.774C101.802 632.704 108.304 638.17 121.307 638.17H304.654C317.658 638.17 324.16 632.704 324.16 621.774V618.651C324.16 611.885 318.178 601.345 306.215 587.032C294.252 572.718 288.27 558.535 288.27 544.482V467.97C306.995 478.9 330.401 484.366 358.488 484.366C408.941 484.366 452.373 465.888 488.782 428.934C525.192 391.979 543.396 343.313 543.396 282.937C543.396 241.818 533.774 206.425 514.529 176.757C495.284 147.09 472.008 125.88 444.701 113.128Z" fill="white"/>
<defs>
<linearGradient id="paint0_linear_106_2592" x1="0" y1="846.17" x2="751.396" y2="846.17" gradientUnits="userSpaceOnUse">
<stop stop-color="#FF00CC"/>
<stop offset="0.704761" stop-color="#FFFF00"/>
<stop offset="1" stop-color="#B0FF31"/>
</linearGradient>
</defs>
</svg>
