<svg width="512" height="512" viewBox="0 0 512 512" fill="none" xmlns="http://www.w3.org/2000/svg">
<path d="M256 0.00050163C249.135 -0.000586408 242.382 1.73355 236.365 5.04221L49.0751 113.439C43.1062 116.948 38.1553 121.957 34.7116 127.97C31.268 133.983 29.4509 140.791 29.4399 147.723V364.012C29.4509 370.943 31.268 377.752 34.7116 383.764C38.1553 389.777 43.1062 394.786 49.0751 398.295L99.4217 426.529C112.391 434.41 127.298 438.513 142.468 438.377C150.188 438.966 157.942 437.824 165.166 435.036C172.39 432.247 178.903 427.881 184.231 422.256C189.56 416.631 193.569 409.887 195.968 402.516C198.367 395.144 199.096 387.33 198.101 379.641V166.125C198.101 165.396 197.958 164.675 197.68 164.002C197.401 163.33 196.993 162.718 196.479 162.203C195.965 161.688 195.354 161.28 194.682 161.001C194.01 160.722 193.29 160.579 192.563 160.579H167.893C167.145 160.545 166.398 160.663 165.696 160.926C164.995 161.19 164.355 161.593 163.813 162.111C163.272 162.63 162.841 163.253 162.548 163.943C162.254 164.632 162.103 165.375 162.103 166.125V379.641C162.103 396.279 144.985 412.664 117.547 398.8L67.1999 369.306C66.3524 368.706 65.6593 367.913 65.1778 366.993C64.6963 366.073 64.4403 365.051 64.4308 364.012V147.723C64.3952 146.676 64.6317 145.637 65.1171 144.709C65.6025 143.781 66.3202 142.996 67.1999 142.429L254.489 34.2841C255.331 33.7974 256.286 33.5411 257.258 33.5411C258.231 33.5411 259.186 33.7974 260.027 34.2841L446.058 142.429C446.938 142.996 447.656 143.781 448.141 144.709C448.626 145.637 448.863 146.676 448.827 147.723V364.012C448.818 365.051 448.562 366.073 448.08 366.993C447.599 367.913 446.906 368.706 446.058 369.306L258.769 477.45C257.881 477.936 256.885 478.19 255.874 478.19C254.862 478.19 253.867 477.936 252.979 477.45L205.653 448.712C204.82 448.344 203.92 448.154 203.01 448.154C202.1 448.154 201.199 448.344 200.367 448.712C191.647 454.354 182.147 458.686 172.173 461.569C169.152 461.569 164.369 464.342 173.935 469.636L236.365 506.692C242.326 510.168 249.101 512 256 512C262.898 512 269.673 510.168 275.635 506.692L462.924 398.547C468.93 395.016 473.905 389.968 477.35 383.907C480.796 377.846 482.593 370.986 482.56 364.012V147.723C482.549 140.791 480.731 133.983 477.288 127.97C473.844 121.957 468.893 116.948 462.924 113.439L275.635 5.04221C269.63 1.70234 262.868 -0.0339065 256 0.00050163ZM306.346 155.033C252.979 155.033 221.009 177.469 221.009 215.281C221.009 253.094 252.727 267.715 304.081 272.757C365.252 278.807 370.035 287.882 370.035 299.982C370.035 320.905 353.169 329.728 313.898 329.728C263.552 329.728 253.482 317.376 249.706 292.672C249.425 291.403 248.725 290.266 247.721 289.444C246.717 288.621 245.466 288.16 244.168 288.134H218.995C218.279 288.133 217.57 288.278 216.912 288.56C216.254 288.841 215.659 289.254 215.165 289.773C214.671 290.291 214.287 290.905 214.036 291.577C213.786 292.248 213.674 292.964 213.709 293.68C213.709 324.939 230.826 362.751 312.891 362.751C372.049 362.751 406.033 339.307 406.033 298.47C406.033 257.632 378.845 248.052 321.199 239.482C263.552 230.911 257.258 227.886 257.258 214.273C257.258 200.66 262.293 189.065 305.339 189.065C343.099 189.065 357.952 197.383 363.742 223.348C363.978 224.571 364.638 225.671 365.605 226.455C366.572 227.239 367.784 227.656 369.028 227.634H394.201C394.923 227.644 395.637 227.49 396.291 227.185C396.945 226.879 397.521 226.429 397.977 225.869C398.539 225.379 398.954 224.743 399.176 224.031C399.398 223.319 399.419 222.559 399.236 221.836C395.963 175.704 366.259 155.033 306.346 155.033Z" fill="white"/>
</svg>
