<svg width="512" height="512" viewBox="0 0 512 512" fill="none" xmlns="http://www.w3.org/2000/svg">
<g clip-path="url(#clip0_120_169)">
<path d="M256 102.4C187.733 102.4 145.067 136.533 128 204.8C153.6 170.667 183.467 157.867 217.6 166.4C237.077 171.264 250.987 185.387 266.411 201.045C291.52 226.517 320.555 256 384 256C452.267 256 494.933 221.867 512 153.6C486.4 187.733 456.533 200.533 422.4 192C402.923 187.136 389.013 173.013 373.589 157.355C348.501 131.883 319.467 102.4 256 102.4ZM128 256C59.7333 256 17.0666 290.133 -6.10352e-05 358.4C25.5999 324.267 55.4666 311.467 89.5999 320C109.077 324.864 122.987 338.987 138.411 354.645C163.52 380.117 192.555 409.6 256 409.6C324.267 409.6 366.933 375.467 384 307.2C358.4 341.333 328.533 354.133 294.4 345.6C274.923 340.736 261.013 326.613 245.589 310.955C220.501 285.483 191.467 256 128 256Z" fill="white"/>
</g>
<defs>
<clipPath id="clip0_120_169">
<rect width="512" height="512" fill="white"/>
</clipPath>
</defs>
</svg>
