<svg width="512" height="512" viewBox="0 0 512 512" fill="none" xmlns="http://www.w3.org/2000/svg">
<path fill-rule="evenodd" clip-rule="evenodd" d="M99.2 32H412.8C449.914 32 480 62.0865 480 99.2V412.8C480 449.914 449.914 480 412.8 480H99.2C62.0865 480 32 449.914 32 412.8V99.2C32 62.0865 62.0865 32 99.2 32ZM291.875 280.5H235.875V440.625H191.25V280.5H135.25V244.625H291.875V280.5ZM334.75 440.1C325.125 438.263 316.463 435.55 309.375 431.875V389.875C315.588 395.073 324.338 400.06 333.963 403.385C342.713 406.71 352.338 408.373 361.963 408.373C368.088 408.373 372.725 407.848 376.838 406.885C381.125 405.835 384.538 404.435 387.338 402.685C390.138 400.935 392.22 398.835 393.55 396.385C394.88 393.935 395.563 391.31 395.563 388.51C395.563 384.485 394.425 380.985 392.238 378.01C390.225 375.035 387.25 372.235 383.488 369.698C379.988 367.16 375.613 364.71 370.363 362.348C369.67 362.036 368.975 361.722 368.278 361.408C363.692 359.338 358.978 357.212 353.738 355.085C338.863 348.085 327.138 341.085 319.613 331.46C312 322.71 308.238 311.335 308.238 298.21C308.238 287.71 310.25 279.31 314.363 271.96C318.738 264.085 323.9 258.31 330.988 253.585C337.988 248.773 345.863 245.273 355.488 243.085C365.113 240.898 374.738 239.76 385.238 239.76C395.738 239.76 404.488 240.373 412.363 241.598C420.238 242.823 427.588 244.748 434.238 247.285V288.41C431.175 286.135 427.588 284.123 423.738 282.373C419.625 280.623 415.6 279.222 411.488 278.085C407.375 276.947 403.263 276.099 399.238 275.548C395.388 274.996 391.538 274.725 387.863 274.725C382.525 274.725 377.975 275.163 373.863 276.125C369.663 277.088 366.163 278.4 363.363 280.15C360.563 281.9 358.384 283.913 356.8 286.363C355.216 288.813 354.438 291.525 354.438 294.5C354.438 297.738 355.313 300.625 357.063 303.25C358.813 305.788 361.263 308.238 364.5 310.6C367.388 312.875 371.325 315.15 375.875 317.425C377.871 318.29 379.791 319.155 381.722 320.025C384.87 321.443 388.046 322.873 391.625 324.338C399.5 327.663 406.5 331.338 412.625 334.838C418.75 338.338 423.913 342.45 428.375 347.088C433.1 351.463 436.513 356.713 438.875 362.838C441.238 368.963 442.463 375.875 442.463 383.838C442.463 395.213 439.75 403.963 436.25 411.838C432.75 419.713 426.713 425.575 419.625 430.213C412.625 434.5 404.75 437.825 395.125 439.838C385.5 441.85 375.875 442.813 365.375 442.813C354.875 442.813 344.375 441.938 334.75 440.1Z" fill="white"/>
</svg>
