<svg width="2389" height="767" viewBox="0 0 2389 767" fill="none" xmlns="http://www.w3.org/2000/svg">
<path d="M302.225 403.987C287.141 403.987 273.878 393.837 262.435 373.538C250.992 353.239 245.27 326.434 245.27 293.123V147.907C245.27 113.555 256.453 96.3788 278.819 96.3788C294.943 96.3788 308.467 110.822 319.389 139.709C330.312 168.596 337.464 198.915 340.845 230.665C344.226 262.414 345.916 293.123 345.916 322.791C345.916 376.921 331.353 403.987 302.225 403.987Z" fill="black"/>
<path d="M669.228 115.788C661.669 128.257 657.889 143.064 657.889 160.209C657.889 195.539 662.581 226.452 671.965 252.949L722.016 216.321C735.571 206.45 742.348 192.162 742.348 173.458C742.348 166.704 741.827 159.56 740.784 152.026C739.742 144.493 737.786 136.31 734.919 127.478C732.052 118.645 727.49 111.371 721.233 105.656C714.977 99.9413 707.678 97.0837 699.337 97.0837C686.824 97.0837 676.788 103.318 669.228 115.788Z" fill="black"/>
<path d="M1128.06 403.987C1112.98 403.987 1099.72 393.837 1088.27 373.538C1076.83 353.239 1071.11 326.434 1071.11 293.123V147.907C1071.11 113.555 1082.29 96.3788 1104.66 96.3788C1120.78 96.3788 1134.31 110.822 1145.23 139.709C1156.15 168.596 1163.3 198.915 1166.68 230.665C1170.06 262.414 1171.75 293.123 1171.75 322.791C1171.75 376.921 1157.19 403.987 1128.06 403.987Z" fill="black"/>
<path d="M1546.42 373.538C1557.87 393.837 1571.13 403.987 1586.21 403.987C1615.34 403.987 1629.91 376.921 1629.91 322.791C1629.91 293.123 1628.22 262.414 1624.83 230.665C1621.45 198.915 1614.3 168.596 1603.38 139.709C1592.46 110.822 1578.93 96.3788 1562.81 96.3788C1540.44 96.3788 1529.26 113.555 1529.26 147.907V293.123C1529.26 326.434 1534.98 353.239 1546.42 373.538Z" fill="black"/>
<path fill-rule="evenodd" clip-rule="evenodd" d="M2366.42 136.429C2366.83 136.827 2367.25 137.235 2367.65 137.672C2380.93 150.247 2389 168.359 2389 190.251C2389 218.985 2371.55 243.483 2358.34 259.446C2345.45 275.018 2341.15 283.162 2339.65 286.55L2192.78 602.354C2142 711.619 2075.99 767 1996.37 767C1945.65 767 1902.81 753.708 1869.16 727.516C1857.37 718.329 1847.93 708.817 1840.38 699.174C1840.14 698.873 1839.83 698.586 1839.52 698.3C1839.16 697.967 1838.8 697.635 1838.56 697.285C1838.32 697.021 1838.03 696.758 1837.72 696.489C1837.34 696.159 1836.96 695.819 1836.67 695.46C1836.41 695.132 1836.06 694.82 1835.73 694.516C1835.4 694.217 1835.07 693.927 1834.85 693.636C1834.59 693.31 1834.25 693.001 1833.9 692.691C1833.56 692.382 1833.22 692.072 1832.96 691.746C1832.73 691.456 1832.41 691.165 1832.08 690.867C1831.75 690.563 1831.4 690.251 1831.14 689.922C1830.88 689.596 1830.53 689.303 1830.19 689.01C1829.85 688.717 1829.51 688.424 1829.25 688.098C1829.02 687.772 1828.7 687.463 1828.37 687.153C1828.04 686.844 1827.72 686.534 1827.49 686.208C1827.26 685.945 1826.96 685.682 1826.65 685.413C1826.28 685.082 1825.89 684.743 1825.6 684.384C1825.36 684.079 1825.04 683.803 1824.73 683.528C1824.38 683.216 1824.02 682.906 1823.78 682.56C1823.52 682.234 1823.18 681.924 1822.84 681.615C1822.49 681.305 1822.15 680.996 1821.89 680.67C1821.63 680.377 1821.31 680.068 1820.98 679.758C1820.66 679.448 1820.33 679.139 1820.07 678.846C1819.81 678.517 1819.46 678.205 1819.12 677.901C1818.79 677.603 1818.47 677.312 1818.25 677.021C1817.99 676.696 1817.64 676.386 1817.3 676.077C1816.96 675.767 1816.62 675.458 1816.36 675.132C1816.1 674.839 1815.77 674.529 1815.45 674.22C1815.12 673.91 1814.8 673.601 1814.54 673.308C1814.3 673.007 1813.99 672.72 1813.68 672.434C1813.32 672.1 1812.96 671.769 1812.71 671.418C1812.48 671.155 1812.18 670.892 1811.87 670.623C1811.5 670.292 1811.11 669.953 1810.83 669.594C1810.61 669.352 1810.34 669.11 1810.06 668.864C1809.67 668.513 1809.27 668.152 1809 667.77C1808.76 667.469 1808.45 667.181 1808.14 666.895C1807.78 666.562 1807.42 666.231 1807.18 665.88C1806.92 665.587 1806.58 665.294 1806.24 665C1805.89 664.707 1805.55 664.414 1805.29 664.121C1805.05 663.82 1804.74 663.533 1804.43 663.247C1804.07 662.914 1803.71 662.582 1803.47 662.231C1803.23 661.93 1802.92 661.643 1802.61 661.357C1802.25 661.024 1801.89 660.693 1801.65 660.342C1801.41 660.079 1801.11 659.815 1800.81 659.546C1800.43 659.216 1800.04 658.877 1799.76 658.518C1799.53 658.192 1799.19 657.899 1798.85 657.605C1798.5 657.312 1798.16 657.019 1797.93 656.693C1797.69 656.392 1797.38 656.105 1797.08 655.819C1796.72 655.486 1796.36 655.154 1796.11 654.804C1795.88 654.571 1795.62 654.329 1795.35 654.084C1794.95 653.711 1794.54 653.333 1794.22 652.979C1794 652.654 1793.65 652.36 1793.31 652.067C1792.97 651.774 1792.63 651.481 1792.4 651.155C1792.14 650.829 1791.8 650.52 1791.46 650.21C1791.12 649.901 1790.77 649.591 1790.51 649.266C1789.99 648.679 1789.21 648.028 1788.69 647.441C1788.45 647.091 1788.07 646.76 1787.7 646.437C1787.39 646.159 1787.08 645.888 1786.87 645.617C1786.58 645.258 1786.19 644.919 1785.82 644.588C1785.51 644.319 1785.21 644.056 1784.98 643.793C1784.72 643.467 1784.39 643.157 1784.07 642.848C1783.74 642.538 1783.42 642.229 1783.16 641.903C1782.92 641.602 1782.61 641.315 1782.3 641.029C1781.94 640.696 1781.58 640.364 1781.33 640.014C1781.07 639.72 1780.73 639.427 1780.39 639.134C1780.05 638.841 1779.71 638.548 1779.45 638.255C1779.22 637.929 1778.88 637.619 1778.53 637.31C1778.19 637 1777.85 636.691 1777.62 636.365C1777.39 636.105 1777.1 635.832 1776.8 635.558C1776.43 635.214 1776.05 634.867 1775.8 634.541C1775.54 634.215 1775.2 633.905 1774.86 633.596C1774.51 633.286 1774.17 632.977 1773.91 632.651C1773.68 632.325 1773.34 632.032 1773 631.739C1772.66 631.446 1772.32 631.153 1772.09 630.827C1771.83 630.498 1771.48 630.186 1771.14 629.882C1770.81 629.584 1770.49 629.293 1770.27 629.003C1770.01 628.677 1769.66 628.367 1769.32 628.058C1768.98 627.748 1768.64 627.439 1768.38 627.113C1768.15 626.787 1767.81 626.494 1767.47 626.201C1767.12 625.908 1766.78 625.615 1766.56 625.289C1766.27 624.93 1765.88 624.59 1765.51 624.26C1765.2 623.991 1764.9 623.728 1764.67 623.464C1764.42 623.114 1764.06 622.782 1763.7 622.449C1763.4 622.163 1763.09 621.876 1762.84 621.575C1762.62 621.249 1762.27 620.956 1761.93 620.663C1761.59 620.37 1761.25 620.076 1761.02 619.751C1760.73 619.391 1760.35 619.052 1759.97 618.722C1759.67 618.453 1759.37 618.189 1759.13 617.926C1758.89 617.576 1758.53 617.244 1758.17 616.911C1757.86 616.625 1757.55 616.338 1757.31 616.037C1756.79 615.45 1755.94 614.799 1755.49 614.212C1755.2 613.853 1754.81 613.514 1754.44 613.184C1754.13 612.915 1753.83 612.651 1753.6 612.388C1753.35 612.038 1753 611.706 1752.64 611.373C1752.33 611.087 1752.02 610.8 1751.78 610.499C1751.52 610.205 1751.19 609.896 1750.87 609.586C1750.54 609.277 1750.21 608.968 1749.95 608.674C1749.67 608.315 1749.28 607.976 1748.91 607.646C1748.6 607.376 1748.3 607.113 1748.07 606.85C1747.82 606.499 1747.46 606.168 1747.1 605.835C1746.79 605.549 1746.48 605.261 1746.24 604.961C1745.98 604.667 1745.66 604.358 1745.33 604.048C1745.01 603.739 1744.68 603.429 1744.42 603.136L1744.29 603.006C1733.03 604.765 1721.57 605.938 1709.66 605.938C1703.41 605.938 1697.35 605.742 1691.43 605.286V613.756C1691.43 613.821 1692.08 616.949 1697.29 623.269C1712.19 641.056 1727.36 662.688 1727.36 691.421C1727.36 731.165 1697.22 759.963 1655.75 759.963H1472.16C1450.87 759.963 1432.84 752.21 1420.01 739.049C1419.43 738.462 1418.84 737.811 1418.19 737.224C1417.54 736.573 1416.96 735.986 1416.37 735.335C1415.72 734.748 1415.13 734.162 1414.48 733.511L1412.66 731.686C1412.01 731.035 1411.42 730.448 1410.84 729.797C1410.18 729.21 1409.6 728.624 1408.95 727.972C1408.75 727.779 1408.55 727.586 1408.35 727.391C1407.94 726.993 1407.52 726.585 1407.12 726.148L1407.12 726.146C1406.47 725.495 1405.89 724.909 1405.3 724.259C1404.65 723.672 1404.06 723.086 1403.41 722.434C1403.22 722.241 1403.02 722.048 1402.82 721.853C1402.41 721.455 1401.98 721.047 1401.59 720.61C1400.94 720.024 1400.35 719.372 1399.77 718.72C1399.12 718.134 1398.53 717.548 1397.88 716.896C1397.29 716.31 1396.64 715.723 1396.06 715.072C1395.41 714.42 1394.82 713.834 1394.23 713.182C1393.58 712.596 1393 712.01 1392.41 711.358C1391.7 710.706 1391.11 710.12 1390.52 709.534C1389.87 708.882 1389.29 708.296 1388.64 707.709C1388.05 707.058 1387.46 706.406 1386.81 705.82C1386.16 705.168 1385.64 704.582 1384.99 703.995L1381.28 700.282L1381.28 700.28C1380.63 699.629 1380.04 699.043 1379.46 698.392C1378.81 697.806 1378.22 697.219 1377.57 696.568C1377.38 696.375 1377.18 696.182 1376.97 695.987C1376.56 695.589 1376.14 695.181 1375.75 694.744C1375.09 694.157 1374.51 693.506 1373.92 692.854C1373.27 692.268 1372.69 691.681 1372.1 691.03C1371.45 690.443 1370.8 689.857 1370.21 689.205C1369.78 688.812 1369.37 688.39 1368.97 687.977C1368.77 687.775 1368.58 687.574 1368.39 687.381C1367.74 686.73 1367.15 686.143 1366.57 685.492C1366.03 685.055 1365.61 684.618 1365.16 684.154C1365 683.995 1364.84 683.833 1364.68 683.667C1364.24 683.274 1363.83 682.852 1363.44 682.439C1363.24 682.236 1363.05 682.036 1362.85 681.843L1360.97 679.953C1360.64 679.66 1360.35 679.351 1360.06 679.041C1359.76 678.732 1359.47 678.422 1359.14 678.129C1358.71 677.74 1358.31 677.323 1357.9 676.896C1357.69 676.679 1357.48 676.459 1357.26 676.24C1356.67 675.653 1356.08 675.067 1355.5 674.415C1355.02 674.027 1354.63 673.609 1354.24 673.182C1354.03 672.965 1353.83 672.745 1353.61 672.526C1352.96 671.939 1352.37 671.353 1351.79 670.701C1351.14 670.115 1350.55 669.529 1349.9 668.877C1349.57 668.584 1349.28 668.274 1348.99 667.965C1348.7 667.656 1348.4 667.346 1348.08 667.053C1347.43 666.401 1346.84 665.815 1346.25 665.163C1345.6 664.577 1345.02 663.991 1344.37 663.339C1344.04 663.046 1343.75 662.736 1343.45 662.427C1343.16 662.117 1342.87 661.808 1342.54 661.515C1341.89 660.863 1341.31 660.277 1340.72 659.625C1340.07 659.039 1339.48 658.452 1338.83 657.801C1338.4 657.408 1337.99 656.985 1337.59 656.573C1337.4 656.37 1337.2 656.17 1337.01 655.977L1337.01 655.975C1336.36 655.324 1335.77 654.738 1335.19 654.087C1334.54 653.501 1333.95 652.914 1333.3 652.263L1331.48 650.438C1330.82 649.787 1330.24 649.201 1329.65 648.549C1329 647.963 1328.42 647.376 1327.76 646.725C1327.33 646.331 1326.92 645.909 1326.52 645.497C1326.33 645.294 1326.14 645.094 1325.94 644.9C1325.29 644.249 1324.7 643.662 1324.12 643.011C1323.71 642.675 1323.36 642.319 1323.02 641.965C1322.76 641.7 1322.51 641.437 1322.23 641.186L1318.52 637.473C1318.19 637.179 1317.9 636.87 1317.61 636.56C1317.32 636.251 1317.02 635.942 1316.7 635.648C1316.05 634.997 1315.46 634.41 1314.87 633.759C1314.22 633.172 1313.64 632.586 1312.99 631.935L1311.16 630.11C1303.29 622.617 1297.88 612.974 1294.3 601.963C1280.76 604.374 1267.02 605.938 1252.64 605.938C1246.39 605.938 1240.33 605.742 1234.41 605.286V613.756C1234.41 613.821 1235.06 616.949 1240.27 623.269C1255.18 641.056 1270.34 662.688 1270.34 691.421C1270.34 731.165 1240.2 759.963 1198.73 759.963H1015.14C993.854 759.963 975.821 752.21 963.061 739.049C962.735 738.755 962.426 738.446 962.117 738.136C961.807 737.827 961.498 737.518 961.173 737.224C960.522 736.573 959.936 735.986 959.35 735.335C958.699 734.748 958.113 734.162 957.462 733.511L955.639 731.686C954.988 731.035 954.402 730.448 953.816 729.797C953.165 729.21 952.579 728.624 951.928 727.972C951.735 727.779 951.536 727.586 951.333 727.391C950.921 726.993 950.498 726.585 950.105 726.148L950.103 726.146C949.453 725.495 948.868 724.909 948.282 724.259C947.631 723.672 947.046 723.086 946.395 722.434C946.202 722.241 946.002 722.048 945.8 721.853C945.387 721.455 944.965 721.047 944.572 720.61C943.921 720.024 943.335 719.372 942.749 718.72C942.098 718.134 941.512 717.548 940.861 716.896C940.275 716.31 939.624 715.723 939.038 715.072C938.387 714.42 937.801 713.834 937.215 713.182C936.564 712.596 935.978 712.01 935.327 711.358L933.504 709.534C932.853 708.882 932.267 708.296 931.616 707.709C931.03 707.058 930.444 706.406 929.793 705.82C929.571 705.598 929.365 705.383 929.163 705.173C928.772 704.768 928.4 704.382 927.971 703.995L924.26 700.282C923.609 699.63 923.088 699.044 922.437 698.392C921.786 697.806 921.2 697.219 920.549 696.568C920.356 696.375 920.156 696.182 919.954 695.987C919.541 695.589 919.119 695.181 918.726 694.744C918.075 694.157 917.489 693.506 916.903 692.854C916.252 692.268 915.666 691.681 915.08 691.03C914.429 690.443 913.778 689.857 913.192 689.205C912.756 688.812 912.348 688.39 911.951 687.977C911.755 687.775 911.562 687.574 911.369 687.381C910.718 686.73 910.132 686.143 909.547 685.492C908.896 684.905 908.245 684.319 907.659 683.667C907.222 683.274 906.815 682.852 906.417 682.439C906.222 682.236 906.029 682.036 905.836 681.843C905.185 681.191 904.599 680.605 904.013 679.953C903.603 679.618 903.257 679.261 902.915 678.907C902.658 678.643 902.403 678.38 902.125 678.129C901.693 677.74 901.29 677.323 900.878 676.896C900.668 676.679 900.456 676.459 900.237 676.24C899.651 675.653 899.065 675.067 898.479 674.415C898.004 674.027 897.615 673.609 897.217 673.182C897.015 672.965 896.811 672.745 896.591 672.526C895.94 671.939 895.354 671.353 894.703 670.701L892.88 668.877C892.444 668.484 892.036 668.061 891.639 667.649C891.444 667.446 891.25 667.246 891.057 667.053C890.406 666.401 889.82 665.815 889.235 665.163C888.584 664.577 887.932 663.991 887.347 663.339C886.91 662.946 886.503 662.523 886.105 662.111C885.91 661.908 885.717 661.708 885.524 661.515C884.873 660.863 884.287 660.277 883.701 659.625C883.05 659.039 882.464 658.452 881.813 657.801C881.376 657.408 880.969 656.985 880.572 656.573C880.376 656.37 880.183 656.17 879.99 655.977C879.339 655.325 878.753 654.739 878.167 654.087C877.516 653.501 876.93 652.914 876.279 652.263L874.454 650.436C873.804 649.786 873.219 649.2 872.633 648.549C871.982 647.963 871.396 647.376 870.745 646.725C870.309 646.332 869.902 645.909 869.504 645.497C869.309 645.294 869.116 645.094 868.923 644.9L867.035 643.011C866.709 642.718 866.416 642.408 866.123 642.099C865.83 641.789 865.537 641.48 865.212 641.186L861.501 637.473C861.175 637.179 860.882 636.87 860.589 636.56C860.297 636.251 860.004 635.942 859.678 635.648L859.676 635.646C859.026 634.996 858.44 634.41 857.855 633.759C857.204 633.172 856.618 632.586 855.967 631.935C855.381 631.348 854.795 630.697 854.144 630.11C846.983 623.269 841.514 614.864 837.869 605.091C836.167 605.15 834.544 605.327 832.923 605.505C830.948 605.722 828.976 605.938 826.866 605.938C754.472 605.938 694.318 582.352 648.16 535.831C647.943 535.614 647.784 535.397 647.625 535.18C647.545 535.071 647.466 534.963 647.379 534.854C646.988 534.528 646.598 534.268 646.337 534.007C646.175 533.844 646.044 533.665 645.914 533.486C645.784 533.307 645.654 533.128 645.491 532.965C645.328 532.802 645.149 532.671 644.97 532.541C644.791 532.411 644.612 532.281 644.449 532.118C644.232 531.901 644.073 531.683 643.914 531.466C643.835 531.358 643.755 531.249 643.668 531.14C643.481 530.953 643.273 530.809 643.056 530.659C642.894 530.547 642.728 530.432 642.561 530.293C642.474 530.185 642.395 530.076 642.315 529.967C642.156 529.75 641.997 529.533 641.78 529.316C641.552 529.088 641.293 528.892 641.046 528.706C640.94 528.626 640.836 528.547 640.738 528.469C640.638 528.344 640.548 528.208 640.455 528.071C640.308 527.852 640.157 527.627 639.957 527.427C639.794 527.264 639.615 527.133 639.436 527.003C639.257 526.873 639.078 526.742 638.916 526.58C638.699 526.362 638.54 526.145 638.38 525.928C638.301 525.82 638.221 525.711 638.134 525.602C637.948 525.415 637.739 525.271 637.522 525.121C637.361 525.009 637.194 524.894 637.028 524.755C636.927 524.63 636.837 524.495 636.745 524.357C636.597 524.138 636.447 523.913 636.246 523.713C636.046 523.512 635.821 523.361 635.602 523.214C635.465 523.122 635.33 523.031 635.205 522.931C635.104 522.805 635.014 522.67 634.922 522.533C634.775 522.314 634.624 522.089 634.424 521.888C634.326 521.81 634.222 521.732 634.116 521.651C633.869 521.465 633.609 521.269 633.382 521.041C633.219 520.879 633.105 520.716 632.991 520.553C632.877 520.39 632.763 520.227 632.601 520.064C632.453 519.916 632.279 519.795 632.108 519.677C631.902 519.534 631.701 519.395 631.559 519.217C631.416 519.074 631.298 518.918 631.183 518.766C631.037 518.573 630.895 518.386 630.713 518.24C630.53 518.021 630.328 517.884 630.128 517.748C629.97 517.642 629.814 517.536 629.671 517.393C629.541 517.23 629.411 517.051 629.28 516.871C629.15 516.692 629.02 516.513 628.89 516.35C628.727 516.187 628.548 516.057 628.369 515.927C628.19 515.796 628.011 515.666 627.848 515.503C627.631 515.286 627.472 515.069 627.313 514.852C627.234 514.743 627.154 514.635 627.067 514.526C626.919 514.378 626.745 514.257 626.574 514.139C626.368 513.996 626.168 513.857 626.025 513.679C625.882 513.536 625.764 513.38 625.649 513.228C625.503 513.035 625.361 512.848 625.179 512.702C624.997 512.483 624.794 512.346 624.594 512.21C624.436 512.104 624.281 511.998 624.137 511.855C623.937 511.654 623.786 511.429 623.639 511.21C623.547 511.073 623.456 510.938 623.356 510.812C623.193 510.649 623.014 510.519 622.835 510.389C622.656 510.258 622.477 510.128 622.314 509.965C622.097 509.748 621.938 509.531 621.779 509.314C621.7 509.205 621.62 509.096 621.533 508.988C621.386 508.84 621.211 508.719 621.04 508.601C620.834 508.458 620.634 508.319 620.492 508.141C620.329 507.978 620.199 507.799 620.068 507.62C619.938 507.44 619.808 507.261 619.645 507.098C619.543 507.016 619.434 506.941 619.323 506.864C619.081 506.695 618.827 506.519 618.604 506.251C618.571 506.219 618.539 506.17 618.506 506.121C618.473 506.072 618.441 506.023 618.408 505.991C611.312 516.09 604.021 525.928 595.167 534.919C548.749 582.026 492.37 605.938 427.658 605.938C421.408 605.938 415.354 605.742 409.429 605.286V613.756C409.429 613.821 410.08 616.949 415.289 623.269C430.197 641.056 445.366 662.688 445.366 691.421C445.366 731.165 415.224 759.963 373.753 759.963H190.164C168.941 759.963 150.842 752.21 138.082 739.049C137.757 738.755 137.448 738.446 137.138 738.136C136.829 737.827 136.52 737.518 136.194 737.224C135.543 736.573 134.957 735.986 134.371 735.335C133.72 734.748 133.135 734.162 132.484 733.511L130.661 731.686C130.01 731.035 129.424 730.448 128.838 729.797C128.187 729.21 127.601 728.624 127.015 727.972C126.364 727.386 125.713 726.8 125.127 726.148L125.126 726.147C124.475 725.496 123.89 724.91 123.304 724.259C122.653 723.672 122.067 723.086 121.481 722.434C120.83 721.848 120.245 721.262 119.594 720.611L119.593 720.61C118.942 720.024 118.356 719.372 117.77 718.72C117.119 718.134 116.533 717.548 115.947 716.896C115.297 716.31 114.711 715.724 114.06 715.073L114.06 715.072L114.059 715.071C113.408 714.42 112.822 713.834 112.237 713.182C111.586 712.596 111 712.01 110.35 711.359L110.349 711.358C110.127 711.136 109.92 710.921 109.718 710.711C109.327 710.306 108.955 709.92 108.526 709.534L106.703 707.709C106.483 707.49 106.271 707.27 106.062 707.053C105.65 706.626 105.247 706.209 104.815 705.82C104.593 705.598 104.386 705.383 104.184 705.173C103.794 704.768 103.421 704.382 102.992 703.995L102.991 703.995C102.341 703.343 101.755 702.757 101.169 702.106C100.519 701.52 99.9328 700.934 99.2822 700.283L99.2813 700.282C98.9557 699.956 98.6628 699.646 98.3698 699.337C98.0769 699.027 97.7839 698.718 97.4584 698.392C96.8074 697.806 96.2214 697.219 95.6355 696.568C94.9848 695.982 94.3991 695.396 93.7484 694.744L93.7476 694.744C93.0965 694.157 92.5106 693.506 91.9247 692.854C91.2737 692.268 90.6877 691.681 90.1018 691.03C89.4511 690.444 88.8654 689.857 88.2147 689.206L88.2138 689.205L86.391 687.381C85.7399 686.73 85.154 686.143 84.5681 685.492C83.9174 684.905 83.3317 684.319 82.681 683.668L82.6801 683.667L80.8573 681.843C80.2062 681.191 79.6203 680.605 79.0344 679.953C78.6247 679.618 78.279 679.261 77.9362 678.908C77.6798 678.643 77.425 678.38 77.1464 678.129C76.5605 677.543 75.9095 676.891 75.3235 676.24C74.6725 675.653 74.0866 675.067 73.5007 674.415C73.026 674.027 72.6371 673.609 72.2392 673.182C72.0368 672.965 71.8322 672.745 71.6127 672.526C70.9617 671.939 70.3758 671.353 69.7898 670.701C69.1391 670.115 68.5534 669.529 67.9028 668.878L67.9019 668.877L66.079 667.053C65.428 666.401 64.8421 665.815 64.2561 665.163C63.6051 664.577 63.0192 663.991 62.3682 663.339L60.5453 661.515C59.8943 660.863 59.3083 660.277 58.7224 659.625C58.0714 659.039 57.4855 658.452 56.8344 657.801L55.0116 655.977L55.0106 655.976C54.36 655.324 53.7744 654.738 53.1887 654.087C52.538 653.501 51.9523 652.915 51.3016 652.264L51.3007 652.263L49.4779 650.438L49.4769 650.438C48.8263 649.786 48.2406 649.2 47.655 648.549C47.0043 647.963 46.4186 647.377 45.7679 646.726L45.767 646.725C45.3305 646.331 44.9232 645.909 44.5256 645.496C44.3303 645.294 44.1372 645.093 43.9442 644.9L42.0562 643.011C41.8631 642.818 41.6701 642.617 41.4747 642.415C41.0771 642.002 40.6698 641.58 40.2333 641.186L36.5225 637.473C36.3294 637.279 36.1364 637.079 35.941 636.877C35.5434 636.464 35.1361 636.042 34.6996 635.648L34.6987 635.647C34.048 634.996 33.4624 634.41 32.8767 633.759C32.226 633.173 31.6403 632.587 30.9897 631.935L30.9888 631.935C30.7957 631.741 30.6027 631.541 30.4073 631.338C30.0097 630.926 29.6024 630.503 29.1659 630.11C15.885 617.47 7.8123 599.422 7.8123 577.465C7.8123 558.44 15.9501 539.089 34.1137 514.721C38.3453 509.053 39.8427 504.948 39.8427 503.189V213.707C39.8102 213.675 39.7776 213.626 39.7451 213.577C39.7125 213.528 39.68 213.479 39.6474 213.446C39.4279 213.227 39.2158 213.022 39.0061 212.819C38.5939 212.421 38.191 212.032 37.7594 211.557C37.1735 210.971 36.5876 210.384 36.0017 209.733C35.6436 209.407 35.3344 209.114 35.0251 208.82C34.7159 208.527 34.4067 208.234 34.0486 207.908C33.6625 207.479 33.2765 207.106 32.8718 206.716C32.6623 206.513 32.4478 206.306 32.2257 206.084C31.6399 205.433 31.0542 204.846 30.4033 204.195C30.1813 203.973 29.9663 203.765 29.7568 203.563C29.3521 203.172 28.966 202.799 28.58 202.37C28.3605 202.151 28.1484 201.946 27.9387 201.743C27.5265 201.345 27.1235 200.956 26.692 200.481C13.1507 186.668 0 167.903 0 143.536V138.91C0 121.839 6.18473 89.9785 48.5664 67.8911L164.254 10.8157C165.425 10.2293 166.662 9.70804 167.899 9.1868C182.157 3.45319 194.852 0.651546 206.765 0.651546C219.786 0.651546 232.09 4.10474 242.507 10.555C243.158 11.0111 243.874 11.4672 244.525 11.8581C265.553 3.97443 289.771 0 316.919 0C354.678 0 391.136 8.07917 425.314 24.042C443.218 32.3818 459.689 43.6536 474.792 57.3361C475.152 57.6308 475.463 57.9584 475.765 58.2777C476.065 58.5935 476.356 58.9011 476.68 59.1604C477.006 59.4536 477.299 59.7794 477.592 60.1051C477.885 60.4309 478.178 60.7567 478.503 61.0499C478.829 61.3431 479.122 61.6525 479.415 61.962C479.708 62.2715 480 62.581 480.326 62.8742C480.725 63.2011 481.064 63.5686 481.398 63.9313C481.663 64.2192 481.926 64.5042 482.214 64.7637C482.651 65.1133 483.058 65.5508 483.456 65.978C483.651 66.1877 483.844 66.3949 484.037 66.588C484.468 66.9335 484.871 67.3649 485.284 67.8063C485.493 68.0307 485.705 68.2578 485.925 68.4775C486.215 68.7358 486.505 69.042 486.804 69.3567C487.107 69.677 487.419 70.006 487.748 70.3018C488.184 70.6514 488.592 71.089 488.989 71.5162C489.185 71.7259 489.378 71.9331 489.571 72.1261C489.896 72.3868 490.205 72.7125 490.515 73.0383C490.824 73.3641 491.133 73.6899 491.458 73.9505C491.651 74.1436 491.844 74.3508 492.04 74.5605C492.437 74.9877 492.845 75.4252 493.281 75.7748C493.607 76.068 493.916 76.3938 494.225 76.7196C494.535 77.0453 494.844 77.3711 495.169 77.6643C495.362 77.8573 495.555 78.0574 495.75 78.2599C496.148 78.6726 496.556 79.0953 496.992 79.4886C497.223 79.7191 497.453 79.9698 497.687 80.2247C498.049 80.6183 498.42 81.0222 498.815 81.3781C499.252 81.7714 499.659 82.1941 500.057 82.6067C500.252 82.8092 500.445 83.0094 500.638 83.2024C500.917 83.4541 501.185 83.7298 501.451 84.0037C501.804 84.368 502.154 84.7292 502.526 85.0268C502.756 85.2573 502.987 85.5079 503.221 85.7629C503.583 86.1565 503.954 86.5604 504.349 86.9162C504.709 87.2048 505.03 87.5531 505.354 87.9062C505.616 88.1909 505.881 88.4787 506.172 88.7406C506.497 89.0338 506.806 89.3595 507.116 89.6853C507.425 90.0111 507.734 90.3369 508.06 90.6301C508.42 90.9186 508.74 91.2669 509.065 91.62C509.327 91.9047 509.592 92.1926 509.883 92.4544C510.254 92.7519 510.605 93.1131 510.958 93.4774C511.224 93.7514 511.491 94.027 511.77 94.2787C511.963 94.4718 512.156 94.679 512.352 94.8888C512.749 95.3159 513.157 95.7534 513.593 96.103C513.919 96.3962 514.212 96.722 514.505 97.0478C514.798 97.3736 515.091 97.6993 515.416 97.9925L515.612 98.188C523.489 87.6329 531.887 77.4037 541.848 68.0214C589.893 22.8693 647.769 0 713.783 0C773.743 0 822.179 14.6598 857.985 43.6536C862.608 47.4326 866.514 51.2767 870.16 55.1208C870.457 55.4927 870.818 55.8434 871.182 56.1971C871.456 56.463 871.731 56.7307 871.982 57.0103C872.175 57.2033 872.375 57.3963 872.578 57.5916C872.99 57.9897 873.412 58.3975 873.805 58.8346L875.628 60.6589C875.921 60.9847 876.247 61.2942 876.572 61.6037C876.898 61.9132 877.223 62.2226 877.516 62.5484C877.709 62.7415 877.909 62.9346 878.111 63.13C878.524 63.528 878.946 63.9357 879.339 64.3727C879.404 64.4379 879.485 64.5031 879.567 64.5682C879.648 64.6334 879.73 64.6985 879.795 64.7637L989.232 10.8157C990.403 10.2294 991.64 9.70831 992.877 9.18722L992.878 9.1868C1007.14 3.45319 1019.83 0.651546 1031.74 0.651546C1044.76 0.651546 1057.07 4.10474 1067.49 10.555C1068.14 11.0111 1068.85 11.4672 1069.5 11.8581C1090.53 3.97443 1114.75 0 1141.9 0C1179.59 0 1216.11 8.07917 1250.29 24.042C1275.94 36.0305 1298.73 53.6874 1318.65 76.3612C1319.91 75.4494 1321.08 74.5244 1322.24 73.603C1324.72 71.6274 1327.19 69.6684 1330.56 67.8911L1446.25 10.8157C1447.42 10.2293 1448.66 9.70804 1449.9 9.1868C1464.15 3.45319 1476.85 0.651546 1488.76 0.651546C1501.78 0.651546 1514.09 4.10474 1524.5 10.555C1525.16 11.0111 1525.81 11.4672 1526.52 11.8581C1547.55 3.97443 1571.77 0 1598.92 0C1636.61 0 1673.13 8.07917 1707.31 24.042C1714.99 27.6256 1722.29 31.9258 1729.45 36.4866C1742.08 19.2206 1762 7.81855 1787.19 7.81855H1973.13C1992.07 7.81855 2009.06 14.2037 2021.95 26.1922C2022.26 26.4194 2022.47 26.7127 2022.69 27.008C2022.84 27.2208 2023 27.4346 2023.19 27.6256C2023.26 27.6743 2023.34 27.7139 2023.43 27.7546C2023.57 27.8228 2023.72 27.8941 2023.84 28.0165C2024.07 28.2119 2024.25 28.4726 2024.43 28.7332C2024.61 28.9938 2024.78 29.2544 2025.01 29.4499C2025.11 29.5476 2025.22 29.5965 2025.34 29.6453C2025.45 29.6942 2025.57 29.7431 2025.66 29.8408C2025.89 30.0688 2026.09 30.3295 2026.28 30.5901C2026.48 30.8507 2026.67 31.1113 2026.9 31.3394C2026.97 31.3828 2027.03 31.419 2027.1 31.4552C2027.23 31.5276 2027.36 31.6 2027.49 31.7303C2027.79 31.9575 2028 32.2509 2028.22 32.5462C2028.38 32.7589 2028.53 32.9727 2028.72 33.1637C2028.8 33.2124 2028.88 33.252 2028.96 33.2927C2029.1 33.3609 2029.25 33.4322 2029.37 33.5546C2029.6 33.7827 2029.78 34.027 2029.96 34.2713C2030.14 34.5157 2030.32 34.76 2030.55 34.988C2030.67 35.1104 2030.82 35.1817 2030.96 35.2499C2031.04 35.2906 2031.12 35.3302 2031.2 35.3789C2031.4 35.5846 2031.58 35.8167 2031.76 36.0455C2031.97 36.3241 2032.18 36.5977 2032.43 36.8124C2032.56 36.9427 2032.69 37.0151 2032.82 37.0874C2032.89 37.1236 2032.95 37.1598 2033.02 37.2033C2033.31 37.4545 2033.51 37.7452 2033.72 38.0319C2033.89 38.2658 2034.05 38.4969 2034.26 38.7018C2034.29 38.7344 2034.32 38.7507 2034.35 38.767C2034.39 38.7833 2034.42 38.7996 2034.45 38.8321C2046.76 19.807 2068.5 7.81855 2095 7.81855H2206.65C2227.94 7.81855 2246.04 15.5068 2258.8 28.7332C2259.45 29.3196 2260.03 29.906 2260.62 30.5575C2260.94 30.8507 2261.25 31.1602 2261.56 31.4697C2261.87 31.7792 2262.18 32.0886 2262.51 32.3818C2262.83 32.7076 2263.12 33.0171 2263.42 33.3266C2263.71 33.6361 2264 33.9455 2264.33 34.2713C2264.98 34.8577 2265.57 35.4441 2266.15 36.0956C2266.8 36.6792 2267.38 37.2628 2268.03 37.9106L2268.04 37.92C2268.63 38.5715 2269.21 39.1579 2269.86 39.8095C2270.51 40.3959 2271.1 40.9822 2271.69 41.6338C2272.33 42.2174 2272.92 42.8009 2273.56 43.4487L2273.57 43.4581C2273.86 43.7434 2274.14 44.0441 2274.44 44.3528C2274.74 44.6785 2275.06 45.0131 2275.4 45.3476C2276.05 45.934 2276.63 46.5204 2277.22 47.1719C2277.87 47.7583 2278.46 48.3447 2279.11 48.9963L2280.93 50.8206C2281.58 51.4721 2282.23 52.1237 2282.75 52.7101L2282.75 52.7123C2283.41 53.3629 2283.99 53.9487 2284.64 54.5344C2284.93 54.8602 2285.24 55.1697 2285.55 55.4791C2285.86 55.7886 2286.17 56.0981 2286.46 56.4239C2287.11 57.0103 2287.7 57.5967 2288.29 58.2482C2288.62 58.5824 2288.95 58.8994 2289.28 59.2081C2289.59 59.5013 2289.89 59.7869 2290.17 60.0725C2290.47 60.3983 2290.78 60.7078 2291.09 61.0173C2291.4 61.3268 2291.7 61.6363 2292 61.962C2292.65 62.5484 2293.23 63.1348 2293.82 63.7864C2294.47 64.3727 2295.12 65.0243 2295.71 65.6758C2295.9 65.8688 2296.1 66.0618 2296.3 66.2571C2296.72 66.6552 2297.14 67.063 2297.53 67.5002C2298.22 68.068 2298.73 68.6358 2299.3 69.2628L2299.35 69.3245C2300.01 69.9109 2300.66 70.5624 2301.18 71.1488C2301.89 71.8004 2302.48 72.3868 2303.06 73.0383C2303.71 73.6219 2304.3 74.2055 2304.94 74.8532L2304.95 74.8626C2305.6 75.449 2306.19 76.1006 2306.71 76.687C2307.43 77.3376 2308.01 77.9233 2308.66 78.5738L2308.66 78.5765C2308.99 78.8696 2309.28 79.1791 2309.57 79.4886C2309.87 79.7981 2310.16 80.1076 2310.49 80.4008C2310.92 80.7942 2311.33 81.2168 2311.73 81.6295C2311.92 81.832 2312.12 82.0321 2312.31 82.2251L2316.02 85.9389C2316.67 86.5253 2317.26 87.1769 2317.84 87.8284C2318.49 88.4119 2319.07 88.9954 2319.72 89.6431L2319.73 89.6527C2320.02 89.938 2320.3 90.2387 2320.59 90.5474C2320.9 90.8731 2321.22 91.2077 2321.55 91.5422C2322.21 92.1286 2322.79 92.715 2323.38 93.3665C2324.02 93.9501 2324.61 94.5336 2325.26 95.1812L2325.26 95.1909C2325.46 95.3839 2325.65 95.584 2325.85 95.7865C2326.24 96.1992 2326.65 96.6218 2327.09 97.0152C2327.74 97.6667 2328.32 98.2531 2328.91 98.9047C2329.56 99.4881 2330.14 100.072 2330.79 100.719L2330.8 100.729C2330.99 100.922 2331.18 101.122 2331.38 101.325C2331.78 101.737 2332.18 102.16 2332.62 102.553C2332.95 102.879 2333.24 103.189 2333.53 103.498C2333.83 103.808 2334.12 104.117 2334.44 104.443C2335.09 105.026 2335.68 105.61 2336.32 106.258L2336.33 106.267C2336.52 106.46 2336.72 106.66 2336.91 106.863C2337.31 107.275 2337.72 107.698 2338.16 108.091C2338.48 108.417 2338.77 108.727 2339.07 109.036C2339.36 109.346 2339.65 109.655 2339.98 109.981C2340.63 110.565 2341.21 111.148 2341.86 111.796L2341.87 111.805C2342.06 111.998 2342.25 112.198 2342.45 112.401C2342.84 112.814 2343.25 113.236 2343.69 113.63C2344.01 113.955 2344.31 114.265 2344.6 114.574C2344.89 114.884 2345.19 115.193 2345.51 115.519C2346.16 116.105 2346.75 116.692 2347.33 117.343L2347.34 117.353C2347.99 118.001 2348.57 118.584 2349.22 119.168C2349.87 119.819 2350.46 120.406 2351.05 121.057C2351.48 121.451 2351.89 121.873 2352.29 122.286C2352.48 122.488 2352.68 122.689 2352.87 122.882C2353.2 123.216 2353.54 123.533 2353.86 123.841C2354.17 124.135 2354.47 124.42 2354.76 124.706C2355.41 125.357 2355.99 125.944 2356.58 126.595C2357.23 127.182 2357.88 127.833 2358.4 128.42C2358.62 128.639 2358.84 128.851 2359.06 129.06C2359.48 129.473 2359.9 129.877 2360.29 130.309C2360.48 130.502 2360.68 130.696 2360.89 130.891C2361.3 131.289 2361.72 131.697 2362.11 132.134C2362.76 132.72 2363.41 133.371 2363.94 133.958C2364.15 134.177 2364.37 134.389 2364.59 134.599C2365.02 135.012 2365.43 135.415 2365.82 135.847C2366.02 136.041 2366.22 136.234 2366.42 136.429ZM401.701 74.1279C374.394 61.376 345.656 55 315.488 55C272.317 55 241.109 67.4917 221.864 92.4751V76.8605C221.864 67.4917 219.133 61.1157 213.672 57.7326C208.211 54.3494 198.978 55.2602 185.975 60.4651L70.505 117.458C57.5017 124.225 51 132.292 51 141.661V146.346C51 153.632 57.6317 163.001 70.8951 174.452C84.1586 185.903 90.7903 198.134 90.7903 211.146V505.482C90.7903 519.535 85.4589 533.718 74.7962 548.032C64.1334 562.345 58.802 572.885 58.802 579.651V582.774C58.802 593.704 65.3037 599.17 78.3071 599.17H261.654C274.658 599.17 281.16 593.704 281.16 582.774V579.651C281.16 572.885 275.178 562.345 263.215 548.032C251.252 533.718 245.27 519.535 245.27 505.482V428.97C263.995 439.9 287.401 445.366 315.488 445.366C365.941 445.366 409.373 426.888 445.782 389.934C482.192 352.979 500.396 304.313 500.396 243.937C500.396 202.818 490.774 167.425 471.529 137.758C452.284 108.09 429.008 86.8799 401.701 74.1279ZM842.448 310.62C848.183 304.385 854.7 302.567 861.999 305.164C869.298 307.762 872.948 313.477 872.948 322.31C872.948 348.287 858.219 375.174 828.763 402.97C799.306 430.766 761.117 444.664 714.195 444.664C655.803 444.664 608.491 426.48 572.256 390.111C536.022 353.743 517.905 306.204 517.905 247.494C517.905 190.863 537.065 144.623 575.385 108.774C613.704 72.9246 659.192 55 711.849 55C759.814 55 796.96 65.6508 823.289 86.9525C849.617 108.254 862.781 132.154 862.781 158.651C862.781 177.874 853.918 193.201 836.192 204.631L694.644 296.592C714.977 322.569 741.045 335.558 772.848 335.558C802.565 335.558 825.765 327.245 842.448 310.62ZM1227.54 74.1279C1200.23 61.376 1171.49 55 1141.33 55C1098.16 55 1066.95 67.4917 1047.7 92.4751V76.8605C1047.7 67.4917 1044.97 61.1157 1039.51 57.7326C1034.05 54.3494 1024.82 55.2602 1011.81 60.4651L896.344 117.458C883.34 124.225 876.839 132.292 876.839 141.661V146.346C876.839 153.632 883.47 163.001 896.734 174.452C909.997 185.903 916.629 198.134 916.629 211.146V505.482C916.629 519.535 911.297 533.718 900.635 548.032C889.972 562.345 884.641 572.885 884.641 579.651V582.774C884.641 593.704 891.142 599.17 904.146 599.17H1087.49C1100.5 599.17 1107 593.704 1107 582.774V579.651C1107 572.885 1101.02 562.345 1089.05 548.032C1077.09 533.718 1071.11 519.535 1071.11 505.482V428.97C1089.83 439.9 1113.24 445.366 1141.33 445.366C1191.78 445.366 1235.21 426.888 1271.62 389.934C1308.03 352.979 1326.23 304.313 1326.23 243.937C1326.23 202.818 1316.61 167.425 1297.37 137.758C1278.12 108.09 1254.85 86.8799 1227.54 74.1279ZM1685.69 74.1279C1713 86.8799 1736.27 108.09 1755.52 137.758C1774.76 167.425 1784.39 202.818 1784.39 243.937C1784.39 304.313 1766.18 352.979 1729.77 389.934C1693.36 426.888 1649.93 445.366 1599.48 445.366C1571.39 445.366 1547.98 439.9 1529.26 428.97V505.482C1529.26 519.535 1535.24 533.718 1547.2 548.032C1559.17 562.345 1565.15 572.885 1565.15 579.651V582.774C1565.15 593.704 1558.65 599.17 1545.64 599.17H1362.3C1349.29 599.17 1342.79 593.704 1342.79 582.774V579.651C1342.79 572.885 1348.12 562.345 1358.79 548.032C1369.45 533.718 1374.78 519.535 1374.78 505.482V211.146C1374.78 198.134 1368.15 185.903 1354.88 174.452C1341.62 163.001 1334.99 153.632 1334.99 146.346V141.661C1334.99 132.292 1341.49 124.225 1354.49 117.458L1469.96 60.4651C1482.97 55.2602 1492.2 54.3494 1497.66 57.7326C1503.12 61.1157 1505.85 67.4917 1505.85 76.8605V92.4751C1525.1 67.4917 1556.31 55 1599.48 55C1629.65 55 1658.38 61.376 1685.69 74.1279ZM2094.71 60.8304H2206.46C2219.49 60.8304 2226 66.3034 2226 77.2493V80.3767C2226 89.2377 2219.75 101.226 2207.31 116.342C2194.74 131.458 2186.14 144.228 2181.45 154.653L2034.53 470.521C1992.85 560.174 1943.16 605 1885.33 605C1846.26 605 1814.41 595.487 1789.99 576.462C1765.5 557.437 1753.26 534.894 1753.26 508.832C1753.26 490.068 1758.86 475.082 1770.06 463.876C1781.26 452.669 1796.5 447.066 1815.78 447.066C1834.99 447.066 1850.03 452.93 1860.71 464.657C1871.33 476.385 1877.91 489.286 1880.25 503.359C1882.6 517.432 1885.72 530.333 1889.63 542.061C1893.54 553.789 1898.88 559.653 1905.65 559.653C1924.93 559.653 1947.53 527.792 1973.64 464.266L1812.65 154.653C1807.44 144.749 1798.59 132.109 1786.08 116.733C1773.58 101.356 1767.33 89.2377 1767.33 80.3767V77.2493C1767.33 66.3034 1773.84 60.8304 1786.86 60.8304H1972.86C1978.53 60.8304 1983.15 62.3941 1986.54 65.5215C1989.92 68.6489 1991.62 72.8188 1991.62 78.0312V81.1586C1991.62 86.8922 1989.27 93.5379 1984.58 101.096C1979.89 108.654 1976.77 115.56 1975.2 121.815C1973.64 128.07 1975.73 139.798 1981.46 156.998L2050.94 325.097L2113.46 171.854C2119.72 151.525 2119.98 137.061 2114.25 128.461C2108.51 119.86 2100.57 111.26 2090.41 102.66C2080.32 94.0591 2075.17 86.8922 2075.17 81.1586V78.0312C2075.17 66.564 2081.68 60.8304 2094.71 60.8304Z" fill="black"/>
</svg>
