<svg width="666" height="761" viewBox="0 0 666 761" fill="none" xmlns="http://www.w3.org/2000/svg">
<path d="M262.435 369.538C273.878 389.837 287.141 399.987 302.225 399.987C331.353 399.987 345.916 372.921 345.916 318.791C345.916 289.123 344.226 258.414 340.845 226.665C337.464 194.915 330.312 164.596 319.389 135.709C308.467 106.822 294.943 92.3788 278.819 92.3788C256.453 92.3788 245.27 109.555 245.27 143.907V289.123C245.27 322.434 250.992 349.239 262.435 369.538Z" fill="black"/>
<path fill-rule="evenodd" clip-rule="evenodd" d="M315.489 0C290.032 0 265.422 3.6339 243.156 12.0859C242.304 11.5041 241.429 10.9343 240.529 10.3772C224.87 0.676904 208.621 0.0417721 197.645 1.12473C186.47 2.22715 175.962 5.5392 167.023 9.11724L165.181 9.85443L47.4452 67.9662L46.9635 68.217C27.4564 78.3675 0 99.891 0 137.661V142.346C0 161.038 8.18097 175.592 14.3471 184.303C18.5379 190.223 23.4183 195.712 28.5478 200.765L39.7903 212.008V501.482C39.7903 501.901 39.7885 505.656 33.8972 513.564C27.6065 522.009 21.7629 530.812 17.2915 539.652C13.3321 547.479 7.802 560.365 7.802 575.651V578.774C7.802 594.649 12.9436 615.049 30.8624 630.111L136.933 736.182C137.006 736.268 137.079 736.355 137.152 736.441C137.203 736.501 137.254 736.561 137.305 736.621L137.37 736.697C139.575 739.273 142.063 741.757 144.862 744.111C159.057 756.042 175.233 759.389 187.37 760.039C189.104 760.132 190.756 760.17 192.307 760.17H375.654C377.206 760.17 378.857 760.132 380.591 760.039C392.728 759.389 408.905 756.042 423.099 744.111C441.018 729.049 446.16 708.649 446.16 692.774V689.651C446.16 672.939 439.418 659.234 435.028 651.5C429.949 642.549 423.364 633.721 416.347 625.325C411.365 619.365 410.418 616.153 410.27 615.369V605.637C416.608 606.13 423.02 606.366 429.488 606.366C485.958 606.366 536.194 587.789 578.481 552.077C584.522 546.975 590.4 541.524 596.112 535.727C643.461 487.669 665.396 425.343 665.396 353.937C665.396 304.606 653.748 259.21 628.315 220.003C627.701 219.056 627.082 218.114 626.459 217.178C617.11 203.137 606.747 190.322 595.33 178.912L481.33 64.912C464.351 47.9428 445.043 34.0813 423.28 23.9182C389.209 8.00787 353.105 0 315.489 0ZM315.488 51C345.656 51 374.394 57.376 401.701 70.1279C429.008 82.8799 452.284 104.09 471.529 133.758C490.774 163.425 500.396 198.818 500.396 239.937C500.396 300.313 482.192 348.979 445.782 385.934C409.373 422.888 365.941 441.366 315.488 441.366C287.401 441.366 263.995 435.9 245.27 424.97V501.482C245.27 515.535 251.252 529.718 263.215 544.032C275.178 558.345 281.16 568.885 281.16 575.651V578.774C281.16 589.704 274.658 595.17 261.654 595.17H78.3071C65.3037 595.17 58.802 589.704 58.802 578.774V575.651C58.802 568.885 64.1334 558.345 74.7962 544.032C85.4589 529.718 90.7903 515.535 90.7903 501.482V207.146C90.7903 194.134 84.1586 181.903 70.8951 170.452C57.6317 159.001 51 149.632 51 142.346V137.661C51 128.292 57.5017 120.225 70.505 113.458L185.975 56.4651C198.978 51.2602 208.211 50.3494 213.672 53.7326C219.133 57.1157 221.864 63.4917 221.864 72.8605V88.4751C241.109 63.4917 272.317 51 315.488 51Z" fill="black"/>
</svg>
