<svg width="512" height="512" viewBox="0 0 512 512" fill="none" xmlns="http://www.w3.org/2000/svg">
<path d="M438.19 252.79C438.19 227.683 421.181 205.693 396.813 199.313L449.92 42.88H186.787L240.053 199.873C216.432 206.746 200.183 228.309 200.117 252.87C200.117 271.397 209.354 287.832 223.457 297.955C217.845 305.933 211.367 313.299 204.222 320.012C191.105 332.518 175.683 342.428 158.887 349.3C144.024 339.298 137.652 321.61 143.411 305.88C203.809 287.073 190.479 198.141 127.308 197.875C96.756 197.928 71.9756 222.635 71.9756 253.163C71.9756 268.227 78.0674 282.025 88.0115 291.935C87.1051 293.6 86.2653 295.411 85.3588 297.209C77.1076 314.271 67.7233 333.491 64.1242 355.068C56.9794 398.288 68.7097 432.971 97.0359 452.604C112.299 463.366 130.627 469.186 149.383 469.119C181.801 469.119 214.793 452.817 246.651 436.994C269.419 425.819 292.88 414.098 315.927 408.424C324.472 406.346 333.363 405.108 342.734 403.696C361.756 400.992 381.404 398.155 399.04 387.886C419.448 376.232 433.684 356.12 437.843 333.011C440.896 315.39 437.843 297.635 429.938 282.025C435.284 273.488 438.203 263.578 438.203 252.816L438.19 252.79ZM414.102 252.79C414.102 269.932 400.133 283.863 383.004 283.863C353.558 283.797 340.654 246.69 363.755 228.362L363.822 228.243C364.875 227.483 365.995 226.711 367.021 226.005C367.021 226.005 367.234 226.005 367.234 225.885C367.714 225.605 368.194 225.259 368.687 224.979C368.834 224.979 368.901 224.913 369.021 224.913C369.514 224.633 370.14 224.433 370.767 224.154C371.393 223.874 372.006 223.674 372.513 223.394C372.633 223.394 372.713 223.328 372.846 223.328C373.339 223.181 373.899 222.915 374.379 222.848C374.446 222.848 374.739 222.702 374.872 222.702C375.499 222.555 375.979 222.422 376.592 222.342H376.659L378.538 221.929C378.658 221.929 378.871 221.929 379.018 221.783C379.498 221.783 379.991 221.636 380.551 221.636H381.097C381.724 221.636 382.337 221.57 383.11 221.57H384.71C385.203 221.57 385.616 221.57 386.096 221.636H386.309C387.283 221.783 388.322 221.916 389.295 222.209C403.732 225.259 414.089 238.019 414.089 252.79H414.102ZM221.231 67.587H415.489L370.913 198.967C369.034 199.327 367.234 199.939 365.355 200.565L318.433 104.974L271.352 199.953C269.552 199.38 267.526 198.98 265.527 198.634L221.231 67.587ZM309.542 242.041C307.249 230.653 301.424 220.251 292.866 212.419L318.42 160.888L344.24 213.525C336.522 221.157 330.977 230.946 328.764 242.041H309.542ZM247.678 222.542C248.224 222.396 248.798 222.276 249.424 222.209H249.757C250.251 222.063 250.73 222.063 251.21 221.929H251.703C252.183 221.929 252.61 221.783 253.09 221.783H257.875C258.368 221.783 258.782 221.929 259.142 221.929C259.408 221.929 259.475 221.929 259.768 222.076C260.248 222.222 260.608 222.222 261.088 222.289C261.234 222.289 261.368 222.289 261.634 222.409L263.301 222.768H263.447C263.927 222.915 264.5 223.048 264.98 223.315C265.047 223.315 265.193 223.381 265.46 223.381C265.82 223.528 266.3 223.661 266.726 223.861C266.78 223.861 266.926 224.007 267.06 224.007C267.539 224.287 268.033 224.433 268.513 224.633H268.659C269.206 224.846 269.766 225.126 270.259 225.539H270.405C270.885 225.752 271.365 226.085 271.858 226.378C271.978 226.378 271.978 226.524 272.125 226.524C272.618 226.738 272.965 227.15 273.445 227.364L273.591 227.51C275.044 228.616 276.431 229.854 277.844 231.12L277.897 231.186C283.455 237.007 286.521 244.705 286.441 252.67C285.122 292.774 225.55 292.774 224.23 252.67C224.164 238.458 233.881 226.032 247.691 222.569L247.678 222.542ZM126.109 221.636C143.264 221.636 157.207 235.648 157.207 252.79C157.207 269.932 143.251 283.863 126.109 283.863C108.98 283.863 95.0097 269.918 95.0097 252.79C95.0097 235.661 108.98 221.636 126.109 221.636ZM413.396 328.696C410.557 344.639 400.706 358.517 386.616 366.575C373.139 374.34 356.544 376.844 339.201 379.255C329.404 380.52 319.62 382.239 310.035 384.463C284.349 390.79 259.635 403.056 235.668 414.924C205.062 430.121 176.176 444.399 149.383 444.399C135.639 444.466 122.243 440.244 111.059 432.199C83.9059 413.459 85.2389 378.296 88.4914 359.01C91.4107 340.963 99.6752 324.114 107.58 307.958C108.153 306.985 108.486 306.08 108.98 305.121C111.686 306.08 114.525 306.839 117.511 307.345C112.779 333.491 126.109 360.555 152.075 373.874L156.727 376.285L161.793 374.487C183.387 366.775 203.449 354.362 221.085 337.726C230.882 328.629 239.48 318.373 246.771 307.199C249.637 307.678 252.477 307.825 255.316 307.825C280.443 307.758 302.384 290.829 308.782 266.482H329.537C335.842 290.829 357.85 307.825 383.004 307.825C393.281 307.825 402.785 304.988 410.903 300.193C414.102 309.423 415.129 319.053 413.396 328.696Z" fill="black"/>
</svg>
