<svg width="512" height="512" viewBox="0 0 512 512" fill="none" xmlns="http://www.w3.org/2000/svg">
<path d="M240.072 12.9309C239.027 13.026 235.697 13.3588 232.701 13.5965C163.617 19.8242 98.9066 57.0951 57.9215 114.38C35.0993 146.232 20.5026 182.362 14.9872 220.631C13.0378 233.99 12.8 237.936 12.8 256.047C12.8 274.161 13.0378 278.106 14.9872 291.464C28.2051 382.789 93.2012 459.517 181.352 487.945C197.138 493.031 213.779 496.502 232.701 498.594C240.072 499.402 271.928 499.402 279.299 498.594C311.962 494.981 339.635 486.9 366.926 472.97C371.111 470.83 371.917 470.261 371.348 469.785C370.967 469.499 353.138 445.588 331.741 416.684L292.849 364.152L244.114 292.036C217.297 252.388 195.236 219.966 195.046 219.966C194.855 219.917 194.665 251.96 194.57 291.083C194.427 359.589 194.38 362.347 193.524 363.962C192.288 366.292 191.337 367.242 189.34 368.288C187.819 369.05 186.487 369.192 179.308 369.192H171.082L168.895 367.814C167.469 366.91 166.423 365.721 165.709 364.343L164.711 362.203L164.806 266.886L164.949 171.523L166.423 169.669C167.183 168.67 168.8 167.387 169.941 166.769C171.89 165.818 172.651 165.723 180.877 165.723C190.576 165.723 192.193 166.103 194.713 168.86C195.426 169.621 221.814 209.364 253.386 257.237C284.955 305.108 328.127 370.474 349.334 402.564L387.847 460.895L389.797 459.612C407.056 448.392 425.314 432.419 439.766 415.78C470.529 380.458 490.356 337.388 497.013 291.464C498.963 278.106 499.2 274.161 499.2 256.047C499.2 237.936 498.963 233.99 497.013 220.631C483.795 129.308 418.798 52.5789 330.648 24.1502C315.1 19.1111 298.554 15.6407 280.012 13.549C275.446 13.0736 244.018 12.5506 240.072 12.9309ZM339.634 160.018C341.917 161.159 343.771 163.346 344.436 165.628C344.817 166.864 344.912 193.296 344.817 252.862L344.675 338.338L329.602 315.234L314.482 292.131V229.996C314.482 189.825 314.672 167.244 314.958 166.151C315.718 163.488 317.382 161.397 319.664 160.161C321.613 159.162 322.327 159.067 329.793 159.067C336.83 159.067 338.066 159.162 339.634 160.018Z" fill="black"/>
</svg>
