<svg aria-hidden="true" style="position:absolute;width:0;height:0" width="24" height="24" xmlns="http://www.w3.org/2000/svg" overflow="hidden"><defs><symbol id="jest" viewBox="0 0 24 24"><path d="M20.54 11.85a2.595 2.595 0 0 0-1.94-2.507l2.49-7.333H8.756l2.496 7.359a2.595 2.595 0 0 0-1.872 2.484c0 .869.433 1.64 1.095 2.114-.264.374-.567.719-.902 1.034a6.825 6.825 0 0 1-2.125 1.373c-.697-.47-.996-1.298-.726-2.036 2.832-.881 2.207-5.05-.754-5.063a2.595 2.595 0 0 0-2.594 2.592c0 .706.285 1.353.752 1.817-.043.079-.082.163-.125.248-.387.8-.827 1.7-.995 2.712-.335 2.026.215 3.652 1.543 4.572a4.238 4.238 0 0 0 2.453.774c1.52 0 3.066-.764 4.56-1.506 1.067-.524 2.167-1.073 3.247-1.34.4-.096.817-.155 1.257-.22.891-.127 1.812-.26 2.639-.742a3.725 3.725 0 0 0 1.819-2.572c.143-.826 0-1.658-.37-2.39.25-.4.387-.865.387-1.37Zm-1.129 0a1.46 1.46 0 0 1-1.458 1.456c-1.38-.003-1.985-1.742-.902-2.601l.003-.006.15-.105s.01 0 .01-.006c.023-.013.045-.029.068-.042.007 0 .01-.003.016-.003.023-.013.052-.023.082-.036.029-.013.058-.022.082-.035.005 0 .009-.003.015-.003.023-.007.05-.02.072-.023.003 0 .017-.007.023-.007.03-.007.052-.013.08-.017h.004l.088-.02c.006 0 .016 0 .022-.006.023 0 .046-.007.072-.007h.026c.03 0 .058-.003.094-.003h.075c.023 0 .043 0 .065.003h.01c.046.007.095.013.14.027a1.466 1.466 0 0 1 1.162 1.434h.001Zm-9.04-8.682h9.105l-2.09 6.159c-.088.016-.172.045-.26.075l-2.2-4.481-2.206 4.452a2.105 2.105 0 0 0-.274-.062L10.37 3.168Zm4.139 8.178a2.57 2.57 0 0 0-.782-1.389l1.198-2.415 1.21 2.467a2.59 2.59 0 0 0-.725 1.337h-.901Zm-2.9-.914a.523.523 0 0 1 .082-.016h.015c.023-.007.046-.007.068-.013h.024c.022 0 .042-.007.065-.007h.224c.023 0 .042.007.06.007.012 0 .015 0 .029.007.022.007.039.007.062.01.006 0 .013 0 .025.005l.078.017h.007c.023.007.05.013.072.026.003 0 .01.003.022.003.017.007.04.013.06.022.002 0 .01.007.015.007.023.014.046.02.068.03h.007c.026.01.052.023.075.042h.007c.023.01.045.026.068.04.006 0 .006.006.013.006.023.01.04.03.062.04l.007.007c.068.051.133.11.199.169l.002.003c.26.273.405.634.4 1.007-.06 1.88-2.853 1.88-2.915 0a1.45 1.45 0 0 1 1.1-1.411l-.001-.001Zm-5.699-.043a1.459 1.459 0 1 1-1.458 1.46c0-.802.655-1.46 1.458-1.46Zm13.467 5.019a2.568 2.568 0 0 1-1.255 1.775c-.632.364-1.41.482-2.223.595-.46.059-.918.14-1.367.244-1.204.296-2.363.871-3.486 1.428-1.435.712-2.789 1.381-4.045 1.381a3.046 3.046 0 0 1-1.796-.572c-1.273-.878-1.21-2.526-1.058-3.43.137-.846.524-1.636.895-2.394.027-.045.042-.088.065-.133.127.046.26.081.4.105-.222 1.225.403 2.494 1.62 3.118l.219.113.237-.084a7.947 7.947 0 0 0 2.78-1.723c.459-.426.862-.907 1.203-1.431a2.597 2.597 0 0 0 2.907-1.909h.973a2.589 2.589 0 0 0 3.814 1.58c.15.433.198.885.117 1.337Z" fill="currentcolor"/></symbol><symbol id="prettier" viewBox="0 0 24 24"><path d="M9.243 21.144a.455.455 0 0 1-.457.456H4.208c-.61 0-.61-.916 0-.916h4.578c.254 0 .457.207.457.46Zm-.457-2.288H7.87c-.61 0-.61.916 0 .916h.917c.61 0 .61-.916 0-.916Zm-4.578.916h1.83c.611 0 .611-.916 0-.916h-1.83c-.61 0-.61.916 0 .916Zm4.578-2.744H4.208c-.61 0-.61.916 0 .916h4.578c.61 0 .61-.916 0-.916Zm6.41-1.828H6.954c-.61 0-.61.915 0 .915h8.24c.61 0 .61-.915 0-.915Zm-10.988.915h.917c.61 0 .61-.915 0-.915h-.917c-.61 0-.61.915 0 .915Zm13.735-2.743h-2.748c-.61 0-.61.912 0 .912h2.748c.61 0 .61-.912 0-.912Zm-8.24.912h3.662c.61 0 .61-.912 0-.912H9.703c-.61 0-.61.912 0 .912Zm-5.495 0h3.661c.61 0 .61-.912 0-.912H4.208c-.61 0-.61.912 0 .912Zm14.649-2.74h-7.323c-.611 0-.611.913 0 .913h7.323c.61 0 .61-.913 0-.913ZM10.16 12a.457.457 0 0 0-.457-.456H6.956c-.61 0-.61.913 0 .913h2.747c.25 0 .457-.204.457-.457Zm-5.952.456h.917c.61 0 .61-.913 0-.913h-.917c-.61 0-.61.913 0 .913Zm15.566-2.74h-4.579c-.61 0-.61.912 0 .912h4.579c.61 0 .61-.912 0-.912Zm-15.566.912h4.578c.61 0 .61-.912 0-.912H4.208c-.61 0-.61.912 0 .912Zm10.53-2.284c0 .25.204.456.457.456h4.579c.61 0 .61-.916 0-.916h-4.579a.458.458 0 0 0-.457.46Zm-6.869-.46c-.61 0-.61.916 0 .916h.917c.61 0 .61-.915 0-.915H7.87ZM4.208 8.8h1.83c.611 0 .611-.915 0-.915h-1.83c-.61 0-.61.915 0 .915Zm13.275-2.285c0 .25.207.456.46.456h.914c.61 0 .61-.915 0-.915h-.914a.458.458 0 0 0-.456.46h-.004Zm-.914 0a.46.46 0 0 0-.456-.46h-3.665c-.61 0-.61.916 0 .916h3.662a.46.46 0 0 0 .46-.456Zm-12.361.457h6.41c.61 0 .61-.916 0-.916h-6.41c-.61 0-.61.916 0 .916Zm4.121-2.288c0 .253.204.46.457.46h9.157c.61 0 .61-.916 0-.916H8.786a.457.457 0 0 0-.457.456Zm-4.121.46h2.748c.61 0 .61-.916 0-.916H4.208c-.61 0-.61.916 0 .916Zm0-1.828h10.987c.61 0 .61-.916 0-.916H4.208c-.61 0-.61.916 0 .916Z" fill="currentcolor"/></symbol><symbol id="typescript" viewBox="0 0 24 24"><path fill-rule="evenodd" clip-rule="evenodd" d="M4.65 1.5h14.7a3.15 3.15 0 0 1 3.15 3.15v14.7a3.15 3.15 0 0 1-3.15 3.15H4.65a3.15 3.15 0 0 1-3.15-3.15V4.65A3.15 3.15 0 0 1 4.65 1.5Zm9.032 11.648h-2.625v7.506H8.965v-7.506H6.34v-1.681h7.342v1.681Zm2.01 7.482a4.4 4.4 0 0 1-1.19-.386v-1.969c.291.244.701.478 1.152.634.41.155.862.233 1.313.233.287 0 .505-.024.697-.07.201-.049.361-.114.492-.196a.763.763 0 0 0 .386-.665.81.81 0 0 0-.156-.492 1.503 1.503 0 0 0-.41-.39 3.501 3.501 0 0 0-.615-.344l-.098-.044c-.215-.097-.436-.197-.682-.296-.697-.328-1.246-.657-1.6-1.108-.356-.41-.532-.943-.532-1.558 0-.493.094-.886.287-1.23.205-.37.447-.64.779-.862.328-.226.697-.39 1.148-.492a6.185 6.185 0 0 1 1.395-.156c.492 0 .902.028 1.271.086.37.057.714.148 1.026.267v1.927a2.71 2.71 0 0 0-.492-.283 4.58 4.58 0 0 0-1.149-.32 3.78 3.78 0 0 0-.533-.038c-.25 0-.463.02-.656.065-.197.046-.361.107-.492.189a.961.961 0 0 0-.308.291.688.688 0 0 0-.11.382.72.72 0 0 0 .122.41c.082.119.197.234.349.344.135.107.32.214.533.32.094.04.184.081.274.122.148.067.297.134.464.202.37.156.698.328.985.492.287.165.529.357.738.575.222.205.382.45.492.738.111.287.168.611.168.984a3.1 3.1 0 0 1-.29 1.313c-.165.369-.448.644-.78.861a3.538 3.538 0 0 1-1.149.451c-.45.095-.902.14-1.394.14a7.76 7.76 0 0 1-1.436-.127Z" fill="currentcolor"/></symbol><symbol id="nodejs" viewBox="0 0 24 24"><path d="M12 0a1.91 1.91 0 0 0-.92.236L2.3 5.317a1.866 1.866 0 0 0-.92 1.607v10.14a1.87 1.87 0 0 0 .92 1.606l2.36 1.323c.608.37 1.307.562 2.018.556a2.44 2.44 0 0 0 2.508-1.681c.112-.346.147-.712.1-1.072V7.787a.26.26 0 0 0-.26-.26H7.87a.26.26 0 0 0-.271.26v10.009c0 .78-.803 1.548-2.089.898L3.15 17.31a.308.308 0 0 1-.13-.248V6.924a.284.284 0 0 1 .13-.248l8.78-5.069a.26.26 0 0 1 .259 0l8.72 5.07a.283.283 0 0 1 .13.247v10.14a.309.309 0 0 1-.13.247l-8.78 5.07a.284.284 0 0 1-.27 0L9.64 21.033a.306.306 0 0 0-.248 0 4.974 4.974 0 0 1-1.321.603c-.142 0-.366.13.082.378l2.927 1.737a1.827 1.827 0 0 0 1.84 0l8.78-5.07a1.866 1.866 0 0 0 .92-1.618V6.924a1.87 1.87 0 0 0-.92-1.607L12.92.237A1.874 1.874 0 0 0 12 0Zm2.36 7.267c-2.502 0-4 1.052-4 2.824 0 1.773 1.487 2.458 3.894 2.695 2.867.283 3.091.709 3.091 1.276 0 .98-.79 1.394-2.631 1.394-2.36 0-2.832-.579-3.009-1.737a.271.271 0 0 0-.26-.213h-1.18a.246.246 0 0 0-.232.162.247.247 0 0 0-.015.098c0 1.466.802 3.238 4.649 3.238 2.773 0 4.366-1.099 4.366-3.013 0-1.915-1.275-2.364-3.977-2.765-2.702-.402-2.997-.544-2.997-1.182 0-.638.236-1.182 2.254-1.182 1.77 0 2.466.39 2.737 1.607a.248.248 0 0 0 .248.201h1.18a.224.224 0 0 0 .177-.082.19.19 0 0 0 .06-.19c-.154-2.162-1.547-3.13-4.355-3.13Z" fill="currentcolor"/></symbol><symbol id="peppy" viewBox="0 0 24 24"><path d="M10.169 11.718c.298.528.643.792 1.037.792.759 0 1.139-.704 1.139-2.111 0-.772-.045-1.57-.133-2.396a9.483 9.483 0 0 0-.559-2.365c-.285-.751-.637-1.127-1.057-1.127-.583 0-.875.447-.875 1.34v3.776c0 .866.15 1.563.448 2.091Z" fill="currentcolor"/><path fill-rule="evenodd" clip-rule="evenodd" d="M11.551 2.11c-.663 0-1.305.094-1.885.314a1.778 1.778 0 0 0-1.186-.285 2.957 2.957 0 0 0-.798.207l-.048.02-3.07 1.51-.012.007c-.508.264-1.224.824-1.224 1.806v.122c0 .486.213.864.374 1.09.11.155.237.297.37.429l.293.292v7.527c0 .01 0 .109-.153.314-.164.22-.317.449-.433.679a2.089 2.089 0 0 0-.248.936v.08c0 .413.135.944.602 1.336l2.764 2.758.006.006a.158.158 0 0 0 .004.005l.002.002c.057.067.122.132.195.193.37.31.792.397 1.108.414.045.003.088.003.129.003h4.779c.04 0 .083 0 .128-.003a1.854 1.854 0 0 0 1.108-.414c.467-.392.601-.922.601-1.335v-.081c0-.435-.175-.791-.29-.992a4.73 4.73 0 0 0-.487-.68c-.13-.156-.154-.24-.158-.26v-.253c.165.013.332.02.5.02a5.884 5.884 0 0 0 3.884-1.412 6.81 6.81 0 0 0 .46-.426c1.234-1.25 1.806-2.87 1.806-4.727 0-1.282-.304-2.463-.967-3.482a6.48 6.48 0 0 0-.86-1.068l-2.97-2.965a5.314 5.314 0 0 0-1.514-1.066 6.59 6.59 0 0 0-2.81-.622Zm0 1.325a5.26 5.26 0 0 1 2.248.498c.711.331 1.318.883 1.82 1.654.501.772.752 1.692.752 2.761 0 1.57-.474 2.836-1.423 3.796-.95.961-2.082 1.442-3.397 1.442-.732 0-1.342-.142-1.83-.427v1.99c0 .365.156.734.468 1.106.312.373.468.647.468.823v.08c0 .285-.17.427-.509.427H5.37c-.339 0-.508-.142-.508-.426v-.081c0-.176.139-.45.417-.823.278-.372.417-.74.417-1.106V7.496c0-.339-.173-.657-.519-.955-.346-.297-.519-.54-.519-.73v-.122c0-.244.17-.454.509-.63l3.01-1.481c.339-.136.58-.16.722-.071.142.088.213.253.213.497v.406c.502-.65 1.315-.975 2.44-.975Z" fill="currentcolor"/></symbol><symbol id="react" viewBox="0 0 24 24"><path d="M10.731 16.655c.412.019.834.032 1.26.032.432 0 .858-.009 1.276-.032-.418.54-.83 1.018-1.267 1.473l.006-.006a19.09 19.09 0 0 1-1.244-1.426l-.031-.04Zm-4.274-.6a20.75 20.75 0 0 0 2.814.49l.099.008c.619.85 1.244 1.598 1.915 2.301l-.008-.009a6.76 6.76 0 0 1-3.81 2.145l-.042.006h-.009c-.186 0-.362-.045-.515-.127l.006.003c-.624-.356-.895-1.718-.684-3.47.05-.431.133-.885.234-1.348v.001Zm11.088-.01c.088.356.171.809.23 1.27l.008.064c.215 1.75-.05 3.112-.67 3.476a.99.99 0 0 1-.478.121c-.017 0-.035 0-.052-.002h.003a6.807 6.807 0 0 1-3.847-2.13l-.006-.006c.66-.693 1.28-1.439 1.85-2.224l.043-.063c1.107-.115 2.1-.294 3.066-.538l-.147.032Zm-10.21-2.799c.187.368.383.734.6 1.101.215.366.435.723.66 1.072a20.554 20.554 0 0 1-1.88-.362c.168-.59.38-1.202.619-1.812v.002Zm9.32-.018c.248.616.46 1.23.634 1.825-.6.147-1.234.272-1.89.365a24.076 24.076 0 0 0 1.258-2.191h-.002ZM5.71 9.216a21.507 21.507 0 0 0 1.087 2.93l-.056-.137c-.35.754-.695 1.675-.979 2.624l-.039.154c-.53-.163-.955-.323-1.37-.502l.086.033C2.816 13.628 1.766 12.72 1.766 12s1.05-1.633 2.673-2.32c.394-.169.826-.321 1.271-.463Zm12.555-.004c.453.14.885.297 1.288.467 1.623.694 2.673 1.6 2.673 2.32-.004.72-1.054 1.63-2.677 2.32-.394.169-.825.32-1.27.462a22.077 22.077 0 0 0-1.088-2.934l.057.141a20.16 20.16 0 0 0 .977-2.624l.04-.154v.002Zm-2.871-.632c.652.097 1.28.215 1.88.363-.169.592-.38 1.202-.619 1.812a24.185 24.185 0 0 0-1.26-2.174l-.001-.001Zm-6.804 0c-.225.353-.45.715-.66 1.087-.211.366-.408.733-.596 1.1a19.585 19.585 0 0 1-.633-1.824c.6-.14 1.232-.266 1.888-.362V8.58Zm3.406-.239c.694 0 1.385.032 2.064.087.38.546.75 1.127 1.109 1.743.348.6.666 1.209.954 1.825a25.392 25.392 0 0 1-.95 1.827 23.56 23.56 0 0 1-1.106 1.753 23.975 23.975 0 0 1-4.136.005 25.135 25.135 0 0 1-1.108-1.743c-.348-.6-.667-1.208-.954-1.824.284-.616.605-1.231.95-1.832.356-.619.724-1.205 1.106-1.75.682-.06 1.374-.092 2.071-.092v.001Zm-.014-2.46c.435.45.852.927 1.244 1.425l.03.04a27.76 27.76 0 0 0-1.26-.031c-.432 0-.858.009-1.276.031.417-.54.83-1.018 1.267-1.473l-.006.006.001.002ZM7.406 3.02a6.818 6.818 0 0 1 3.847 2.131l.005.006c-.659.693-1.28 1.44-1.85 2.226l-.043.063a21.345 21.345 0 0 0-3.064.536l.147-.032a13.905 13.905 0 0 1-.238-1.33c-.215-1.75.05-3.112.669-3.474a1.34 1.34 0 0 1 .526-.124h.002v-.001Zm9.158-.018v.006h.033c.179 0 .348.043.496.121l-.006-.003c.624.358.895 1.72.684 3.472-.05.431-.133.886-.234 1.35a20.35 20.35 0 0 0-2.815-.493l-.096-.008a22.444 22.444 0 0 0-1.916-2.302l.008.009a6.777 6.777 0 0 1 3.806-2.145l.042-.006-.002-.001Zm.004-1.022a7.682 7.682 0 0 0-4.575 2.451l-.006.007A7.667 7.667 0 0 0 7.45 2.005L7.407 2h-.034a2.05 2.05 0 0 0-1.013.266l.01-.005c-1.288.743-1.577 3.06-.912 5.966C2.605 9.108.75 10.517.75 12c0 1.49 1.865 2.902 4.726 3.777-.66 2.917-.365 5.237.927 5.98.283.162.624.258.986.258l.049-.001h-.002a7.68 7.68 0 0 0 4.575-2.453l.006-.007a7.664 7.664 0 0 0 4.538 2.435l.042.005h.039c.366 0 .71-.096 1.008-.263l-.01.005c1.287-.742 1.576-3.058.911-5.965 2.843-.874 4.698-2.286 4.698-3.772 0-1.49-1.865-2.903-4.726-3.78.66-2.914.365-5.236-.927-5.979a2.006 2.006 0 0 0-.995-.261h-.03.002l.001.001Zm-2.482 10.02a2.096 2.096 0 1 1-4.19 0 2.096 2.096 0 0 1 4.19 0Z" fill="currentcolor"/></symbol><symbol id="nextjs" viewBox="0 0 24 24"><g clip-path="url(#clip0_190_1065)"><path d="M11.253.606c-.049.005-.205.02-.345.031C7.67.93 4.636 2.677 2.715 5.362a11.283 11.283 0 0 0-2.013 4.98c-.09.626-.102.811-.102 1.66 0 .85.011 1.034.102 1.66.62 4.281 3.667 7.878 7.799 9.21.74.239 1.52.401 2.407.5.345.038 1.839.038 2.184 0 1.531-.17 2.828-.549 4.108-1.201.196-.1.234-.127.207-.15-.018-.013-.854-1.134-1.857-2.489l-1.823-2.462-2.284-3.38a325.35 325.35 0 0 0-2.3-3.38c-.01-.001-.018 1.5-.023 3.335-.006 3.21-.008 3.34-.049 3.416a.405.405 0 0 1-.196.203c-.071.035-.133.042-.47.042h-.386l-.102-.065a.417.417 0 0 1-.15-.163l-.046-.1.004-4.468.007-4.47.069-.087a.611.611 0 0 1 .165-.136c.091-.044.127-.049.513-.049.454 0 .53.018.648.147.034.036 1.27 1.899 2.75 4.143 1.48 2.244 3.504 5.308 4.498 6.812l1.805 2.734.092-.06a11.7 11.7 0 0 0 2.342-2.054 11.348 11.348 0 0 0 2.683-5.828c.092-.626.103-.81.103-1.66 0-.849-.011-1.034-.102-1.66-.62-4.28-3.667-7.877-7.799-9.21a11.97 11.97 0 0 0-2.373-.497c-.214-.022-1.688-.047-1.873-.029Zm4.667 6.895a.45.45 0 0 1 .225.263c.018.058.023 1.297.018 4.089l-.006 4.007-.707-1.083-.709-1.083V10.78c0-1.883.01-2.941.023-2.993a.454.454 0 0 1 .22-.28c.092-.047.125-.052.475-.052.33 0 .388.005.461.045Z" fill="currentcolor"/></g><defs><clipPath id="clip0_190_1065"><path fill="currentcolor" d="M0 0h24v24H0z"/></clipPath></defs></symbol><symbol id="tailwindcss" viewBox="0 0 24 24"><path d="M6 9.581c.8-3.2 2.8-4.8 6-4.8 4.8 0 5.4 3.6 7.8 4.2 1.6.4 3-.2 4.2-1.8-.8 3.2-2.8 4.8-6 4.8-4.8 0-5.4-3.6-7.8-4.2-1.6-.4-3 .2-4.2 1.8Zm-6 7.2c.8-3.2 2.8-4.8 6-4.8 4.8 0 5.4 3.6 7.8 4.2 1.6.4 3-.2 4.2-1.8-.8 3.2-2.8 4.8-6 4.8-4.8 0-5.4-3.6-7.8-4.2-1.6-.4-3 .2-4.2 1.8Z" fill="currentcolor"/></symbol><symbol id="github" viewBox="0 0 24 24"><g clip-path="url(#clip0_191_1165)"><path fill-rule="evenodd" clip-rule="evenodd" d="M11.999.4C5.594.4.4 5.594.4 12c0 5.125 3.323 9.473 7.933 11.008.58.106.792-.252.792-.56 0-.276-.01-1.005-.016-1.973-3.226.701-3.907-1.555-3.907-1.555-.528-1.34-1.288-1.697-1.288-1.697-1.054-.72.08-.705.08-.705 1.164.082 1.776 1.196 1.776 1.196 1.035 1.772 2.715 1.26 3.376.963.106-.749.405-1.26.737-1.55-2.576-.293-5.284-1.288-5.284-5.733 0-1.267.452-2.302 1.194-3.113-.12-.293-.518-1.473.114-3.07 0 0 .973-.312 3.19 1.189A11.14 11.14 0 0 1 12 6.01c.986.004 1.978.133 2.904.39 2.215-1.5 3.187-1.189 3.187-1.189.633 1.597.235 2.777.116 3.07.744.811 1.192 1.846 1.192 3.113 0 4.456-2.712 5.437-5.296 5.724.416.358.787 1.066.787 2.148 0 1.55-.014 2.802-.014 3.182 0 .31.21.671.798.558C20.279 21.47 23.6 17.124 23.6 12 23.6 5.594 18.406.4 11.999.4Z" fill="currentcolor"/></g><defs><clipPath id="clip0_191_1165"><path fill="currentcolor" d="M0 0h24v24H0z"/></clipPath></defs></symbol><symbol id="eslint" viewBox="0 0 24 24"><g clip-path="url(#clip0_196_6)"><path d="M7.257 9.132 11.816 6.5a.369.369 0 0 1 .368 0l4.559 2.632a.37.37 0 0 1 .184.32v5.263a.37.37 0 0 1-.184.319l-4.559 2.632a.369.369 0 0 1-.368 0l-4.559-2.632a.37.37 0 0 1-.184-.32V9.452a.37.37 0 0 1 .184-.32Zm16.595 2.398-5.446-9.475c-.198-.343-.564-.596-.96-.596H6.555c-.396 0-.762.253-.96.596L.149 11.509a1.127 1.127 0 0 0 0 1.117l5.447 9.398c.197.342.563.517.959.517h10.893c.395 0 .76-.17.959-.512l5.446-9.413a1.07 1.07 0 0 0 0-1.086m-4.51 4.556a.4.4 0 0 1-.204.338L12.2 20.426a.395.395 0 0 1-.392 0l-6.943-4.002a.4.4 0 0 1-.205-.338V8.08c0-.14.083-.269.204-.338L11.8 3.74c.12-.07.272-.07.392 0l6.943 4.003a.4.4 0 0 1 .206.338l.002 8.005Z" fill="currentcolor"/></g><defs><clipPath id="clip0_196_6"><path fill="currentcolor" d="M0 0h24v24H0z"/></clipPath></defs></symbol></defs></svg>
