<svg aria-hidden="true" style="position:absolute;width:0;height:0" width="24" height="24" xmlns="http://www.w3.org/2000/svg" overflow="hidden"><defs><symbol id="check" viewBox="0 0 24 24"><path d="M20 6 9 17l-5-5" stroke="currentcolor" stroke-width="2" stroke-linecap="round" stroke-linejoin="round"/></symbol><symbol id="chevron-right" viewBox="0 0 24 24"><path d="m9 18 6-6-6-6" stroke="currentcolor" stroke-width="2" stroke-linecap="round" stroke-linejoin="round"/></symbol><symbol id="circle" viewBox="0 0 24 24"><path d="M12 22c5.523 0 10-4.477 10-10S17.523 2 12 2 2 6.477 2 12s4.477 10 10 10Z" stroke="currentcolor" stroke-width="2" stroke-linecap="round" stroke-linejoin="round"/></symbol><symbol id="gem" viewBox="0 0 24 24"><path fill-rule="evenodd" clip-rule="evenodd" d="M6 2h12a1 1 0 0 1 .832.445l4 6a1 1 0 0 1-.04 1.165L12.8 22.6a1.001 1.001 0 0 1-1.6 0L1.207 9.61a1 1 0 0 1-.04-1.165l4-6A1 1 0 0 1 6.001 2Zm5.618 2h.764l2 4H9.618l2-4ZM7.382 8l2-4H6.535L3.868 8h3.514ZM4.03 10h3.23l2.154 7-5.384-7Zm5.323 0h5.292L12 18.6 9.354 10Zm7.385 0-2.154 7 5.384-7h-3.23Zm3.392-2-2.666-4h-2.847l2 4h3.514Z" fill="currentcolor"/></symbol><symbol id="copy" viewBox="0 0 24 24"><path d="M3 4c0-.548.452-1 1-1h10c.548 0 1 .452 1 1a1 1 0 1 0 2 0c0-1.652-1.348-3-3-3H4C2.348 1 1 2.348 1 4v10c0 1.652 1.348 3 3 3a1 1 0 1 0 0-2c-.548 0-1-.452-1-1V4Z" fill="currentcolor"/><path fill-rule="evenodd" clip-rule="evenodd" d="M10 7a3 3 0 0 0-3 3v10a3 3 0 0 0 3 3h10a3 3 0 0 0 3-3V10a3 3 0 0 0-3-3H10Zm-1 3a1 1 0 0 1 1-1h10a1 1 0 0 1 1 1v10a1 1 0 0 1-1 1H10a1 1 0 0 1-1-1V10Z" fill="currentcolor"/></symbol><symbol id="jest" viewBox="0 0 24 24"><path d="M20.54 11.85a2.595 2.595 0 0 0-1.94-2.507l2.49-7.333H8.756l2.496 7.359a2.595 2.595 0 0 0-1.872 2.484c0 .869.433 1.64 1.095 2.114-.264.374-.567.719-.902 1.034a6.825 6.825 0 0 1-2.125 1.373c-.697-.47-.996-1.298-.726-2.036 2.832-.881 2.207-5.05-.754-5.063a2.595 2.595 0 0 0-2.594 2.592c0 .706.285 1.353.752 1.817-.043.079-.082.163-.125.248-.387.8-.827 1.7-.995 2.712-.335 2.026.215 3.652 1.543 4.572a4.238 4.238 0 0 0 2.453.774c1.52 0 3.066-.764 4.56-1.506 1.067-.524 2.167-1.073 3.247-1.34.4-.096.817-.155 1.257-.22.891-.127 1.812-.26 2.639-.742a3.725 3.725 0 0 0 1.819-2.572c.143-.826 0-1.658-.37-2.39.25-.4.387-.865.387-1.37Zm-1.129 0a1.46 1.46 0 0 1-1.458 1.456c-1.38-.003-1.985-1.742-.902-2.601l.003-.006.15-.105s.01 0 .01-.006c.023-.013.045-.029.068-.042.007 0 .01-.003.016-.003.023-.013.052-.023.082-.036.029-.013.058-.022.082-.035.005 0 .009-.003.015-.003.023-.007.05-.02.072-.023.003 0 .017-.007.023-.007.03-.007.052-.013.08-.017h.004l.088-.02c.006 0 .016 0 .022-.006.023 0 .046-.007.072-.007h.026c.03 0 .058-.003.094-.003h.075c.023 0 .043 0 .065.003h.01c.046.007.095.013.14.027a1.466 1.466 0 0 1 1.162 1.434h.001Zm-9.04-8.682h9.105l-2.09 6.159c-.088.016-.172.045-.26.075l-2.2-4.481-2.206 4.452a2.105 2.105 0 0 0-.274-.062L10.37 3.168Zm4.139 8.178a2.57 2.57 0 0 0-.782-1.389l1.198-2.415 1.21 2.467a2.59 2.59 0 0 0-.725 1.337h-.901Zm-2.9-.914a.523.523 0 0 1 .082-.016h.015c.023-.007.046-.007.068-.013h.024c.022 0 .042-.007.065-.007h.224c.023 0 .042.007.06.007.012 0 .015 0 .029.007.022.007.039.007.062.01.006 0 .013 0 .025.005l.078.017h.007c.023.007.05.013.072.026.003 0 .01.003.022.003.017.007.04.013.06.022.002 0 .01.007.015.007.023.014.046.02.068.03h.007c.026.01.052.023.075.042h.007c.023.01.045.026.068.04.006 0 .006.006.013.006.023.01.04.03.062.04l.007.007c.068.051.133.11.199.169l.002.003c.26.273.405.634.4 1.007-.06 1.88-2.853 1.88-2.915 0a1.45 1.45 0 0 1 1.1-1.411l-.001-.001Zm-5.699-.043a1.459 1.459 0 1 1-1.458 1.46c0-.802.655-1.46 1.458-1.46Zm13.467 5.019a2.568 2.568 0 0 1-1.255 1.775c-.632.364-1.41.482-2.223.595-.46.059-.918.14-1.367.244-1.204.296-2.363.871-3.486 1.428-1.435.712-2.789 1.381-4.045 1.381a3.046 3.046 0 0 1-1.796-.572c-1.273-.878-1.21-2.526-1.058-3.43.137-.846.524-1.636.895-2.394.027-.045.042-.088.065-.133.127.046.26.081.4.105-.222 1.225.403 2.494 1.62 3.118l.219.113.237-.084a7.947 7.947 0 0 0 2.78-1.723c.459-.426.862-.907 1.203-1.431a2.597 2.597 0 0 0 2.907-1.909h.973a2.589 2.589 0 0 0 3.814 1.58c.15.433.198.885.117 1.337Z" fill="currentcolor"/></symbol><symbol id="laptop" viewBox="0 0 24 24"><path d="M20 16V7a2 2 0 0 0-2-2H6a2 2 0 0 0-2 2v9m16 0H4m16 0 1.28 2.55a1 1 0 0 1-.9 1.45H3.62a1 1 0 0 1-.9-1.45L4 16" stroke="currentcolor" stroke-width="2" stroke-linecap="round" stroke-linejoin="round"/></symbol><symbol id="sparkles" viewBox="0 0 24 24"><path fill-rule="evenodd" clip-rule="evenodd" d="M12 2a1 1 0 0 1 .95.688L14.862 8.5a1 1 0 0 0 .637.637l5.813 1.912a1 1 0 0 1 0 1.9L15.5 14.862a1 1 0 0 0-.637.637l-1.912 5.813a1 1 0 0 1-1.9 0L9.138 15.5a1 1 0 0 0-.637-.637L2.688 12.95a1 1 0 0 1 0-1.9L8.5 9.138a1 1 0 0 0 .637-.637l1.912-5.813A1 1 0 0 1 12 2Zm-.962 7.125a2.998 2.998 0 0 1-1.913 1.913L6.201 12l2.924.962a2.999 2.999 0 0 1 1.913 1.912L12 17.8l.962-2.924a2.998 2.998 0 0 1 1.912-1.913L17.8 12l-2.924-.962a2.998 2.998 0 0 1-1.913-1.913L12 6.201l-.962 2.924Z" fill="currentcolor"/><path d="M5 2a1 1 0 0 1 1 1v1h1a1 1 0 0 1 0 2H6v1a1 1 0 0 1-2 0V6H3a1 1 0 0 1 0-2h1V3a1 1 0 0 1 1-1ZM20 17a1 1 0 1 0-2 0v1h-1a1 1 0 1 0 0 2h1v1a1 1 0 1 0 2 0v-1h1a1 1 0 1 0 0-2h-1v-1Z" fill="currentcolor"/></symbol><symbol id="moon" viewBox="0 0 24 24"><path d="M12 3a6.364 6.364 0 1 0 9 9 9 9 0 1 1-9-9Z" stroke="currentcolor" stroke-width="2" stroke-linecap="round" stroke-linejoin="round"/></symbol><symbol id="layers" viewBox="0 0 24 24"><path fill-rule="evenodd" clip-rule="evenodd" d="M11.553 1.106a1 1 0 0 1 .894 0l10 5a1 1 0 0 1 0 1.788l-10 5a1 1 0 0 1-.894 0l-10-5a1 1 0 0 1 0-1.788l10-5ZM4.236 7 12 10.882 19.764 7 12 3.118 4.236 7Z" fill="currentcolor"/><path d="M1.106 16.553a1 1 0 0 1 1.341-.447L12 20.882l9.553-4.776a1 1 0 1 1 .894 1.788l-10 5a1 1 0 0 1-.894 0l-10-5a1 1 0 0 1-.447-1.341Z" fill="currentcolor"/><path d="M2.447 11.106a1 1 0 1 0-.894 1.788l10 5a1 1 0 0 0 .894 0l10-5a1 1 0 1 0-.894-1.788L12 15.882l-9.553-4.776Z" fill="currentcolor"/></symbol><symbol id="sun" viewBox="0 0 24 24"><path d="M12 1a1 1 0 0 1 1 1v2a1 1 0 1 1-2 0V2a1 1 0 0 1 1-1Z" fill="currentcolor"/><path fill-rule="evenodd" clip-rule="evenodd" d="M7 12a5 5 0 1 1 10 0 5 5 0 0 1-10 0Zm5-3a3 3 0 1 0 0 6 3 3 0 0 0 0-6Z" fill="currentcolor"/><path d="M13 20a1 1 0 1 0-2 0v2a1 1 0 1 0 2 0v-2ZM4.223 4.223a1 1 0 0 1 1.414 0l1.41 1.41a1 1 0 0 1-1.414 1.414l-1.41-1.41a1 1 0 0 1 0-1.414ZM18.367 16.953a1 1 0 1 0-1.414 1.414l1.41 1.41a1 1 0 0 0 1.414-1.414l-1.41-1.41ZM1 12a1 1 0 0 1 1-1h2a1 1 0 1 1 0 2H2a1 1 0 0 1-1-1ZM20 11a1 1 0 1 0 0 2h2a1 1 0 1 0 0-2h-2ZM7.047 16.953a1 1 0 0 1 0 1.414l-1.41 1.41a1 1 0 0 1-1.414-1.414l1.41-1.41a1 1 0 0 1 1.414 0ZM19.777 5.637a1 1 0 0 0-1.414-1.414l-1.41 1.41a1 1 0 0 0 1.414 1.414l1.41-1.41Z" fill="currentcolor"/></symbol><symbol id="prettier" viewBox="0 0 24 24"><path d="M9.243 21.144a.455.455 0 0 1-.457.456H4.208c-.61 0-.61-.916 0-.916h4.578c.254 0 .457.207.457.46Zm-.457-2.288H7.87c-.61 0-.61.916 0 .916h.917c.61 0 .61-.916 0-.916Zm-4.578.916h1.83c.611 0 .611-.916 0-.916h-1.83c-.61 0-.61.916 0 .916Zm4.578-2.744H4.208c-.61 0-.61.916 0 .916h4.578c.61 0 .61-.916 0-.916Zm6.41-1.828H6.954c-.61 0-.61.915 0 .915h8.24c.61 0 .61-.915 0-.915Zm-10.988.915h.917c.61 0 .61-.915 0-.915h-.917c-.61 0-.61.915 0 .915Zm13.735-2.743h-2.748c-.61 0-.61.912 0 .912h2.748c.61 0 .61-.912 0-.912Zm-8.24.912h3.662c.61 0 .61-.912 0-.912H9.703c-.61 0-.61.912 0 .912Zm-5.495 0h3.661c.61 0 .61-.912 0-.912H4.208c-.61 0-.61.912 0 .912Zm14.649-2.74h-7.323c-.611 0-.611.913 0 .913h7.323c.61 0 .61-.913 0-.913ZM10.16 12a.457.457 0 0 0-.457-.456H6.956c-.61 0-.61.913 0 .913h2.747c.25 0 .457-.204.457-.457Zm-5.952.456h.917c.61 0 .61-.913 0-.913h-.917c-.61 0-.61.913 0 .913Zm15.566-2.74h-4.579c-.61 0-.61.912 0 .912h4.579c.61 0 .61-.912 0-.912Zm-15.566.912h4.578c.61 0 .61-.912 0-.912H4.208c-.61 0-.61.912 0 .912Zm10.53-2.284c0 .25.204.456.457.456h4.579c.61 0 .61-.916 0-.916h-4.579a.458.458 0 0 0-.457.46Zm-6.869-.46c-.61 0-.61.916 0 .916h.917c.61 0 .61-.915 0-.915H7.87ZM4.208 8.8h1.83c.611 0 .611-.915 0-.915h-1.83c-.61 0-.61.915 0 .915Zm13.275-2.285c0 .25.207.456.46.456h.914c.61 0 .61-.915 0-.915h-.914a.458.458 0 0 0-.456.46h-.004Zm-.914 0a.46.46 0 0 0-.456-.46h-3.665c-.61 0-.61.916 0 .916h3.662a.46.46 0 0 0 .46-.456Zm-12.361.457h6.41c.61 0 .61-.916 0-.916h-6.41c-.61 0-.61.916 0 .916Zm4.121-2.288c0 .253.204.46.457.46h9.157c.61 0 .61-.916 0-.916H8.786a.457.457 0 0 0-.457.456Zm-4.121.46h2.748c.61 0 .61-.916 0-.916H4.208c-.61 0-.61.916 0 .916Zm0-1.828h10.987c.61 0 .61-.916 0-.916H4.208c-.61 0-.61.916 0 .916Z" fill="currentcolor"/></symbol><symbol id="terminal" viewBox="0 0 24 24"><path d="M4.707 4.293a1 1 0 0 0-1.414 1.414L8.586 11l-5.293 5.293a1 1 0 1 0 1.414 1.414l6-6a1 1 0 0 0 0-1.414l-6-6ZM12 18a1 1 0 1 0 0 2h8a1 1 0 1 0 0-2h-8Z" fill="currentcolor"/></symbol><symbol id="x" viewBox="0 0 24 24"><path d="M18.707 6.707a1 1 0 0 0-1.414-1.414L12 10.586 6.707 5.293a1 1 0 0 0-1.414 1.414L10.586 12l-5.293 5.293a1 1 0 1 0 1.414 1.414L12 13.414l5.293 5.293a1 1 0 0 0 1.414-1.414L13.414 12l5.293-5.293Z" fill="currentcolor"/></symbol><symbol id="zap" viewBox="0 0 24 24"><path d="M13 2 3 14h9l-1 8 10-12h-9l1-8Z" stroke="currentcolor" stroke-width="2" stroke-linecap="round" stroke-linejoin="round"/></symbol><symbol id="javascript-outline" viewBox="0 0 24 24"><path d="M16.586 19.031c-1.476 0-2.432-.703-2.896-1.625l1.295-.748c.34.555.786.967 1.567.967.658 0 1.08-.328 1.08-.786 0-.544-.43-.737-1.159-1.058l-.396-.17c-1.149-.488-1.908-1.104-1.908-2.4 0-1.194.91-2.102 2.327-2.102 1.012 0 1.737.352 2.258 1.274l-1.239.794c-.271-.488-.566-.68-1.023-.68-.465 0-.76.294-.76.68 0 .476.296.669.979.967l.397.17c1.352.579 2.11 1.172 2.11 2.503 0 1.428-1.125 2.214-2.632 2.214ZM12.825 16.631c0 1.648-.967 2.4-2.376 2.4-1.272 0-2.009-.657-2.386-1.455l1.295-.782c.25.442.476.816 1.023.816.521 0 .854-.204.854-1.001V11.2h1.59v5.431Z" fill="currentcolor"/><path fill-rule="evenodd" clip-rule="evenodd" d="M19.35 1.5H4.65A3.15 3.15 0 0 0 1.5 4.65v14.7a3.15 3.15 0 0 0 3.15 3.15h14.7a3.15 3.15 0 0 0 3.15-3.15V4.65a3.15 3.15 0 0 0-3.15-3.15Zm0 1.594H4.65c-.86 0-1.556.697-1.556 1.556v14.7c0 .86.697 1.556 1.556 1.556h14.7c.86 0 1.556-.697 1.556-1.556V4.65c0-.86-.697-1.556-1.556-1.556Z" fill="currentcolor"/></symbol><symbol id="typescript-outline" viewBox="0 0 24 24"><path d="M14.946 18.97a3.71 3.71 0 0 1-1.007-.329v-1.677c.246.208.594.407.975.54.348.132.73.199 1.111.199.243 0 .427-.021.59-.06.17-.042.306-.098.417-.168a.653.653 0 0 0 .326-.566c0-.16-.045-.3-.132-.419a1.276 1.276 0 0 0-.347-.332 2.955 2.955 0 0 0-.52-.293l-.054-.025-.03-.013c-.181-.083-.368-.168-.576-.252-.59-.28-1.055-.56-1.354-.944-.302-.35-.451-.804-.451-1.328 0-.42.08-.755.243-1.048.173-.315.378-.545.66-.734.277-.192.59-.332.971-.42a5.204 5.204 0 0 1 1.18-.132c.417 0 .764.024 1.077.073.312.05.604.126.867.227v1.643a2.29 2.29 0 0 0-.416-.241 3.845 3.845 0 0 0-.972-.273 3.187 3.187 0 0 0-.451-.033c-.212 0-.393.018-.556.056-.166.039-.305.09-.416.16a.815.815 0 0 0-.26.249.589.589 0 0 0-.094.325c0 .13.034.245.104.35.07.1.166.199.295.293.114.09.27.182.451.272l.232.104c.125.057.251.114.393.173.312.132.59.28.833.419.243.14.448.304.625.49.187.174.323.383.416.628.094.245.143.52.143.839 0 .454-.108.804-.247 1.118-.139.315-.378.549-.66.734-.277.171-.59.304-.971.384-.382.08-.764.12-1.18.12a6.52 6.52 0 0 1-1.215-.11ZM13.245 12.596h-2.222v6.395h-1.77v-6.395H7.03v-1.433h6.214v1.433Z" fill="currentcolor"/><path fill-rule="evenodd" clip-rule="evenodd" d="M19.35 1.5H4.65A3.15 3.15 0 0 0 1.5 4.65v14.7a3.15 3.15 0 0 0 3.15 3.15h14.7a3.15 3.15 0 0 0 3.15-3.15V4.65a3.15 3.15 0 0 0-3.15-3.15Zm0 1.594H4.65c-.86 0-1.556.697-1.556 1.556v14.7c0 .86.697 1.556 1.556 1.556h14.7c.86 0 1.556-.697 1.556-1.556V4.65c0-.86-.697-1.556-1.556-1.556Z" fill="currentcolor"/></symbol><symbol id="typescript" viewBox="0 0 24 24"><path fill-rule="evenodd" clip-rule="evenodd" d="M4.65 1.5h14.7a3.15 3.15 0 0 1 3.15 3.15v14.7a3.15 3.15 0 0 1-3.15 3.15H4.65a3.15 3.15 0 0 1-3.15-3.15V4.65A3.15 3.15 0 0 1 4.65 1.5Zm9.032 11.648h-2.625v7.506H8.965v-7.506H6.34v-1.681h7.342v1.681Zm2.01 7.482a4.4 4.4 0 0 1-1.19-.386v-1.969c.291.244.701.478 1.152.634.41.155.862.233 1.313.233.287 0 .505-.024.697-.07.201-.049.361-.114.492-.196a.763.763 0 0 0 .386-.665.81.81 0 0 0-.156-.492 1.503 1.503 0 0 0-.41-.39 3.501 3.501 0 0 0-.615-.344l-.098-.044c-.215-.097-.436-.197-.682-.296-.697-.328-1.246-.657-1.6-1.108-.356-.41-.532-.943-.532-1.558 0-.493.094-.886.287-1.23.205-.37.447-.64.779-.862.328-.226.697-.39 1.148-.492a6.185 6.185 0 0 1 1.395-.156c.492 0 .902.028 1.271.086.37.057.714.148 1.026.267v1.927a2.71 2.71 0 0 0-.492-.283 4.58 4.58 0 0 0-1.149-.32 3.78 3.78 0 0 0-.533-.038c-.25 0-.463.02-.656.065-.197.046-.361.107-.492.189a.961.961 0 0 0-.308.291.688.688 0 0 0-.11.382.72.72 0 0 0 .122.41c.082.119.197.234.349.344.135.107.32.214.533.32.094.04.184.081.274.122.148.067.297.134.464.202.37.156.698.328.985.492.287.165.529.357.738.575.222.205.382.45.492.738.111.287.168.611.168.984a3.1 3.1 0 0 1-.29 1.313c-.165.369-.448.644-.78.861a3.538 3.538 0 0 1-1.149.451c-.45.095-.902.14-1.394.14a7.76 7.76 0 0 1-1.436-.127Z" fill="currentcolor"/></symbol><symbol id="nodejs" viewBox="0 0 24 24"><path d="M12 0a1.91 1.91 0 0 0-.92.236L2.3 5.317a1.866 1.866 0 0 0-.92 1.607v10.14a1.87 1.87 0 0 0 .92 1.606l2.36 1.323c.608.37 1.307.562 2.018.556a2.44 2.44 0 0 0 2.508-1.681c.112-.346.147-.712.1-1.072V7.787a.26.26 0 0 0-.26-.26H7.87a.26.26 0 0 0-.271.26v10.009c0 .78-.803 1.548-2.089.898L3.15 17.31a.308.308 0 0 1-.13-.248V6.924a.284.284 0 0 1 .13-.248l8.78-5.069a.26.26 0 0 1 .259 0l8.72 5.07a.283.283 0 0 1 .13.247v10.14a.309.309 0 0 1-.13.247l-8.78 5.07a.284.284 0 0 1-.27 0L9.64 21.033a.306.306 0 0 0-.248 0 4.974 4.974 0 0 1-1.321.603c-.142 0-.366.13.082.378l2.927 1.737a1.827 1.827 0 0 0 1.84 0l8.78-5.07a1.866 1.866 0 0 0 .92-1.618V6.924a1.87 1.87 0 0 0-.92-1.607L12.92.237A1.874 1.874 0 0 0 12 0Zm2.36 7.267c-2.502 0-4 1.052-4 2.824 0 1.773 1.487 2.458 3.894 2.695 2.867.283 3.091.709 3.091 1.276 0 .98-.79 1.394-2.631 1.394-2.36 0-2.832-.579-3.009-1.737a.271.271 0 0 0-.26-.213h-1.18a.246.246 0 0 0-.232.162.247.247 0 0 0-.015.098c0 1.466.802 3.238 4.649 3.238 2.773 0 4.366-1.099 4.366-3.013 0-1.915-1.275-2.364-3.977-2.765-2.702-.402-2.997-.544-2.997-1.182 0-.638.236-1.182 2.254-1.182 1.77 0 2.466.39 2.737 1.607a.248.248 0 0 0 .248.201h1.18a.224.224 0 0 0 .177-.082.19.19 0 0 0 .06-.19c-.154-2.162-1.547-3.13-4.355-3.13Z" fill="currentcolor"/></symbol><symbol id="columns" viewBox="0 0 24 24"><path fill-rule="evenodd" clip-rule="evenodd" d="M5 22a3 3 0 0 1-3-3V5a3 3 0 0 1 3-3h14a3 3 0 0 1 3 3v14a3 3 0 0 1-3 3H5ZM4 5a1 1 0 0 1 1-1h6v16H5a1 1 0 0 1-1-1V5Zm9 15V4h6a1 1 0 0 1 1 1v14a1 1 0 0 1-1 1h-6Z" fill="currentcolor"/></symbol><symbol id="wand" viewBox="0 0 24 24"><path d="M10 1a1 1 0 0 1 1 1 1 1 0 1 1 0 2 1 1 0 1 1-2 0 1 1 0 0 1 0-2 1 1 0 0 1 1-1Z" fill="currentcolor"/><path fill-rule="evenodd" clip-rule="evenodd" d="M19.5 1.001a2.21 2.21 0 0 0-1.569.653l-.002.003L1.657 17.929l-.003.002a2.21 2.21 0 0 0 0 3.137l.003.003 1.272 1.272a2.2 2.2 0 0 0 3.142 0l11.631-11.631.005-.005.005-.005 4.631-4.63a2.2 2.2 0 0 0 0-3.143l-1.272-1.272-.003-.003a2.211 2.211 0 0 0-1.568-.653ZM17 8.586l3.942-3.943a.2.2 0 0 0 0-.286l-.01-.01-1.28-1.28-.003-.004a.21.21 0 0 0-.298 0l-.004.004L15.414 7 17 8.586Zm-3-.172L3.067 19.347l-.004.004a.211.211 0 0 0 0 .298l.004.004 1.29 1.29a.2.2 0 0 0 .286 0l.01-.01L15.586 10 14 8.414Z" fill="currentcolor"/><path d="M5 5a1 1 0 0 1 1 1v1h1a1 1 0 0 1 0 2H6v1a1 1 0 1 1-2 0V9H3a1 1 0 0 1 0-2h1V6a1 1 0 0 1 1-1ZM20 14a1 1 0 1 0-2 0v1h-1a1 1 0 1 0 0 2h1v1a1 1 0 1 0 2 0v-1h1a1 1 0 1 0 0-2h-1v-1Z" fill="currentcolor"/></symbol><symbol id="peppy" viewBox="0 0 24 24"><path d="M10.169 11.718c.298.528.643.792 1.037.792.759 0 1.139-.704 1.139-2.111 0-.772-.045-1.57-.133-2.396a9.483 9.483 0 0 0-.559-2.365c-.285-.751-.637-1.127-1.057-1.127-.583 0-.875.447-.875 1.34v3.776c0 .866.15 1.563.448 2.091Z" fill="currentcolor"/><path fill-rule="evenodd" clip-rule="evenodd" d="M11.551 2.11c-.663 0-1.305.094-1.885.314a1.778 1.778 0 0 0-1.186-.285 2.957 2.957 0 0 0-.798.207l-.048.02-3.07 1.51-.012.007c-.508.264-1.224.824-1.224 1.806v.122c0 .486.213.864.374 1.09.11.155.237.297.37.429l.293.292v7.527c0 .01 0 .109-.153.314-.164.22-.317.449-.433.679a2.089 2.089 0 0 0-.248.936v.08c0 .413.135.944.602 1.336l2.764 2.758.006.006a.158.158 0 0 0 .004.005l.002.002c.057.067.122.132.195.193.37.31.792.397 1.108.414.045.003.088.003.129.003h4.779c.04 0 .083 0 .128-.003a1.854 1.854 0 0 0 1.108-.414c.467-.392.601-.922.601-1.335v-.081c0-.435-.175-.791-.29-.992a4.73 4.73 0 0 0-.487-.68c-.13-.156-.154-.24-.158-.26v-.253c.165.013.332.02.5.02a5.884 5.884 0 0 0 3.884-1.412 6.81 6.81 0 0 0 .46-.426c1.234-1.25 1.806-2.87 1.806-4.727 0-1.282-.304-2.463-.967-3.482a6.48 6.48 0 0 0-.86-1.068l-2.97-2.965a5.314 5.314 0 0 0-1.514-1.066 6.59 6.59 0 0 0-2.81-.622Zm0 1.325a5.26 5.26 0 0 1 2.248.498c.711.331 1.318.883 1.82 1.654.501.772.752 1.692.752 2.761 0 1.57-.474 2.836-1.423 3.796-.95.961-2.082 1.442-3.397 1.442-.732 0-1.342-.142-1.83-.427v1.99c0 .365.156.734.468 1.106.312.373.468.647.468.823v.08c0 .285-.17.427-.509.427H5.37c-.339 0-.508-.142-.508-.426v-.081c0-.176.139-.45.417-.823.278-.372.417-.74.417-1.106V7.496c0-.339-.173-.657-.519-.955-.346-.297-.519-.54-.519-.73v-.122c0-.244.17-.454.509-.63l3.01-1.481c.339-.136.58-.16.722-.071.142.088.213.253.213.497v.406c.502-.65 1.315-.975 2.44-.975Z" fill="currentcolor"/></symbol><symbol id="react" viewBox="0 0 24 24"><path d="M10.731 16.655c.412.019.834.032 1.26.032.432 0 .858-.009 1.276-.032-.418.54-.83 1.018-1.267 1.473l.006-.006a19.09 19.09 0 0 1-1.244-1.426l-.031-.04Zm-4.274-.6c.813.207 1.804.382 2.814.49l.099.008c.619.85 1.244 1.598 1.915 2.301l-.008-.009a6.76 6.76 0 0 1-3.81 2.145l-.042.006h-.009c-.186 0-.362-.045-.515-.127l.006.003c-.624-.356-.895-1.718-.684-3.47.05-.431.133-.885.234-1.348v.001Zm11.088-.01c.088.356.171.809.23 1.27l.008.064c.215 1.75-.05 3.112-.67 3.476a.99.99 0 0 1-.53.12h.003a6.807 6.807 0 0 1-3.847-2.131l-.006-.006c.66-.693 1.28-1.439 1.85-2.224l.043-.063c1.107-.115 2.1-.294 3.066-.538l-.147.032Zm-10.21-2.799c.187.368.383.734.6 1.101.215.366.435.723.66 1.072a20.486 20.486 0 0 1-1.88-.362c.168-.59.38-1.202.619-1.812v.002Zm9.32-.018c.248.616.46 1.23.634 1.825-.6.147-1.234.272-1.89.365a24.073 24.073 0 0 0 1.258-2.191h-.002ZM5.71 9.216a21.508 21.508 0 0 0 1.087 2.93l-.056-.137c-.35.754-.695 1.675-.979 2.624l-.039.154c-.53-.163-.955-.323-1.37-.502l.086.033C2.816 13.628 1.766 12.72 1.766 12s1.05-1.633 2.673-2.32c.394-.169.826-.321 1.271-.463Zm12.555-.004c.453.14.885.297 1.288.467 1.623.694 2.673 1.6 2.673 2.32-.004.72-1.054 1.63-2.677 2.32-.394.169-.825.32-1.27.462a22.083 22.083 0 0 0-1.088-2.934l.057.141c.348-.753.694-1.675.977-2.623l.04-.155v.002Zm-2.871-.632c.652.097 1.28.215 1.88.363-.169.593-.38 1.202-.619 1.812a24.185 24.185 0 0 0-1.26-2.174l-.001-.001Zm-6.804 0c-.225.353-.45.715-.66 1.088-.211.365-.408.732-.596 1.1a19.587 19.587 0 0 1-.633-1.825c.6-.14 1.232-.265 1.888-.361V8.58Zm3.406-.238c.694 0 1.385.031 2.064.087.38.545.75 1.126 1.109 1.742.348.6.666 1.209.954 1.825a25.374 25.374 0 0 1-.95 1.827 23.558 23.558 0 0 1-1.106 1.753 23.935 23.935 0 0 1-4.136.005 25.088 25.088 0 0 1-1.108-1.743c-.348-.6-.667-1.208-.954-1.824.284-.616.605-1.231.95-1.832.356-.619.724-1.205 1.106-1.75.682-.06 1.374-.092 2.071-.092v.002Zm-.014-2.461c.435.45.852.928 1.244 1.426l.03.04a27.76 27.76 0 0 0-1.26-.032c-.432 0-.858.009-1.276.031.417-.54.83-1.017 1.267-1.473l-.006.006.001.002ZM7.406 3.02a6.818 6.818 0 0 1 3.847 2.132l.005.006c-.659.693-1.28 1.439-1.85 2.226l-.043.063a21.345 21.345 0 0 0-3.064.535l.147-.031A13.905 13.905 0 0 1 6.21 6.62c-.215-1.75.05-3.112.669-3.474a1.34 1.34 0 0 1 .526-.124h.002v-.001Zm9.158-.018v.006h.033c.179 0 .348.044.496.122l-.006-.003c.624.357.895 1.72.684 3.471-.05.432-.133.886-.234 1.35a20.35 20.35 0 0 0-2.815-.492l-.096-.009a22.444 22.444 0 0 0-1.916-2.302l.008.009a6.777 6.777 0 0 1 3.806-2.144l.042-.007-.002-.001Zm.004-1.021a7.682 7.682 0 0 0-4.575 2.45l-.006.007A7.667 7.667 0 0 0 7.45 2.006L7.407 2h-.034a2.05 2.05 0 0 0-1.013.267l.01-.006c-1.288.744-1.577 3.06-.912 5.966C2.605 9.108.75 10.517.75 12c0 1.49 1.865 2.902 4.726 3.777-.66 2.917-.365 5.237.927 5.98.283.162.624.258.986.258l.049-.001h-.002a7.68 7.68 0 0 0 4.575-2.453l.006-.007a7.663 7.663 0 0 0 4.538 2.435l.042.005h.039c.366 0 .71-.096 1.008-.263l-.01.005c1.287-.742 1.576-3.058.911-5.965 2.843-.874 4.698-2.286 4.698-3.772 0-1.49-1.865-2.902-4.726-3.78.66-2.914.365-5.236-.927-5.979a2.006 2.006 0 0 0-.995-.261h-.03.002l.001.002ZM14.086 12a2.096 2.096 0 1 1-4.19 0 2.096 2.096 0 0 1 4.19 0Z" fill="currentcolor"/></symbol><symbol id="search" viewBox="0 0 24 24"><path fill-rule="evenodd" clip-rule="evenodd" d="M11 2a9 9 0 1 0 5.618 16.032l3.675 3.675a1 1 0 0 0 1.414-1.414l-3.675-3.675A9 9 0 0 0 11 2Zm-7 9a7 7 0 1 1 14 0 7 7 0 0 1-14 0Z" fill="currentcolor"/></symbol><symbol id="nextjs" viewBox="0 0 24 24"><g clip-path="url(#clip0_190_1065)"><path d="M11.253.606c-.049.005-.205.02-.345.031C7.67.93 4.636 2.677 2.715 5.362a11.283 11.283 0 0 0-2.013 4.98c-.09.626-.102.811-.102 1.66 0 .85.011 1.034.102 1.66.62 4.281 3.667 7.878 7.799 9.21.74.239 1.52.402 2.407.5.345.038 1.839.038 2.184 0 1.531-.17 2.828-.549 4.108-1.201.196-.1.234-.127.207-.15-.018-.013-.854-1.134-1.857-2.489l-1.823-2.462-2.284-3.38a324.78 324.78 0 0 0-2.3-3.38c-.01-.001-.018 1.5-.023 3.335-.006 3.21-.008 3.34-.049 3.416a.405.405 0 0 1-.196.203c-.071.035-.133.042-.47.042h-.386l-.102-.065a.417.417 0 0 1-.15-.162l-.046-.1.004-4.469.007-4.47.069-.087a.611.611 0 0 1 .165-.136c.091-.044.127-.049.513-.049.454 0 .53.018.648.147.034.036 1.27 1.899 2.75 4.143 1.48 2.244 3.504 5.308 4.498 6.812l1.805 2.735.092-.06a11.7 11.7 0 0 0 2.342-2.055 11.348 11.348 0 0 0 2.683-5.828c.092-.626.103-.81.103-1.66 0-.849-.011-1.034-.102-1.66-.62-4.28-3.667-7.877-7.799-9.21a11.97 11.97 0 0 0-2.373-.497c-.214-.022-1.688-.047-1.873-.029Zm4.667 6.895a.45.45 0 0 1 .225.263c.018.058.023 1.297.018 4.089l-.006 4.007-.707-1.083-.709-1.083V10.78c0-1.883.01-2.941.023-2.993a.454.454 0 0 1 .22-.28c.092-.047.125-.052.475-.052.33 0 .388.005.461.045Z" fill="currentcolor"/></g><defs><clipPath id="clip0_190_1065"><path fill="currentcolor" d="M0 0h24v24H0z"/></clipPath></defs></symbol><symbol id="shield-check" viewBox="0 0 24 24"><path d="M15.707 10.707a1 1 0 0 0-1.414-1.414L11 12.586l-1.293-1.293a1 1 0 0 0-1.414 1.414l2 2a1 1 0 0 0 1.414 0l4-4Z" fill="currentcolor"/><path fill-rule="evenodd" clip-rule="evenodd" d="M12.351 1.064a1 1 0 0 0-.702 0l-8 3A1 1 0 0 0 3 5v7c0 3.446 2.282 6.2 4.341 8.003a22.686 22.686 0 0 0 4.104 2.836l.076.04.022.01.006.004h.002s.002.001.449-.893l-.447.894a1 1 0 0 0 .894 0L12 22l.447.894h.002l.002-.001.006-.004.022-.01a8.28 8.28 0 0 0 .35-.188 22.684 22.684 0 0 0 3.83-2.689C18.718 18.2 21 15.447 21 12V5a1 1 0 0 0-.649-.936l-8-3Zm.369 19.37c-.283.176-.528.32-.72.429a20.692 20.692 0 0 1-3.341-2.365C6.719 16.8 5 14.553 5 12V5.693l7-2.625 7 2.625V12c0 2.554-1.718 4.8-3.659 6.497a20.69 20.69 0 0 1-2.621 1.936Z" fill="currentcolor"/></symbol><symbol id="tailwindcss" viewBox="0 0 24 24"><path d="M6 9.581c.8-3.2 2.8-4.8 6-4.8 4.8 0 5.4 3.6 7.8 4.2 1.6.4 3-.2 4.2-1.8-.8 3.2-2.8 4.8-6 4.8-4.8 0-5.4-3.6-7.8-4.2-1.6-.4-3 .2-4.2 1.8Zm-6 7.2c.8-3.2 2.8-4.8 6-4.8 4.8 0 5.4 3.6 7.8 4.2 1.6.4 3-.2 4.2-1.8-.8 3.2-2.8 4.8-6 4.8-4.8 0-5.4-3.6-7.8-4.2-1.6-.4-3 .2-4.2 1.8Z" fill="currentcolor"/></symbol><symbol id="github" viewBox="0 0 24 24"><g clip-path="url(#clip0_191_1165)"><path fill-rule="evenodd" clip-rule="evenodd" d="M11.999.4C5.594.4.4 5.594.4 12c0 5.125 3.323 9.473 7.933 11.008.58.106.792-.252.792-.56 0-.276-.01-1.005-.016-1.973-3.226.701-3.907-1.555-3.907-1.555-.528-1.34-1.288-1.697-1.288-1.697-1.054-.72.08-.705.08-.705 1.164.082 1.776 1.196 1.776 1.196 1.035 1.772 2.715 1.26 3.376.963.106-.749.405-1.26.737-1.55-2.576-.293-5.284-1.288-5.284-5.733 0-1.267.452-2.302 1.194-3.113-.12-.293-.518-1.473.114-3.07 0 0 .973-.312 3.19 1.189A11.14 11.14 0 0 1 12 6.01c.986.004 1.978.133 2.904.39 2.215-1.5 3.187-1.189 3.187-1.189.633 1.597.235 2.777.116 3.07.744.811 1.192 1.846 1.192 3.113 0 4.456-2.712 5.437-5.296 5.724.416.358.787 1.066.787 2.148 0 1.55-.014 2.802-.014 3.182 0 .31.21.671.798.558C20.279 21.47 23.6 17.124 23.6 12 23.6 5.594 18.406.4 11.999.4Z" fill="currentcolor"/></g><defs><clipPath id="clip0_191_1165"><path fill="currentcolor" d="M0 0h24v24H0z"/></clipPath></defs></symbol><symbol id="eslint" viewBox="0 0 24 24"><g clip-path="url(#clip0_196_6)"><path d="M7.257 9.132 11.816 6.5a.369.369 0 0 1 .368 0l4.559 2.632a.369.369 0 0 1 .184.32v5.263a.37.37 0 0 1-.184.319l-4.559 2.632a.369.369 0 0 1-.368 0l-4.559-2.632a.37.37 0 0 1-.184-.32V9.452a.37.37 0 0 1 .184-.32Zm16.595 2.398-5.446-9.475c-.198-.343-.564-.596-.96-.596H6.555c-.396 0-.762.253-.96.596L.149 11.509a1.127 1.127 0 0 0 0 1.117l5.447 9.398c.197.342.563.517.959.517h10.893c.395 0 .76-.17.959-.512l5.446-9.413a1.07 1.07 0 0 0 0-1.086m-4.51 4.556a.4.4 0 0 1-.204.338L12.2 20.426a.395.395 0 0 1-.392 0l-6.943-4.002a.4.4 0 0 1-.205-.338V8.08c0-.14.083-.269.204-.338L11.8 3.74c.12-.07.272-.07.392 0l6.943 4.003a.4.4 0 0 1 .206.338l.002 8.005Z" fill="currentcolor"/></g><defs><clipPath id="clip0_196_6"><path fill="currentcolor" d="M0 0h24v24H0z"/></clipPath></defs></symbol></defs></svg>
