<svg aria-hidden="true" style="position:absolute;width:0;height:0" width="24" height="24" xmlns="http://www.w3.org/2000/svg" overflow="hidden"><defs><symbol id="check" viewBox="0 0 24 24"><path d="M20 6L9 17L4 12" stroke="currentcolor" stroke-width="2" stroke-linecap="round" stroke-linejoin="round"/></symbol><symbol id="chevron-right" viewBox="0 0 24 24"><path d="M9 18L15 12L9 6" stroke="currentcolor" stroke-width="2" stroke-linecap="round" stroke-linejoin="round"/></symbol><symbol id="circle" viewBox="0 0 24 24"><path d="M12 22C17.5228 22 22 17.5228 22 12C22 6.47715 17.5228 2 12 2C6.47715 2 2 6.47715 2 12C2 17.5228 6.47715 22 12 22Z" stroke="currentcolor" stroke-width="2" stroke-linecap="round" stroke-linejoin="round"/></symbol><symbol id="gem" viewBox="0 0 24 24"><path fill-rule="evenodd" clip-rule="evenodd" d="M6 1.99997H10.9799C10.9938 1.99968 11.0077 1.99968 11.0217 1.99997H12.9783C12.9923 1.99968 13.0062 1.99968 13.0201 1.99997H18C18.3344 1.99997 18.6466 2.16708 18.8321 2.44527L22.8321 8.44527C23.0697 8.80178 23.0539 9.27008 22.7926 9.60969L12.7998 22.6004C12.7593 22.6543 12.7135 22.7038 12.6634 22.7482C12.6272 22.7803 12.5887 22.8098 12.5482 22.8363C12.3892 22.9406 12.1999 23 12 23C11.8079 23 11.6257 22.9452 11.4706 22.8484C11.4091 22.81 11.3519 22.765 11.3 22.7142C11.264 22.6789 11.2306 22.6409 11.2002 22.6003L1.20738 9.60969C0.946139 9.27008 0.930283 8.80178 1.16795 8.44527L5.16795 2.44527C5.35342 2.16708 5.66565 1.99997 6 1.99997ZM11.618 3.99997H12.382L14.382 8H9.61802L11.618 3.99997ZM7.38195 8L9.38197 3.99997H6.53519L3.8685 8H7.38195ZM4.03088 10H7.26143L9.41513 16.9995L4.03088 10ZM9.35397 10H14.646L12 18.5996L9.35397 10ZM16.7386 10L14.5849 16.9995L19.9691 10H16.7386ZM20.1315 8L17.4648 3.99997H14.618L16.618 8H20.1315Z" fill="currentcolor"/></symbol><symbol id="copy" viewBox="0 0 24 24"><path d="M3 4C3 3.45228 3.45228 3 4 3H14C14.5477 3 15 3.45228 15 4C15 4.55228 15.4477 5 16 5C16.5523 5 17 4.55228 17 4C17 2.34772 15.6523 1 14 1H4C2.34772 1 1 2.34772 1 4V14C1 15.6523 2.34772 17 4 17C4.55228 17 5 16.5523 5 16C5 15.4477 4.55228 15 4 15C3.45228 15 3 14.5477 3 14V4Z" fill="currentcolor"/><path fill-rule="evenodd" clip-rule="evenodd" d="M10 7C8.34315 7 7 8.34315 7 10V20C7 21.6569 8.34315 23 10 23H20C21.6569 23 23 21.6569 23 20V10C23 8.34315 21.6569 7 20 7H10ZM9 10C9 9.44771 9.44771 9 10 9H20C20.5523 9 21 9.44771 21 10V20C21 20.5523 20.5523 21 20 21H10C9.44771 21 9 20.5523 9 20V10Z" fill="currentcolor"/></symbol><symbol id="jest" viewBox="0 0 24 24"><path d="M20.5401 11.8495C20.5401 10.6727 19.7428 9.64188 18.6006 9.34283L21.09 2.01001H8.75559L11.2525 9.36905C10.1452 9.69121 9.38356 10.702 9.38043 11.8533C9.38043 12.7217 9.81345 13.4922 10.4745 13.9667C10.2115 14.3406 9.9078 14.6859 9.57288 15.0006C8.95804 15.5868 8.2351 16.0513 7.44779 16.3735C6.7511 15.9046 6.45242 15.0755 6.72235 14.3381C9.55351 13.4566 8.92867 9.28788 5.96754 9.2754C4.53541 9.2779 3.37382 10.436 3.37382 11.867C3.37382 12.5731 3.65938 13.2199 4.12551 13.6845C4.08302 13.7625 4.04365 13.8474 4.00117 13.9317C3.61439 14.7315 3.1745 15.6324 3.00579 16.6438C2.67088 18.6698 3.22074 20.2955 4.54853 21.2158C5.26397 21.7203 6.12313 21.9931 7.00228 21.99C8.5219 21.99 10.0684 21.2258 11.5618 20.4841C12.629 19.9603 13.7287 19.4109 14.8091 19.1449C15.2096 19.0475 15.6264 18.9894 16.0656 18.9233C16.9573 18.7965 17.8783 18.6635 18.705 18.1822C19.6616 17.6359 20.3289 16.6931 20.5239 15.6099C20.667 14.7839 20.5239 13.9517 20.1533 13.2199C20.4039 12.8197 20.5407 12.3552 20.5407 11.8508L20.5401 11.8495ZM19.411 11.8495C19.411 12.6531 18.7562 13.3061 17.9533 13.3061C16.573 13.303 15.9681 11.5636 17.051 10.7045L17.0541 10.6989C17.1035 10.6633 17.156 10.6271 17.2041 10.594C17.2041 10.594 17.2141 10.594 17.2141 10.5884C17.2366 10.5753 17.2591 10.559 17.2822 10.5459C17.2891 10.5459 17.2922 10.5428 17.2978 10.5428C17.3209 10.5297 17.3503 10.5203 17.3797 10.5072C17.409 10.4941 17.4378 10.4847 17.4615 10.4716C17.4671 10.4716 17.4709 10.4685 17.4771 10.4685C17.5003 10.4616 17.5265 10.4491 17.549 10.446C17.5521 10.446 17.5659 10.4392 17.5721 10.4392C17.6015 10.4323 17.624 10.426 17.6527 10.4223H17.6558L17.7439 10.4029C17.7496 10.4029 17.7596 10.4029 17.7664 10.3961C17.7889 10.3961 17.8121 10.3892 17.8383 10.3892H17.8639C17.8933 10.3892 17.922 10.3861 17.9583 10.3861H18.0332C18.0564 10.3861 18.0757 10.3861 18.0982 10.3892H18.1082C18.1538 10.3961 18.2026 10.4023 18.2482 10.4161C18.9249 10.559 19.4104 11.1571 19.4104 11.8495H19.411ZM10.3702 3.16815H19.476L17.3865 9.32659C17.2984 9.34345 17.2141 9.37217 17.126 9.40151L14.9265 4.92066L12.7196 9.37279C12.6352 9.34595 12.5403 9.32722 12.4465 9.31099L10.3702 3.16815ZM14.5098 11.3457C14.4023 10.8119 14.1292 10.3243 13.7281 9.95717L14.9259 7.54162L16.1362 10.009C15.7744 10.3667 15.5145 10.8256 15.4108 11.3457H14.5098ZM11.6099 10.4317C11.6355 10.4248 11.6624 10.4192 11.6917 10.4161H11.7073C11.7305 10.4092 11.753 10.4092 11.7755 10.4029H11.7986C11.8211 10.4029 11.8411 10.3961 11.8636 10.3961H12.0879C12.111 10.3961 12.1304 10.4029 12.1472 10.4029C12.1597 10.4029 12.1629 10.4029 12.1766 10.4098C12.1991 10.4167 12.216 10.4167 12.2385 10.4198C12.2453 10.4198 12.2516 10.4198 12.2641 10.4254L12.3422 10.4423H12.3491C12.3716 10.4491 12.3984 10.4554 12.4209 10.4679C12.424 10.4679 12.4309 10.471 12.4434 10.471C12.4603 10.4779 12.4828 10.4841 12.5028 10.4935C12.5053 10.4935 12.5121 10.5003 12.5184 10.5003C12.5409 10.5135 12.564 10.5203 12.5865 10.5297H12.5934C12.619 10.5397 12.6452 10.5528 12.6684 10.5721H12.6752C12.6977 10.5821 12.7202 10.5977 12.7433 10.6115C12.749 10.6115 12.749 10.6183 12.7558 10.6183C12.7789 10.6283 12.7952 10.6477 12.8177 10.6577L12.8246 10.6645C12.8927 10.7164 12.9577 10.7744 13.0239 10.8337L13.0264 10.8369C13.2869 11.1097 13.4307 11.4706 13.4269 11.8439C13.3651 13.7238 10.5726 13.7238 10.5108 11.8439C10.5076 11.1777 10.9632 10.5952 11.6105 10.4329L11.6099 10.4317ZM5.91131 10.3892C6.71548 10.3892 7.36906 11.046 7.36906 11.8495C7.36906 12.6531 6.71486 13.3061 5.91131 13.3061C5.10839 13.3061 4.45355 12.6524 4.45355 11.8495C4.45355 11.0466 5.10839 10.3892 5.91131 10.3892ZM19.3779 15.4076C19.2448 16.1549 18.7831 16.8055 18.1226 17.1832C17.4909 17.5472 16.713 17.6646 15.9 17.7776C15.4408 17.8369 14.9821 17.9174 14.5329 18.0217C13.3288 18.3183 12.1704 18.8933 11.0469 19.4496C9.61225 20.1619 8.25822 20.8312 7.00228 20.8312C6.35807 20.8343 5.7301 20.6364 5.20586 20.2593C3.93306 19.3809 3.99554 17.7326 4.148 16.8286C4.28484 15.9826 4.67225 15.1928 5.04278 14.4355C5.06965 14.39 5.08527 14.3475 5.10839 14.3025C5.23523 14.3475 5.36832 14.3831 5.50829 14.4068C5.28647 15.6324 5.91131 16.901 7.1285 17.5254L7.34657 17.6384L7.58401 17.5541C8.59625 17.1926 9.53664 16.6107 10.3633 15.8309C10.8226 15.4045 11.2256 14.9238 11.5674 14.3999C11.7017 14.4224 11.8348 14.4293 11.9679 14.4293C13.1457 14.4262 14.1742 13.6326 14.4741 12.4913H15.447C15.7426 13.6326 16.7742 14.4293 17.9533 14.4293C18.435 14.4293 18.8805 14.2963 19.2611 14.0715C19.411 14.5042 19.4591 14.9556 19.3779 15.4076Z" fill="currentcolor"/></symbol><symbol id="laptop" viewBox="0 0 24 24"><path d="M20 16V7C20 6.46957 19.7893 5.96086 19.4142 5.58579C19.0391 5.21071 18.5304 5 18 5H5.99999C5.46956 5 4.96085 5.21071 4.58578 5.58579C4.2107 5.96086 3.99999 6.46957 3.99999 7V16M20 16H3.99999M20 16L21.28 18.55C21.3571 18.703 21.3936 18.8732 21.386 19.0444C21.3784 19.2155 21.327 19.3818 21.2366 19.5274C21.1463 19.6729 21.02 19.7928 20.87 19.8756C20.72 19.9584 20.5513 20.0012 20.38 20H3.61999C3.44868 20.0012 3.27993 19.9584 3.12994 19.8756C2.97994 19.7928 2.85371 19.6729 2.76337 19.5274C2.67302 19.3818 2.62159 19.2155 2.61399 19.0444C2.60639 18.8732 2.64289 18.703 2.71999 18.55L3.99999 16" stroke="currentcolor" stroke-width="2" stroke-linecap="round" stroke-linejoin="round"/></symbol><symbol id="sparkles" viewBox="0 0 24 24"><path fill-rule="evenodd" clip-rule="evenodd" d="M12 2C12.4319 2 12.815 2.27728 12.9499 2.68755L14.8619 8.50055C14.9109 8.6493 14.994 8.7845 15.1048 8.89523C15.2155 9.00596 15.3507 9.08914 15.4994 9.13806L21.3125 11.0501C21.7227 11.185 22 11.5681 22 12C22 12.4319 21.7227 12.815 21.3125 12.9499L15.4995 14.8619C15.3507 14.9109 15.2155 14.994 15.1048 15.1048C14.994 15.2155 14.9109 15.3507 14.8619 15.4994L12.9499 21.3125C12.815 21.7227 12.4319 22 12 22C11.5681 22 11.185 21.7227 11.0501 21.3125L9.13807 15.4995C9.08914 15.3507 9.00596 15.2155 8.89523 15.1048C8.7845 14.994 8.64931 14.9109 8.50056 14.8619L2.68755 12.9499C2.27728 12.815 2 12.4319 2 12C2 11.5681 2.27728 11.185 2.68755 11.0501L8.50055 9.13807C8.6493 9.08914 8.7845 9.00596 8.89523 8.89523C9.00596 8.7845 9.08914 8.64931 9.13806 8.50056L11.0501 2.68755C11.185 2.27728 11.5681 2 12 2ZM11.0379 9.12545C10.8912 9.57171 10.6416 9.97726 10.3094 10.3094C9.97726 10.6416 9.57171 10.8912 9.12545 11.0379L6.20051 12L9.12544 12.9621C9.5717 13.1088 9.97726 13.3584 10.3094 13.6906C10.6416 14.0227 10.8912 14.4283 11.0379 14.8745L12 17.7995L12.9621 14.8746C13.1088 14.4283 13.3584 14.0227 13.6906 13.6906C14.0227 13.3584 14.4283 13.1088 14.8745 12.9621L17.7995 12L14.8746 11.0379C14.4283 10.8912 14.0227 10.6416 13.6906 10.3094C13.3584 9.97726 13.1088 9.57171 12.9621 9.12545L12 6.20051L11.0379 9.12545Z" fill="currentcolor"/><path d="M5 2C5.55228 2 6 2.44772 6 3V4H7C7.55228 4 8 4.44772 8 5C8 5.55228 7.55228 6 7 6H6V7C6 7.55228 5.55228 8 5 8C4.44772 8 4 7.55228 4 7V6H3C2.44772 6 2 5.55228 2 5C2 4.44772 2.44772 4 3 4H4V3C4 2.44772 4.44772 2 5 2Z" fill="currentcolor"/><path d="M20 17C20 16.4477 19.5523 16 19 16C18.4477 16 18 16.4477 18 17V18H17C16.4477 18 16 18.4477 16 19C16 19.5523 16.4477 20 17 20H18V21C18 21.5523 18.4477 22 19 22C19.5523 22 20 21.5523 20 21V20H21C21.5523 20 22 19.5523 22 19C22 18.4477 21.5523 18 21 18H20V17Z" fill="currentcolor"/></symbol><symbol id="moon" viewBox="0 0 24 24"><path d="M12 3C10.8065 4.19347 10.136 5.81217 10.136 7.5C10.136 9.18783 10.8065 10.8065 12 12C13.1935 13.1935 14.8122 13.864 16.5 13.864C18.1878 13.864 19.8065 13.1935 21 12C21 13.78 20.4722 15.5201 19.4832 17.0001C18.4943 18.4802 17.0887 19.6337 15.4442 20.3149C13.7996 20.9961 11.99 21.1743 10.2442 20.8271C8.49836 20.4798 6.89472 19.6226 5.63604 18.364C4.37737 17.1053 3.5202 15.5016 3.17294 13.7558C2.82567 12.01 3.0039 10.2004 3.68509 8.55585C4.36628 6.91131 5.51983 5.50571 6.99987 4.51677C8.47991 3.52784 10.22 3 12 3Z" stroke="currentcolor" stroke-width="2" stroke-linecap="round" stroke-linejoin="round"/></symbol><symbol id="layers" viewBox="0 0 24 24"><path fill-rule="evenodd" clip-rule="evenodd" d="M11.5528 1.10557C11.8343 0.964809 12.1657 0.964809 12.4472 1.10557L22.4472 6.10557C22.786 6.27496 23 6.62123 23 7C23 7.37877 22.786 7.72504 22.4472 7.89443L12.4472 12.8944C12.1657 13.0352 11.8343 13.0352 11.5528 12.8944L1.55279 7.89443C1.21401 7.72504 1.00001 7.37877 1.00001 7C1.00001 6.62123 1.21401 6.27496 1.55279 6.10557L11.5528 1.10557ZM4.23607 7L12 10.882L19.7639 7L12 3.11803L4.23607 7Z" fill="currentcolor"/><path d="M1.10558 16.5528C1.35257 16.0588 1.95324 15.8586 2.44722 16.1056L12 20.882L21.5528 16.1056C22.0468 15.8586 22.6474 16.0588 22.8944 16.5528C23.1414 17.0468 22.9412 17.6474 22.4472 17.8944L12.4472 22.8944C12.1657 23.0352 11.8343 23.0352 11.5528 22.8944L1.55279 17.8944C1.05881 17.6474 0.858589 17.0468 1.10558 16.5528Z" fill="currentcolor"/><path d="M2.44722 11.1056C1.95324 10.8586 1.35257 11.0588 1.10558 11.5528C0.858589 12.0468 1.05881 12.6474 1.55279 12.8944L11.5528 17.8944C11.8343 18.0352 12.1657 18.0352 12.4472 17.8944L22.4472 12.8944C22.9412 12.6474 23.1414 12.0468 22.8944 11.5528C22.6474 11.0588 22.0468 10.8586 21.5528 11.1056L12 15.882L2.44722 11.1056Z" fill="currentcolor"/></symbol><symbol id="sun" viewBox="0 0 24 24"><path d="M12 1C12.5523 1 13 1.44772 13 2V4C13 4.55228 12.5523 5 12 5C11.4477 5 11 4.55228 11 4V2C11 1.44772 11.4477 1 12 1Z" fill="currentcolor"/><path fill-rule="evenodd" clip-rule="evenodd" d="M7 12C7 9.23858 9.23858 7 12 7C14.7614 7 17 9.23858 17 12C17 14.7614 14.7614 17 12 17C9.23858 17 7 14.7614 7 12ZM12 9C10.3431 9 9 10.3431 9 12C9 13.6569 10.3431 15 12 15C13.6569 15 15 13.6569 15 12C15 10.3431 13.6569 9 12 9Z" fill="currentcolor"/><path d="M13 20C13 19.4477 12.5523 19 12 19C11.4477 19 11 19.4477 11 20V22C11 22.5523 11.4477 23 12 23C12.5523 23 13 22.5523 13 22V20Z" fill="currentcolor"/><path d="M4.22289 4.22289C4.61341 3.83236 5.24658 3.83236 5.6371 4.22289L7.0471 5.63289C7.43762 6.02341 7.43762 6.65658 7.0471 7.0471C6.65658 7.43762 6.02341 7.43762 5.63289 7.0471L4.22289 5.6371C3.83236 5.24658 3.83236 4.61341 4.22289 4.22289Z" fill="currentcolor"/><path d="M18.3671 16.9529C17.9766 16.5623 17.3434 16.5623 16.9529 16.9529C16.5624 17.3434 16.5624 17.9766 16.9529 18.3671L18.3629 19.7771C18.7534 20.1676 19.3866 20.1676 19.7771 19.7771C20.1676 19.3866 20.1676 18.7534 19.7771 18.3629L18.3671 16.9529Z" fill="currentcolor"/><path d="M1 12C1 11.4477 1.44772 11 2 11H4C4.55228 11 5 11.4477 5 12C5 12.5523 4.55228 13 4 13H2C1.44772 13 1 12.5523 1 12Z" fill="currentcolor"/><path d="M20 11C19.4477 11 19 11.4477 19 12C19 12.5523 19.4477 13 20 13H22C22.5523 13 23 12.5523 23 12C23 11.4477 22.5523 11 22 11H20Z" fill="currentcolor"/><path d="M7.0471 16.9529C7.43762 17.3434 7.43762 17.9766 7.0471 18.3671L5.6371 19.7771C5.24657 20.1676 4.61341 20.1676 4.22289 19.7771C3.83236 19.3866 3.83236 18.7534 4.22289 18.3629L5.63289 16.9529C6.02341 16.5623 6.65658 16.5623 7.0471 16.9529Z" fill="currentcolor"/><path d="M19.7771 5.6371C20.1676 5.24657 20.1676 4.61341 19.7771 4.22289C19.3866 3.83236 18.7534 3.83236 18.3629 4.22289L16.9529 5.63289C16.5624 6.02341 16.5624 6.65658 16.9529 7.0471C17.3434 7.43762 17.9766 7.43762 18.3671 7.0471L19.7771 5.6371Z" fill="currentcolor"/></symbol><symbol id="prettier" viewBox="0 0 24 24"><path d="M9.24301 21.144C9.24301 21.3972 9.03932 21.6 8.78636 21.6H4.20785C3.59738 21.6 3.59738 20.6844 4.20785 20.6844H8.78636C9.03992 20.6844 9.24301 20.8908 9.24301 21.144ZM8.78636 18.8562H7.86945C7.25899 18.8562 7.25899 19.7718 7.86945 19.7718H8.78636C9.39682 19.7718 9.39682 18.8562 8.78636 18.8562ZM4.20785 19.7718H6.03865C6.64912 19.7718 6.64912 18.8562 6.03865 18.8562H4.20785C3.59738 18.8562 3.59738 19.7718 4.20785 19.7718ZM8.78636 17.028H4.20785C3.59738 17.028 3.59738 17.9436 4.20785 17.9436H8.78636C9.39682 17.9436 9.39682 17.028 8.78636 17.028ZM15.1951 15.1998H6.95495C6.34449 15.1998 6.34449 16.1154 6.95495 16.1154H15.1951C15.8055 16.1154 15.8055 15.1998 15.1951 15.1998ZM4.20785 16.1154H5.12475C5.73522 16.1154 5.73522 15.1998 5.12475 15.1998H4.20785C3.59738 15.1998 3.59738 16.1154 4.20785 16.1154ZM17.9428 13.3716H15.1951C14.5846 13.3716 14.5846 14.2842 15.1951 14.2842H17.9428C18.5532 14.2842 18.5532 13.3716 17.9428 13.3716ZM9.70326 14.2842H13.3649C13.9753 14.2842 13.9753 13.3716 13.3649 13.3716H9.70326C9.09279 13.3716 9.09279 14.2842 9.70326 14.2842ZM4.20785 14.2842H7.86945C8.47992 14.2842 8.47992 13.3716 7.86945 13.3716H4.20785C3.59738 13.3716 3.59738 14.2842 4.20785 14.2842ZM18.8567 11.544H11.5335C10.923 11.544 10.923 12.4566 11.5335 12.4566H18.8567C19.4671 12.4566 19.4671 11.544 18.8567 11.544ZM10.1599 12C10.1599 11.7468 9.95322 11.544 9.70326 11.544H6.95556C6.34509 11.544 6.34509 12.4566 6.95556 12.4566H9.70326C9.95382 12.4566 10.1599 12.2526 10.1599 12ZM4.20785 12.456H5.12475C5.73522 12.456 5.73522 11.5434 5.12475 11.5434H4.20785C3.59738 11.5434 3.59738 12.456 4.20785 12.456ZM19.7736 9.71582H15.1951C14.5846 9.71582 14.5846 10.6284 15.1951 10.6284H19.7736C20.384 10.6284 20.384 9.71582 19.7736 9.71582ZM4.20785 10.6284H8.78636C9.39682 10.6284 9.39682 9.71582 8.78636 9.71582H4.20785C3.59738 9.71582 3.59738 10.6284 4.20785 10.6284ZM14.7384 8.34362C14.7384 8.59382 14.9421 8.79962 15.1951 8.79962H19.7736C20.384 8.79962 20.384 7.88402 19.7736 7.88402H15.1951C14.9415 7.88402 14.7384 8.09042 14.7384 8.34362ZM7.86945 7.88462C7.25899 7.88462 7.25899 8.80022 7.86945 8.80022H8.78636C9.39682 8.80022 9.39682 7.88462 8.78636 7.88462H7.86945ZM4.20785 8.80022H6.03865C6.64912 8.80022 6.64912 7.88462 6.03865 7.88462H4.20785C3.59738 7.88462 3.59738 8.80022 4.20785 8.80022ZM17.4831 6.51542C17.4831 6.76562 17.6898 6.97142 17.9434 6.97142H18.8573C19.4677 6.97142 19.4677 6.05582 18.8573 6.05582H17.9434C17.6898 6.05582 17.4867 6.26222 17.4867 6.51542H17.4831ZM16.5692 6.51542C16.5692 6.26222 16.3625 6.05582 16.1126 6.05582H12.448C11.8375 6.05582 11.8375 6.97142 12.448 6.97142H16.1096C16.3631 6.97142 16.5692 6.76502 16.5692 6.51542ZM4.20785 6.97202H10.6172C11.2276 6.97202 11.2276 6.05642 10.6172 6.05642H4.20785C3.59738 6.05642 3.59738 6.97202 4.20785 6.97202ZM8.32911 4.68422C8.32911 4.93742 8.5328 5.14382 8.78576 5.14382H17.9428C18.5532 5.14382 18.5532 4.22822 17.9428 4.22822H8.78576C8.5322 4.22822 8.32911 4.43462 8.32911 4.68422ZM4.20785 5.14382H6.95556C7.56602 5.14382 7.56602 4.22822 6.95556 4.22822H4.20785C3.59738 4.22822 3.59738 5.14382 4.20785 5.14382ZM4.20785 3.31562H15.1951C15.8055 3.31562 15.8055 2.40002 15.1951 2.40002H4.20785C3.59738 2.40002 3.59738 3.31562 4.20785 3.31562Z" fill="currentcolor"/></symbol><symbol id="terminal" viewBox="0 0 24 24"><path d="M4.70711 4.29289C4.31658 3.90237 3.68342 3.90237 3.29289 4.29289C2.90237 4.68342 2.90237 5.31658 3.29289 5.70711L8.58579 11L3.29289 16.2929C2.90237 16.6834 2.90237 17.3166 3.29289 17.7071C3.68342 18.0976 4.31658 18.0976 4.70711 17.7071L10.7071 11.7071C11.0976 11.3166 11.0976 10.6834 10.7071 10.2929L4.70711 4.29289Z" fill="currentcolor"/><path d="M12 18C11.4477 18 11 18.4477 11 19C11 19.5523 11.4477 20 12 20H20C20.5523 20 21 19.5523 21 19C21 18.4477 20.5523 18 20 18H12Z" fill="currentcolor"/></symbol><symbol id="x" viewBox="0 0 24 24"><path d="M18.7071 6.70711C19.0976 6.31658 19.0976 5.68342 18.7071 5.29289C18.3166 4.90237 17.6834 4.90237 17.2929 5.29289L12 10.5858L6.70711 5.29289C6.31658 4.90237 5.68342 4.90237 5.29289 5.29289C4.90237 5.68342 4.90237 6.31658 5.29289 6.70711L10.5858 12L5.29289 17.2929C4.90237 17.6834 4.90237 18.3166 5.29289 18.7071C5.68342 19.0976 6.31658 19.0976 6.70711 18.7071L12 13.4142L17.2929 18.7071C17.6834 19.0976 18.3166 19.0976 18.7071 18.7071C19.0976 18.3166 19.0976 17.6834 18.7071 17.2929L13.4142 12L18.7071 6.70711Z" fill="currentcolor"/></symbol><symbol id="zap" viewBox="0 0 24 24"><path d="M13 2L3 14H12L11 22L21 10H12L13 2Z" stroke="currentcolor" stroke-width="2" stroke-linecap="round" stroke-linejoin="round"/></symbol><symbol id="js-square" viewBox="0 0 24 24"><path d="M16.5864 19.0312C15.1097 19.0312 14.1543 18.3283 13.6897 17.4061L14.9851 16.6577C15.325 17.2133 15.7707 17.6253 16.5524 17.6253C17.2096 17.6253 17.6326 17.2965 17.6326 16.8391C17.6326 16.2949 17.202 16.1021 16.4731 15.7809L16.0766 15.6108C14.9285 15.1232 14.1694 14.5072 14.1694 13.2108C14.1694 12.0165 15.0795 11.1094 16.4958 11.1094C17.5079 11.1094 18.233 11.4609 18.7542 12.3831L17.5155 13.1768C17.2436 12.6892 16.949 12.4965 16.492 12.4965C16.0275 12.4965 15.7329 12.7913 15.7329 13.1768C15.7329 13.653 16.0275 13.8457 16.711 14.1443L17.1076 14.3144C18.4596 14.8927 19.2188 15.4861 19.2188 16.8165C19.2188 18.2451 18.0933 19.0312 16.5864 19.0312Z" fill="currentcolor"/><path d="M12.8249 16.6313C12.8249 18.2791 11.858 19.0312 10.4493 19.0312C9.17661 19.0312 8.44017 18.3736 8.0625 17.5761L9.35789 16.7938C9.60715 17.236 9.83375 17.6102 10.3814 17.6102C10.9025 17.6102 11.2349 17.4061 11.2349 16.6086V11.2001H12.8249V16.6313Z" fill="currentcolor"/><path fill-rule="evenodd" clip-rule="evenodd" d="M19.35 1.5H4.65C2.9103 1.5 1.5 2.9103 1.5 4.65V19.35C1.5 21.0897 2.9103 22.5 4.65 22.5H19.35C21.0897 22.5 22.5 21.0897 22.5 19.35V4.65C22.5 2.9103 21.0897 1.5 19.35 1.5ZM19.35 3.09375H4.65C3.79051 3.09375 3.09375 3.79051 3.09375 4.65V19.35C3.09375 20.2095 3.79051 20.9062 4.65 20.9062H19.35C20.2095 20.9062 20.9062 20.2095 20.9062 19.35V4.65C20.9062 3.79051 20.2095 3.09375 19.35 3.09375Z" fill="currentcolor"/></symbol><symbol id="ts-square" viewBox="0 0 24 24"><path d="M14.9457 18.9698C14.5638 18.8964 14.2202 18.7881 13.939 18.6413V16.9639C14.1855 17.1715 14.5326 17.3707 14.9144 17.5035C15.2615 17.6363 15.6434 17.7027 16.0252 17.7027C16.2682 17.7027 16.4522 17.6817 16.6153 17.6433C16.7854 17.6013 16.9208 17.5454 17.0319 17.4755C17.143 17.4057 17.2256 17.3218 17.2783 17.2239C17.3311 17.1261 17.3582 17.0213 17.3582 16.9094C17.3582 16.7487 17.313 16.6089 17.2263 16.4901C17.1464 16.3713 17.0284 16.2594 16.8791 16.1581C16.7403 16.0568 16.5667 15.9589 16.3585 15.8646C16.3407 15.8565 16.3229 15.8484 16.305 15.8403L16.2758 15.827C16.0938 15.7444 15.9068 15.6595 15.6989 15.5745C15.1088 15.295 14.6437 15.0154 14.3451 14.631C14.0431 14.2816 13.8939 13.8273 13.8939 13.3031C13.8939 12.8837 13.9737 12.5483 14.1369 12.2547C14.3104 11.9402 14.5152 11.7096 14.7964 11.5209C15.0741 11.3287 15.3865 11.1889 15.7683 11.1015C16.1502 11.0142 16.532 10.9688 16.9486 10.9688C17.3651 10.9688 17.7122 10.9932 18.0246 11.0421C18.3371 11.0911 18.6286 11.1679 18.8925 11.2693V12.9117C18.771 12.8208 18.6286 12.7405 18.4759 12.6706C18.3128 12.6007 18.1531 12.5448 17.9899 12.4993C17.8268 12.4539 17.6636 12.42 17.504 12.398C17.3512 12.376 17.1985 12.3652 17.0527 12.3652C16.841 12.3652 16.6605 12.3826 16.4973 12.4211C16.3307 12.4595 16.1918 12.5119 16.0808 12.5818C15.9697 12.6517 15.8832 12.7321 15.8204 12.8299C15.7576 12.9278 15.7267 13.0361 15.7267 13.1549C15.7267 13.2842 15.7614 13.3995 15.8308 13.5044C15.9003 13.6057 15.9974 13.7036 16.1259 13.7979C16.2404 13.8888 16.3966 13.9796 16.5771 14.0705C16.6562 14.105 16.7323 14.1395 16.8088 14.1742L16.8091 14.1743L16.8092 14.1744C16.934 14.231 17.06 14.2881 17.202 14.3466C17.5144 14.4793 17.7921 14.6261 18.0351 14.7659C18.278 14.9057 18.4828 15.0699 18.6599 15.2551C18.8473 15.4298 18.9827 15.6395 19.0764 15.8841C19.1702 16.1288 19.2188 16.4048 19.2188 16.7228C19.2188 17.1771 19.1111 17.5266 18.9723 17.8411C18.8334 18.1556 18.5939 18.3897 18.3128 18.5749C18.0351 18.7461 17.7226 18.8789 17.3408 18.9593C16.959 19.0397 16.5771 19.0781 16.1606 19.0781C15.744 19.0781 15.3275 19.0432 14.9457 18.9698Z" fill="currentcolor"/><path d="M13.2448 12.5958H11.0232V18.9908H9.25284V12.5958H7.03125V11.163H13.2448V12.5958Z" fill="currentcolor"/><path fill-rule="evenodd" clip-rule="evenodd" d="M19.35 1.5H4.65C2.9103 1.5 1.5 2.9103 1.5 4.65V19.35C1.5 21.0897 2.9103 22.5 4.65 22.5H19.35C21.0897 22.5 22.5 21.0897 22.5 19.35V4.65C22.5 2.9103 21.0897 1.5 19.35 1.5ZM19.35 3.09375H4.65C3.79051 3.09375 3.09375 3.79051 3.09375 4.65V19.35C3.09375 20.2095 3.79051 20.9062 4.65 20.9062H19.35C20.2095 20.9062 20.9062 20.2095 20.9062 19.35V4.65C20.9062 3.79051 20.2095 3.09375 19.35 3.09375Z" fill="currentcolor"/></symbol><symbol id="typescript" viewBox="0 0 24 24"><path fill-rule="evenodd" clip-rule="evenodd" d="M4.65 1.5H19.35C21.0897 1.5 22.5 2.9103 22.5 4.65V19.35C22.5 21.0897 21.0897 22.5 19.35 22.5H4.65C2.9103 22.5 1.5 21.0897 1.5 19.35V4.65C1.5 2.9103 2.9103 1.5 4.65 1.5ZM13.6816 13.1484H11.0566V20.6543H8.96484V13.1484H6.33984V11.4668H13.6816V13.1484ZM15.6914 20.6297C15.2402 20.5436 14.8342 20.4164 14.502 20.2441V18.2754C14.7932 18.519 15.2033 18.7528 15.6545 18.9087C16.0646 19.0645 16.5158 19.1425 16.967 19.1425C17.2541 19.1425 17.4715 19.1179 17.6643 19.0727C17.8652 19.0235 18.0252 18.9579 18.1564 18.8759C18.2877 18.7938 18.3853 18.6954 18.4477 18.5805C18.51 18.4657 18.542 18.3427 18.542 18.2114C18.542 18.0227 18.4887 17.8587 18.3861 17.7192C18.2918 17.5798 18.1523 17.4485 17.976 17.3296C17.8119 17.2106 17.6068 17.0958 17.3607 16.985C17.3283 16.9704 17.2957 16.9557 17.263 16.941C17.048 16.844 16.8271 16.7443 16.5814 16.6446C15.8842 16.3165 15.3346 15.9884 14.9818 15.5372C14.625 15.127 14.4486 14.5938 14.4486 13.9786C14.4486 13.4864 14.543 13.0927 14.7357 12.7481C14.9408 12.379 15.1828 12.1083 15.515 11.8868C15.8432 11.6612 16.2123 11.4971 16.6635 11.3946C17.1146 11.2921 17.5658 11.2387 18.058 11.2387C18.5502 11.2387 18.9604 11.2675 19.3295 11.3249C19.6986 11.3823 20.0432 11.4725 20.3549 11.5915V13.5192C20.2113 13.4126 20.0432 13.3182 19.8627 13.2362C19.6699 13.1542 19.4812 13.0886 19.2885 13.0352C19.0957 12.9819 18.9029 12.9421 18.7143 12.9163C18.5338 12.8904 18.3533 12.8777 18.1811 12.8777C17.9309 12.8777 17.7176 12.8982 17.5248 12.9434C17.3279 12.9885 17.1639 13.05 17.0326 13.132C16.9014 13.2141 16.7992 13.3084 16.725 13.4232C16.6508 13.5381 16.6143 13.6652 16.6143 13.8047C16.6143 13.9564 16.6553 14.0918 16.7373 14.2148C16.8193 14.3338 16.9342 14.4486 17.0859 14.5594C17.2213 14.666 17.4059 14.7727 17.6191 14.8793C17.7127 14.9198 17.8027 14.9604 17.8932 15.0012C18.0408 15.0676 18.1896 15.1347 18.3574 15.2033C18.7266 15.3592 19.0547 15.5314 19.3418 15.6955C19.6289 15.8596 19.8709 16.0523 20.0801 16.2697C20.3016 16.4748 20.4615 16.7209 20.5723 17.008C20.683 17.2951 20.7404 17.6191 20.7404 17.9924C20.7404 18.5256 20.6133 18.9357 20.4492 19.3049C20.2852 19.674 20.0021 19.9488 19.6699 20.1662C19.3418 20.3672 18.9727 20.523 18.5215 20.6174C18.0703 20.7117 17.6191 20.7568 17.127 20.7568C16.6348 20.7568 16.1426 20.7158 15.6914 20.6297Z" fill="currentcolor"/></symbol><symbol id="nodejs" viewBox="0 0 24 24"><path d="M12 2.35139e-05C11.6782 -2.74879e-05 11.3616 0.0812601 11.0796 0.236353L2.3004 5.31745C2.02061 5.48196 1.78854 5.71674 1.62712 5.99859C1.46569 6.28043 1.38052 6.59958 1.38 6.92449V17.0631C1.38052 17.388 1.46569 17.7071 1.62712 17.989C1.78854 18.2708 2.02061 18.5056 2.3004 18.6701L4.6604 19.9935C5.26833 20.363 5.96711 20.5553 6.6782 20.5489C7.04007 20.5765 7.40354 20.523 7.74218 20.3923C8.08081 20.2616 8.3861 20.0569 8.63586 19.7933C8.88561 19.5296 9.07355 19.2135 9.18601 18.8679C9.29847 18.5224 9.33263 18.1561 9.286 17.7957V7.7871C9.286 7.75296 9.27928 7.71915 9.26624 7.68761C9.25319 7.65607 9.23407 7.62741 9.20996 7.60327C9.18586 7.57914 9.15724 7.55999 9.12574 7.54692C9.09425 7.53386 9.06049 7.52713 9.0264 7.52713H7.87C7.83493 7.52554 7.7999 7.53108 7.76703 7.54343C7.73416 7.55577 7.70413 7.57467 7.67876 7.59897C7.65339 7.62327 7.6332 7.65247 7.61942 7.68481C7.60565 7.71714 7.59856 7.75194 7.5986 7.7871V17.7957C7.5986 18.5756 6.7962 19.3436 5.51 18.6937L3.15 17.3112C3.11027 17.2831 3.07779 17.2459 3.05522 17.2028C3.03265 17.1597 3.02065 17.1118 3.0202 17.0631V6.92449C3.01853 6.87542 3.02962 6.82675 3.05237 6.78325C3.07512 6.73975 3.10877 6.70292 3.15 6.67635L11.9292 1.60707C11.9687 1.58425 12.0134 1.57224 12.059 1.57224C12.1046 1.57224 12.1493 1.58425 12.1888 1.60707L20.909 6.67635C20.9502 6.70292 20.9839 6.73975 21.0066 6.78325C21.0294 6.82675 21.0405 6.87542 21.0388 6.92449V17.0631C21.0383 17.1118 21.0263 17.1597 21.0038 17.2028C20.9812 17.2459 20.9487 17.2831 20.909 17.3112L12.1298 22.3805C12.0882 22.4032 12.0415 22.4152 11.9941 22.4152C11.9467 22.4152 11.9 22.4032 11.8584 22.3805L9.64 21.0334C9.60096 21.0161 9.55877 21.0072 9.5161 21.0072C9.47343 21.0072 9.43123 21.0161 9.3922 21.0334C8.98344 21.2979 8.53817 21.5009 8.0706 21.636C7.929 21.636 7.7048 21.766 8.1532 22.0142L11.0796 23.7512C11.359 23.9141 11.6766 24 12 24C12.3234 24 12.641 23.9141 12.9204 23.7512L21.6996 18.6819C21.9811 18.5164 22.2143 18.2797 22.3758 17.9956C22.5373 17.7115 22.6215 17.39 22.62 17.0631V6.92449C22.6195 6.59958 22.5343 6.28043 22.3729 5.99859C22.2115 5.71674 21.9794 5.48196 21.6996 5.31745L12.9204 0.236353C12.6389 0.0797971 12.322 -0.00158937 12 2.35139e-05ZM14.36 7.26717C11.8584 7.26717 10.3598 8.31884 10.3598 10.0913C10.3598 11.8638 11.8466 12.5491 14.2538 12.7855C17.1212 13.0691 17.3454 13.4945 17.3454 14.0617C17.3454 15.0424 16.5548 15.456 14.714 15.456C12.354 15.456 11.882 14.877 11.705 13.719C11.6918 13.6595 11.659 13.6062 11.6119 13.5677C11.5649 13.5291 11.5062 13.5075 11.4454 13.5063H10.2654C10.2318 13.5062 10.1986 13.513 10.1678 13.5262C10.1369 13.5394 10.109 13.5588 10.0859 13.5831C10.0627 13.6074 10.0447 13.6362 10.033 13.6677C10.0212 13.6991 10.016 13.7327 10.0176 13.7662C10.0176 15.2315 10.82 17.004 14.6668 17.004C17.4398 17.004 19.0328 15.905 19.0328 13.9908C19.0328 12.0765 17.7584 11.6275 15.0562 11.2257C12.354 10.8239 12.059 10.6821 12.059 10.044C12.059 9.40596 12.295 8.8624 14.3128 8.8624C16.0828 8.8624 16.779 9.25234 17.0504 10.4694C17.0615 10.5268 17.0924 10.5783 17.1377 10.6151C17.1831 10.6518 17.2399 10.6714 17.2982 10.6703H18.4782C18.512 10.6708 18.5455 10.6636 18.5762 10.6493C18.6068 10.635 18.6338 10.6139 18.6552 10.5876C18.6815 10.5646 18.701 10.5348 18.7114 10.5014C18.7218 10.4681 18.7228 10.4324 18.7142 10.3985C18.5608 8.23612 17.1684 7.26717 14.36 7.26717Z" fill="currentcolor"/></symbol><symbol id="columns" viewBox="0 0 24 24"><path fill-rule="evenodd" clip-rule="evenodd" d="M5 22C3.34315 22 2 20.6569 2 19V5C2 3.34315 3.34315 2 5 2H19C20.6569 2 22 3.34315 22 5V19C22 20.6569 20.6569 22 19 22H5ZM4 5C4 4.44772 4.44772 4 5 4H11V20H5C4.44772 20 4 19.5523 4 19V5ZM13 20V4H19C19.5523 4 20 4.44772 20 5V19C20 19.5523 19.5523 20 19 20H13Z" fill="currentcolor"/></symbol><symbol id="wand" viewBox="0 0 24 24"><path d="M10 1C10.5523 1 11 1.44772 11 2C11.5523 2 12 2.44772 12 3C12 3.55228 11.5523 4 11 4C11 4.55228 10.5523 5 10 5C9.44771 5 9 4.55228 9 4C8.44772 4 8 3.55228 8 3C8 2.44772 8.44772 2 9 2C9 1.44772 9.44771 1 10 1Z" fill="currentcolor"/><path fill-rule="evenodd" clip-rule="evenodd" d="M19.5 1.00116C19.2078 1.00116 18.9186 1.05908 18.649 1.17157C18.3803 1.28369 18.1364 1.4478 17.9313 1.65447L17.9292 1.65653L1.65653 17.9292L1.65447 17.9313C1.4478 18.1364 1.28369 18.3803 1.17157 18.649C1.05908 18.9186 1.00116 19.2078 1.00116 19.5C1.00116 19.7921 1.05908 20.0814 1.17157 20.351C1.28366 20.6196 1.4477 20.8634 1.65427 21.0685L1.65653 21.0707L2.92879 22.343C3.13268 22.551 3.37587 22.7165 3.64427 22.8298C3.91507 22.9442 4.20604 23.0031 4.49998 23.0031C4.79393 23.0031 5.0849 22.9442 5.3557 22.8298C5.62409 22.7165 5.86727 22.551 6.07115 22.343L17.7024 10.7118L17.7071 10.7071L17.7118 10.7024L22.343 6.07115C22.551 5.86727 22.7165 5.62409 22.8298 5.3557C22.9442 5.0849 23.0031 4.79393 23.0031 4.49998C23.0031 4.20604 22.9442 3.91507 22.8298 3.64427C22.7165 3.37587 22.551 3.13268 22.343 2.92879L21.0707 1.65653L21.0685 1.65427C20.8634 1.4477 20.6196 1.28366 20.351 1.17157C20.0814 1.05908 19.7921 1.00116 19.5 1.00116ZM17 8.58577L20.9425 4.64325C20.9617 4.62461 20.9769 4.60239 20.9873 4.57778C20.9977 4.55316 21.0031 4.52671 21.0031 4.49998C21.0031 4.47326 20.9977 4.44681 20.9873 4.42219C20.9769 4.39758 20.9617 4.37529 20.9426 4.35665L20.9328 4.34716L19.6529 3.06709L19.6492 3.06343C19.6297 3.04371 19.6065 3.02804 19.5808 3.01735C19.5552 3.00666 19.5277 3.00116 19.5 3.00116C19.4722 3.00116 19.4447 3.00666 19.4191 3.01735C19.3935 3.02804 19.3703 3.04371 19.3507 3.06343L19.3471 3.06709L15.4142 6.99998L17 8.58577ZM14 8.4142L3.06709 19.3471L3.06343 19.3507C3.04371 19.3703 3.02804 19.3935 3.01735 19.4191C3.00666 19.4447 3.00116 19.4722 3.00116 19.5C3.00116 19.5277 3.00666 19.5552 3.01735 19.5808C3.02804 19.6065 3.04371 19.6297 3.06343 19.6492L3.0671 19.6529L4.35672 20.9425C4.37536 20.9617 4.39758 20.9769 4.42219 20.9873C4.44681 20.9977 4.47326 21.0031 4.49998 21.0031C4.52671 21.0031 4.55316 20.9977 4.57778 20.9873C4.60239 20.9769 4.62468 20.9617 4.64332 20.9426L4.65281 20.9328L15.5858 9.99998L14 8.4142Z" fill="currentcolor"/><path d="M5 5C5.55228 5 6 5.44772 6 6V7H7C7.55228 7 8 7.44772 8 8C8 8.55228 7.55228 9 7 9H6V10C6 10.5523 5.55228 11 5 11C4.44772 11 4 10.5523 4 10V9H3C2.44772 9 2 8.55228 2 8C2 7.44772 2.44772 7 3 7H4V6C4 5.44772 4.44772 5 5 5Z" fill="currentcolor"/><path d="M20 14C20 13.4477 19.5523 13 19 13C18.4477 13 18 13.4477 18 14V15H17C16.4477 15 16 15.4477 16 16C16 16.5523 16.4477 17 17 17H18V18C18 18.5523 18.4477 19 19 19C19.5523 19 20 18.5523 20 18V17H21C21.5523 17 22 16.5523 22 16C22 15.4477 21.5523 15 21 15H20V14Z" fill="currentcolor"/></symbol><symbol id="peppy" viewBox="0 0 24 24"><path d="M10.1686 11.7182C10.4668 12.246 10.8125 12.5099 11.2057 12.5099C11.9649 12.5099 12.3445 11.8061 12.3445 10.3986C12.3445 9.6272 12.3005 8.82871 12.2123 8.00314C12.1242 7.17758 11.9378 6.38924 11.6531 5.63811C11.3684 4.88699 11.0159 4.51142 10.5956 4.51142C10.0127 4.51142 9.72117 4.95804 9.72117 5.85127V9.6272C9.72117 10.4934 9.8703 11.1904 10.1686 11.7182Z" fill="currentcolor"/><path fill-rule="evenodd" clip-rule="evenodd" d="M11.5514 2.10938C10.8879 2.10938 10.2464 2.20386 9.66606 2.42363C9.64385 2.40851 9.62103 2.39369 9.59759 2.3792C9.18944 2.12698 8.7659 2.11046 8.47979 2.13862C8.18853 2.16729 7.91463 2.25341 7.68163 2.34644L7.63362 2.36561L4.5648 3.87664L4.55224 3.88316C4.04378 4.1471 3.32812 4.70676 3.32812 5.68886V5.81067C3.32812 6.2967 3.54136 6.67514 3.70209 6.90165C3.81132 7.05559 3.93853 7.19832 4.07223 7.32971L4.36527 7.62204V15.149C4.36527 15.1599 4.36522 15.2575 4.21167 15.4632C4.0477 15.6827 3.89538 15.9116 3.77883 16.1415C3.67563 16.345 3.53149 16.6801 3.53149 17.0776V17.1588C3.53149 17.5715 3.6655 18.102 4.13256 18.4936L6.89733 21.2517C6.89922 21.2539 6.90112 21.2562 6.90303 21.2584C6.90435 21.26 6.90568 21.2616 6.90702 21.2631L6.90871 21.2651C6.96618 21.3321 7.03103 21.3967 7.10401 21.4579C7.47399 21.7681 7.89563 21.8551 8.21199 21.872C8.25718 21.8745 8.30023 21.8754 8.34067 21.8754H13.1197C13.1601 21.8754 13.2032 21.8745 13.2483 21.872C13.5647 21.8551 13.9863 21.7681 14.3563 21.4579C14.8234 21.0662 14.9574 20.5358 14.9574 20.123V20.0418C14.9574 19.6073 14.7817 19.2509 14.6673 19.0498C14.5349 18.8171 14.3632 18.5875 14.1803 18.3692C14.0505 18.2142 14.0258 18.1307 14.0219 18.1103V17.8573C14.1871 17.8701 14.3543 17.8762 14.5229 17.8762C15.9948 17.8762 17.3042 17.3932 18.4064 16.4646C18.5639 16.3319 18.7171 16.1902 18.8659 16.0394C20.1001 14.7898 20.6719 13.1692 20.6719 11.3125C20.6719 10.0298 20.3683 8.84938 19.7053 7.82992C19.6893 7.8053 19.6732 7.78082 19.657 7.75648C19.4133 7.39139 19.1432 7.05817 18.8456 6.76148L15.8741 3.79723C15.4316 3.35599 14.9283 2.99556 14.361 2.7313C13.473 2.3176 12.5319 2.10938 11.5514 2.10938ZM11.5514 3.43549C12.3378 3.43549 13.0868 3.60127 13.7986 3.93285C14.5103 4.26443 15.117 4.81593 15.6187 5.58736C16.1203 6.35879 16.3711 7.27909 16.3711 8.34826C16.3711 9.91818 15.8966 11.1836 14.9476 12.1445C13.9985 13.1054 12.8665 13.5858 11.5514 13.5858C10.8193 13.5858 10.2092 13.4437 9.72117 13.1595V15.149C9.72117 15.5144 9.87708 15.8832 10.1889 16.2554C10.5007 16.6276 10.6566 16.9016 10.6566 17.0776V17.1588C10.6566 17.443 10.4872 17.5851 10.1482 17.5851H5.36922C5.03029 17.5851 4.86082 17.443 4.86082 17.1588V17.0776C4.86082 16.9016 4.99978 16.6276 5.27771 16.2554C5.55564 15.8832 5.6946 15.5144 5.6946 15.149V7.49563C5.6946 7.15728 5.52174 6.83924 5.17603 6.54149C4.83031 6.24375 4.65746 6.00014 4.65746 5.81067V5.68886C4.65746 5.44526 4.82692 5.23548 5.16586 5.05954L8.17562 3.57759C8.51455 3.44225 8.7552 3.41857 8.89755 3.50654C9.0399 3.59451 9.11108 3.7603 9.11108 4.00391V4.40992C9.61271 3.7603 10.4262 3.43549 11.5514 3.43549Z" fill="currentcolor"/></symbol><symbol id="react" viewBox="0 0 24 24"><path d="M10.731 16.6552C11.1435 16.674 11.565 16.6875 11.9918 16.6875C12.423 16.6875 12.849 16.6785 13.2668 16.6552C12.849 17.1952 12.4365 17.673 12 18.1282L12.006 18.1222C11.5718 17.6722 11.1548 17.1937 10.7618 16.6957L10.731 16.6552ZM6.4575 16.0552C7.26975 16.2615 8.2605 16.437 9.2715 16.545L9.36975 16.5532C9.9885 17.403 10.614 18.1507 11.2853 18.8542L11.277 18.8452C10.2938 19.9425 8.967 20.7135 7.46625 20.9902L7.425 20.9962C7.422 20.9962 7.419 20.9962 7.416 20.9962C7.23 20.9962 7.0545 20.9505 6.90075 20.8695L6.90675 20.8725C6.28275 20.5162 6.012 19.1535 6.22275 17.4022C6.273 16.971 6.3555 16.5172 6.45675 16.0545L6.4575 16.0552ZM17.5448 16.0455C17.6333 16.401 17.7165 16.854 17.7758 17.3145L17.7825 17.379C17.9978 19.1295 17.7323 20.4907 17.1135 20.8545C16.9755 20.931 16.8105 20.976 16.635 20.976C16.6178 20.976 16.6005 20.9752 16.5833 20.9745H16.5855C15.0458 20.6932 13.7198 19.9275 12.7388 18.8437L12.7335 18.8377C13.3928 18.1455 14.0138 17.3992 14.583 16.614L14.6265 16.551C15.7335 16.4355 16.7258 16.257 17.6925 16.0132L17.5448 16.0447V16.0455ZM7.33425 13.2465C7.52175 13.614 7.71825 13.98 7.93425 14.3475C8.14975 14.713 8.37 15.07 8.595 15.4185C7.944 15.3232 7.3155 15.2032 6.71475 15.057C6.8835 14.4667 7.095 13.8555 7.3335 13.245L7.33425 13.2465ZM16.6553 13.2277C16.9035 13.8435 17.1143 14.4577 17.289 15.0532C16.689 15.2002 16.0553 15.3247 15.3998 15.4185C15.6248 15.0667 15.8498 14.7045 16.0605 14.3332C16.2713 13.968 16.4685 13.5945 16.6568 13.227L16.6553 13.2277ZM5.7105 9.21598C6.0375 10.3245 6.3885 11.2515 6.79725 12.1455L6.741 12.009C6.3915 12.7627 6.04575 13.6845 5.76225 14.6332L5.72325 14.787C5.19375 14.6242 4.76775 14.4645 4.353 14.2852L4.43925 14.3182C2.81625 13.6275 1.76625 12.7192 1.76625 11.9992C1.76625 11.2792 2.81625 10.3665 4.43925 9.67873C4.833 9.50998 5.265 9.35773 5.7105 9.21598ZM18.2648 9.21223C18.7185 9.35248 19.1498 9.50923 19.5533 9.67873C21.1763 10.3725 22.2263 11.2792 22.2263 11.9992C22.2218 12.7192 21.1718 13.6297 19.5488 14.319C19.155 14.4877 18.7238 14.6392 18.279 14.781C17.949 13.6687 17.598 12.7425 17.1908 11.847L17.2478 11.988C17.5958 11.235 17.9423 10.3132 18.225 9.36448L18.2648 9.20998V9.21223ZM15.3938 8.57998C16.0455 8.67673 16.6733 8.79523 17.274 8.94298C17.1053 9.53548 16.8945 10.1445 16.6553 10.755C16.4678 10.3897 16.2713 10.0215 16.0553 9.65473C15.8445 9.28723 15.6195 8.92948 15.3945 8.58073L15.3938 8.57998ZM8.58975 8.57998C8.36475 8.93323 8.13975 9.29473 7.92975 9.66748C7.719 10.0327 7.52175 10.4002 7.33425 10.7677C7.086 10.1527 6.87525 9.53998 6.7005 8.94298C7.3005 8.80273 7.93275 8.67748 8.589 8.58148L8.58975 8.57998ZM11.9963 8.34148C12.69 8.34148 13.3808 8.37298 14.0603 8.42848C14.4408 8.97398 14.8103 9.55498 15.1688 10.1715C15.5173 10.7715 15.8353 11.3795 16.1228 11.9955C15.834 12.6097 15.5175 13.2232 15.1733 13.8232C14.817 14.442 14.4488 15.0307 14.067 15.576C13.3845 15.6352 12.693 15.6675 11.9955 15.6675C11.3018 15.6675 10.611 15.6345 9.9315 15.5805C9.55125 15.0352 9.18 14.4517 8.823 13.8375C8.4745 13.2375 8.1565 12.6295 7.869 12.0135C8.15325 11.3977 8.47425 10.7827 8.8185 10.182C9.17475 9.56323 9.543 8.97673 9.92475 8.43148C10.6073 8.37148 11.2988 8.33998 11.9963 8.33998V8.34148ZM11.982 5.88073C12.417 6.33073 12.834 6.80848 13.2263 7.30648L13.2563 7.34623C12.8438 7.32748 12.4223 7.31473 11.9955 7.31473C11.5643 7.31473 11.1383 7.32373 10.7205 7.34623C11.1375 6.80623 11.55 6.32848 11.9873 5.87323L11.9813 5.87923L11.982 5.88073ZM7.40625 3.02173C8.946 3.30373 10.2713 4.06948 11.253 5.15248L11.2583 5.15848C10.599 5.85148 9.978 6.59773 9.40875 7.38448L9.36525 7.44748C8.259 7.56223 7.26675 7.73923 6.30075 7.98298L6.44775 7.95148C6.34275 7.49248 6.26475 7.04773 6.21 6.62098C5.99475 4.87048 6.26025 3.50923 6.879 3.14698C7.0335 3.07423 7.21425 3.02923 7.40475 3.02323H7.407L7.40625 3.02173ZM16.5638 3.00298V3.00898C16.5735 3.00898 16.5848 3.00823 16.5968 3.00823C16.776 3.00823 16.9448 3.05248 17.0933 3.13048L17.0873 3.12748C17.7113 3.48523 17.982 4.84723 17.7713 6.59923C17.721 7.03048 17.6385 7.48498 17.5373 7.94848C16.7235 7.73998 15.7328 7.56373 14.7218 7.45648L14.6258 7.44823C14.0063 6.59773 13.3808 5.84998 12.7095 5.14573L12.7185 5.15473C13.7018 4.05973 15.0263 3.28873 16.524 3.01048L16.566 3.00373L16.5638 3.00298ZM16.5683 1.98148C14.7368 2.25973 13.1513 3.14923 11.9933 4.43248L11.9873 4.43923C10.821 3.15673 9.2355 2.27323 7.449 2.00548L7.407 2.00023C7.39725 2.00023 7.38525 2.00023 7.37325 2.00023C7.005 2.00023 6.65925 2.09698 6.36 2.26648L6.3705 2.26123C5.082 3.00448 4.79325 5.32048 5.4585 8.22673C2.6055 9.10798 0.75 10.5165 0.75 12.0007C0.75 13.491 2.61525 14.9032 5.4765 15.7777C4.8165 18.6952 5.11125 21.015 6.40275 21.7575C6.68625 21.9202 7.02675 22.0155 7.389 22.0155C7.4055 22.0155 7.422 22.0155 7.43775 22.0147H7.4355C9.267 21.7365 10.8525 20.8462 12.0105 19.5622L12.0165 19.5555C13.1828 20.8387 14.7683 21.7222 16.5548 21.99L16.5968 21.9952C16.608 21.9952 16.6223 21.9952 16.6358 21.9952C17.0018 21.9952 17.346 21.8992 17.6438 21.732L17.6333 21.7372C18.921 20.9947 19.2105 18.6787 18.5453 15.7717C21.3878 14.898 23.2433 13.4865 23.2433 12C23.2433 10.5097 21.378 9.09748 18.5168 8.22073C19.1768 5.30623 18.882 2.98423 17.5905 2.24098C17.304 2.07673 16.9605 1.97998 16.5945 1.97998C16.5848 1.97998 16.575 1.97998 16.5653 1.97998H16.5668L16.5683 1.98148ZM14.0865 12.0007C14.0865 13.158 13.1483 14.0962 11.991 14.0962C10.8338 14.0962 9.8955 13.158 9.8955 12.0007C9.8955 10.8435 10.8338 9.90523 11.991 9.90523C12.57 9.90523 13.0935 10.14 13.473 10.5187C13.8525 10.8982 14.0865 11.4217 14.0865 12.0007Z" fill="currentcolor"/></symbol><symbol id="search" viewBox="0 0 24 24"><path fill-rule="evenodd" clip-rule="evenodd" d="M11 2C6.02944 2 2 6.02944 2 11C2 15.9706 6.02944 20 11 20C13.125 20 15.078 19.2635 16.6177 18.0319L20.2929 21.7071C20.6834 22.0976 21.3166 22.0976 21.7071 21.7071C22.0976 21.3166 22.0976 20.6834 21.7071 20.2929L18.0319 16.6177C19.2635 15.078 20 13.125 20 11C20 6.02944 15.9706 2 11 2ZM4 11C4 7.13401 7.13401 4 11 4C14.866 4 18 7.13401 18 11C18 14.866 14.866 18 11 18C7.13401 18 4 14.866 4 11Z" fill="currentcolor"/></symbol><symbol id="nextjs" viewBox="0 0 24 24"><g clip-path="url(#clip0_190_1065)"><path d="M11.2534 0.606111C11.2044 0.610568 11.0483 0.626167 10.9079 0.637309C7.66953 0.92923 4.63622 2.6763 2.71505 5.36154C1.64525 6.85458 0.961032 8.54817 0.702498 10.342C0.611119 10.9683 0.599976 11.1532 0.599976 12.0022C0.599976 12.8513 0.611119 13.0362 0.702498 13.6624C1.32209 17.9432 4.36878 21.5398 8.50086 22.8724C9.2408 23.1108 10.0209 23.2735 10.9079 23.3715C11.2534 23.4095 12.7466 23.4095 13.0921 23.3715C14.6232 23.2022 15.9203 22.8234 17.1996 22.1705C17.3958 22.0701 17.4336 22.0435 17.4069 22.0211C17.389 22.0077 16.5533 20.8869 15.5503 19.532L13.7273 17.0696L11.4428 13.6891C10.1858 11.8307 9.15165 10.3109 9.14274 10.3109C9.13382 10.3086 9.12491 11.8106 9.12044 13.6445C9.11376 16.8557 9.11153 16.985 9.07141 17.0607C9.01347 17.1699 8.96889 17.2145 8.87528 17.2635C8.80397 17.2992 8.74156 17.3058 8.40502 17.3058H8.01945L7.91692 17.2412C7.85006 17.1989 7.80103 17.1431 7.7676 17.0785L7.7208 16.9782L7.72525 12.5103L7.73194 8.04009L7.80103 7.95319C7.8367 7.90639 7.91247 7.84622 7.96596 7.81725C8.05733 7.77269 8.093 7.76823 8.47856 7.76823C8.93323 7.76823 9.00901 7.78605 9.12713 7.9153C9.16056 7.95095 10.3975 9.81391 11.8774 12.058C13.3572 14.3019 15.3809 17.366 16.375 18.8702L18.1803 21.6044L18.2717 21.5443C19.0807 21.0184 19.9366 20.2696 20.614 19.4897C22.056 17.834 22.9854 15.815 23.2975 13.6624C23.3889 13.0362 23.4 12.8513 23.4 12.0022C23.4 11.1532 23.3889 10.9683 23.2975 10.342C22.6779 6.06126 19.6311 2.46461 15.4991 1.13202C14.7703 0.895805 13.9947 0.733131 13.1255 0.635081C12.9115 0.612796 11.4383 0.588284 11.2534 0.606111ZM15.9203 7.50082C16.0273 7.5543 16.1142 7.6568 16.1454 7.76377C16.1633 7.82171 16.1677 9.06071 16.1633 11.8529L16.1566 15.8596L15.4501 14.7765L14.7413 13.6936V10.7811C14.7413 8.89803 14.7502 7.83954 14.7636 7.78828C14.7992 7.66349 14.8772 7.56544 14.9842 7.5075C15.0756 7.4607 15.109 7.45625 15.459 7.45625C15.7889 7.45625 15.8468 7.4607 15.9203 7.50082Z" fill="currentcolor"/></g><defs><clipPath id="clip0_190_1065"><rect width="24" height="24" fill="currentcolor"/></clipPath></defs></symbol><symbol id="shield-check" viewBox="0 0 24 24"><path d="M15.7071 10.7071C16.0976 10.3166 16.0976 9.68342 15.7071 9.29289C15.3166 8.90237 14.6834 8.90237 14.2929 9.29289L11 12.5858L9.70711 11.2929C9.31658 10.9024 8.68342 10.9024 8.29289 11.2929C7.90237 11.6834 7.90237 12.3166 8.29289 12.7071L10.2929 14.7071C10.6834 15.0976 11.3166 15.0976 11.7071 14.7071L15.7071 10.7071Z" fill="currentcolor"/><path fill-rule="evenodd" clip-rule="evenodd" d="M12.3511 1.06367C12.1247 0.978776 11.8753 0.978776 11.6489 1.06367L3.64888 4.06367C3.25857 4.21003 3 4.58316 3 5V12C3 15.4464 5.28175 18.2003 7.3415 20.0026C8.39238 20.9221 9.43854 21.6408 10.22 22.1292C10.6118 22.3741 10.9397 22.5627 11.1719 22.6913C11.2881 22.7556 11.3806 22.805 11.4453 22.839C11.4777 22.856 11.5032 22.8692 11.5212 22.8784L11.5427 22.8894L11.5492 22.8926L11.5514 22.8937C11.5517 22.8939 11.5528 22.8944 12 22L11.5528 22.8944C11.8343 23.0352 12.1657 23.0352 12.4472 22.8944L12 22C12.4472 22.8944 12.4469 22.8946 12.4472 22.8944L12.4486 22.8937L12.4508 22.8926L12.4573 22.8894L12.4788 22.8784C12.4968 22.8692 12.5223 22.856 12.5547 22.839C12.6194 22.805 12.7119 22.7556 12.8281 22.6913C13.0603 22.5627 13.3882 22.3741 13.78 22.1292C14.5615 21.6408 15.6076 20.9221 16.6585 20.0026C18.7183 18.2003 21 15.4464 21 12V5C21 4.58316 20.7414 4.21003 20.3511 4.06367L12.3511 1.06367ZM12.72 20.4333C12.4367 20.6103 12.1916 20.7541 12 20.8628C11.8084 20.7541 11.5633 20.6103 11.28 20.4333C10.5615 19.9842 9.60762 19.3279 8.6585 18.4974C6.71825 16.7997 5 14.5536 5 12V5.693L12 3.068L19 5.693V12C19 14.5536 17.2817 16.7997 15.3415 18.4974C14.3924 19.3279 13.4385 19.9842 12.72 20.4333Z" fill="currentcolor"/></symbol><symbol id="tailwindcss" viewBox="0 0 24 24"><path d="M6 9.58125C6.8 6.38125 8.8 4.78125 12 4.78125C16.8 4.78125 17.4 8.38125 19.8 8.98125C21.4 9.38125 22.8 8.78125 24 7.18125C23.2 10.3812 21.2 11.9812 18 11.9812C13.2 11.9812 12.6 8.38125 10.2 7.78125C8.6 7.38125 7.2 7.98125 6 9.58125ZM0 16.7812C0.8 13.5813 2.8 11.9812 6 11.9812C10.8 11.9812 11.4 15.5812 13.8 16.1812C15.4 16.5812 16.8 15.9812 18 14.3812C17.2 17.5812 15.2 19.1812 12 19.1812C7.2 19.1812 6.6 15.5813 4.2 14.9812C2.6 14.5813 1.2 15.1813 0 16.7812Z" fill="currentcolor"/></symbol><symbol id="github" viewBox="0 0 24 24"><g clip-path="url(#clip0_191_1165)"><path fill-rule="evenodd" clip-rule="evenodd" d="M11.999 0.400024C5.59418 0.400024 0.400024 5.59351 0.400024 12.0004C0.400024 17.1248 3.72346 21.473 8.33298 23.0075C8.91337 23.1136 9.12486 22.7555 9.12486 22.4479C9.12486 22.1722 9.11489 21.4431 9.10919 20.4752C5.8826 21.176 5.20182 18.92 5.20182 18.92C4.67414 17.5799 3.91361 17.2231 3.91361 17.2231C2.86039 16.5039 3.99337 16.5181 3.99337 16.5181C5.15767 16.6 5.77009 17.7138 5.77009 17.7138C6.80479 19.4861 8.48538 18.9741 9.14623 18.6771C9.25163 17.928 9.55142 17.4167 9.88255 17.1269C7.30682 16.8335 4.59866 15.8387 4.59866 11.3937C4.59866 10.1268 5.05086 9.09214 5.79287 8.28103C5.67324 7.98764 5.27518 6.80836 5.90681 5.21108C5.90681 5.21108 6.88026 4.89916 9.09638 6.39959C10.0214 6.14252 11.0141 6.01434 12.0004 6.00935C12.9859 6.01434 13.9779 6.14252 14.9044 6.39959C17.1191 4.89916 18.0911 5.21108 18.0911 5.21108C18.7242 6.80836 18.3261 7.98764 18.2072 8.28103C18.9506 9.09214 19.3992 10.1268 19.3992 11.3937C19.3992 15.8501 16.6867 16.8307 14.1033 17.1176C14.5191 17.4759 14.8902 18.1837 14.8902 19.2661C14.8902 20.8163 14.8759 22.0675 14.8759 22.4479C14.8759 22.7583 15.0853 23.1194 15.6735 23.0061C20.2794 21.4687 23.6 17.124 23.6 12.0004C23.6 5.59351 18.4058 0.400024 11.999 0.400024Z" fill="currentcolor"/></g><defs><clipPath id="clip0_191_1165"><rect width="24" height="24" fill="currentcolor"/></clipPath></defs></symbol><symbol id="eslint" viewBox="0 0 24 24"><g clip-path="url(#clip0_196_6)"><path d="M7.25697 9.13198L11.816 6.49998C11.872 6.46778 11.9354 6.45084 12 6.45084C12.0646 6.45084 12.128 6.46778 12.184 6.49998L16.743 9.13198C16.799 9.16447 16.8456 9.21115 16.8779 9.26732C16.9102 9.3235 16.9271 9.38719 16.927 9.45198V14.715C16.9268 14.7796 16.9098 14.843 16.8775 14.899C16.8452 14.955 16.7988 15.0015 16.743 15.034L12.184 17.666C12.128 17.6982 12.0646 17.7151 12 17.7151C11.9354 17.7151 11.872 17.6982 11.816 17.666L7.25697 15.034C7.20091 15.0015 7.15439 14.9548 7.12209 14.8986C7.08979 14.8425 7.07285 14.7788 7.07297 14.714V9.45198C7.07295 9.38721 7.08993 9.32356 7.12222 9.2674C7.15451 9.21124 7.20098 9.16455 7.25697 9.13198ZM23.852 11.53L18.406 2.05498C18.208 1.71198 17.842 1.45898 17.446 1.45898H6.55497C6.15897 1.45898 5.79297 1.71198 5.59497 2.05498L0.148974 11.509C0.0519056 11.6791 0.000854492 11.8716 0.000854492 12.0675C0.000854492 12.2634 0.0519056 12.4559 0.148974 12.626L5.59597 22.024C5.79297 22.366 6.15897 22.541 6.55497 22.541H17.448C17.843 22.541 18.208 22.371 18.407 22.029L23.853 12.616C23.95 12.4515 24.0012 12.264 24.0012 12.073C24.0012 11.882 23.95 11.6945 23.853 11.53M19.343 16.086C19.3411 16.1552 19.3213 16.2227 19.2856 16.2819C19.2498 16.3411 19.1993 16.3901 19.139 16.424L12.2 20.426C12.1403 20.4601 12.0727 20.478 12.004 20.478C11.9352 20.478 11.8677 20.4601 11.808 20.426L4.86497 16.424C4.80445 16.3902 4.75374 16.3413 4.7178 16.2821C4.68187 16.2228 4.66194 16.1553 4.65997 16.086V8.07998C4.65997 7.93998 4.74297 7.81098 4.86397 7.74198L11.8 3.73998C11.92 3.66998 12.072 3.66998 12.192 3.73998L19.135 7.74298C19.1957 7.77661 19.2466 7.82546 19.2827 7.88472C19.3188 7.94398 19.3389 8.01162 19.341 8.08098L19.343 16.086Z" fill="currentcolor"/></g><defs><clipPath id="clip0_196_6"><rect width="24" height="24" fill="currentcolor"/></clipPath></defs></symbol><symbol id="file-x" viewBox="0 0 24 24"><path d="M9.79289 11.7929C10.1834 11.4024 10.8166 11.4024 11.2071 11.7929L13 13.5858L14.7929 11.7929C15.1834 11.4024 15.8166 11.4024 16.2071 11.7929C16.5976 12.1834 16.5976 12.8166 16.2071 13.2071L14.4142 15L16.2071 16.7929C16.5976 17.1834 16.5976 17.8166 16.2071 18.2071C15.8166 18.5976 15.1834 18.5976 14.7929 18.2071L13 16.4142L11.2071 18.2071C10.8166 18.5976 10.1834 18.5976 9.79289 18.2071C9.40237 17.8166 9.40237 17.1834 9.79289 16.7929L11.5858 15L9.79289 13.2071C9.40237 12.8166 9.40237 12.1834 9.79289 11.7929Z" fill="currentcolor"/><path fill-rule="evenodd" clip-rule="evenodd" d="M7 1C6.20435 1 5.44129 1.31607 4.87868 1.87868C4.31607 2.44129 4 3.20435 4 4V20C4 20.7957 4.31607 21.5587 4.87868 22.1213C5.44129 22.6839 6.20435 23 7 23H19C19.7957 23 20.5587 22.6839 21.1213 22.1213C21.6839 21.5587 22 20.7957 22 20V7.5C22 7.23478 21.8946 6.98043 21.7071 6.79289L16.2071 1.29289C16.0196 1.10536 15.7652 1 15.5 1H7ZM14 3H7C6.73478 3 6.48043 3.10536 6.29289 3.29289C6.10536 3.48043 6 3.73478 6 4V20C6 20.2652 6.10536 20.5196 6.29289 20.7071C6.48043 20.8946 6.73478 21 7 21H19C19.2652 21 19.5196 20.8946 19.7071 20.7071C19.8946 20.5196 20 20.2652 20 20V9H15C14.4477 9 14 8.55228 14 8V3ZM19.0858 7H16V3.91421L19.0858 7Z" fill="currentcolor"/></symbol><symbol id="ts" viewBox="0 0 24 24"><path d="M19.8937 7.39785C20.4098 7.62724 20.8255 7.94265 21.141 8.34409L23.485 5.87097C22.8112 5.25448 22.0227 4.78853 21.1195 4.47312C20.2306 4.15771 19.356 4 18.4958 4C17.779 4 17.0693 4.09319 16.3668 4.27957C15.6643 4.45161 15.0334 4.73118 14.4743 5.11828C13.9152 5.50538 13.4635 6 13.1195 6.60215C12.7754 7.2043 12.6033 7.92831 12.6033 8.77419C12.6033 9.46237 12.7109 10.0502 12.9259 10.5376C13.1553 11.0108 13.4492 11.4194 13.8076 11.7634C14.1804 12.0932 14.5962 12.3656 15.0549 12.5806C15.5281 12.7957 16.0083 12.9821 16.4958 13.1398C16.9976 13.2975 17.442 13.448 17.8291 13.5914C18.2306 13.7204 18.5603 13.871 18.8184 14.043C19.0908 14.2007 19.2987 14.3799 19.442 14.5806C19.5854 14.7814 19.6571 15.0251 19.6571 15.3118C19.6571 15.6129 19.5997 15.871 19.485 16.086C19.3703 16.3011 19.2126 16.4731 19.0119 16.6022C18.8255 16.7312 18.6033 16.8244 18.3453 16.8817C18.0872 16.9391 17.822 16.9677 17.5496 16.9677C16.9474 16.9677 16.3381 16.8172 15.7216 16.5161C15.1195 16.2007 14.632 15.8136 14.2592 15.3548L11.8506 17.8065C12.5245 18.509 13.3704 19.0538 14.3883 19.4409C15.4062 19.8136 16.46 20 17.5496 20C18.2951 20 19.0191 19.8996 19.7216 19.6989C20.4241 19.4982 21.0478 19.19 21.5926 18.7742C22.1374 18.3584 22.5675 17.8351 22.8829 17.2043C23.2126 16.5591 23.3775 15.7993 23.3775 14.9247C23.3775 14.1649 23.227 13.534 22.9259 13.0323C22.6248 12.5161 22.2449 12.086 21.7861 11.7419C21.3273 11.3978 20.8184 11.1254 20.2592 10.9247C19.7001 10.7097 19.1625 10.5161 18.6463 10.3441C18.2879 10.2294 17.9653 10.1219 17.6786 10.0215C17.3919 9.90681 17.141 9.78495 16.9259 9.65591C16.7252 9.52688 16.5675 9.37634 16.4528 9.2043C16.3524 9.03226 16.3022 8.81721 16.3022 8.55914C16.3022 8.25806 16.3668 8.01434 16.4958 7.82796C16.6392 7.62724 16.8112 7.46953 17.0119 7.35484C17.2126 7.22581 17.4349 7.13978 17.6786 7.09677C17.9367 7.05376 18.1876 7.03226 18.4313 7.03226C18.9044 7.03226 19.3919 7.15412 19.8937 7.39785Z" fill="currentcolor"/><path d="M7.97849 19.6129V7.52688H12.2796V4.3871H0V7.52688H4.30107V19.6129H7.97849Z" fill="currentcolor"/></symbol><symbol id="js" viewBox="0 0 24 24"><path d="M19.9272 7.39329C20.4426 7.62237 20.8578 7.93736 21.1728 8.33825L23.5138 5.86845C22.8408 5.2528 22.0534 4.78747 21.1513 4.47248C20.2636 4.15749 19.3903 4 18.5312 4C17.8153 4 17.1066 4.09306 16.405 4.27919C15.7035 4.45101 15.0735 4.7302 14.5151 5.11678C13.9567 5.50336 13.5057 5.99732 13.1621 6.59866C12.8185 7.2 12.6466 7.92304 12.6466 8.76779C12.6466 9.45503 12.754 10.0421 12.9688 10.5289C13.1979 11.0013 13.4914 11.4094 13.8493 11.753C14.2216 12.0823 14.6368 12.3544 15.095 12.5691C15.5674 12.7839 16.0471 12.97 16.5339 13.1275C17.035 13.285 17.4789 13.4353 17.8654 13.5785C18.2663 13.7074 18.5956 13.8577 18.8534 14.0295C19.1254 14.187 19.333 14.366 19.4762 14.5664C19.6194 14.7669 19.6909 15.0103 19.6909 15.2966C19.6909 15.5973 19.6337 15.855 19.5191 16.0698C19.4046 16.2846 19.2471 16.4564 19.0466 16.5852C18.8605 16.7141 18.6386 16.8072 18.3809 16.8644C18.1232 16.9217 17.8583 16.9503 17.5862 16.9503C16.9849 16.9503 16.3764 16.8 15.7607 16.4993C15.1594 16.1843 14.6726 15.7978 14.3003 15.3396L11.895 17.7879C12.5679 18.4895 13.4126 19.0336 14.4292 19.4201C15.4457 19.7924 16.4981 19.9785 17.5862 19.9785C18.3308 19.9785 19.0538 19.8783 19.7554 19.6779C20.4569 19.4774 21.0798 19.1696 21.6238 18.7544C22.1679 18.3392 22.5974 17.8166 22.9124 17.1866C23.2417 16.5423 23.4064 15.7834 23.4064 14.9101C23.4064 14.1512 23.256 13.5213 22.9554 13.0201C22.6547 12.5047 22.2753 12.0752 21.8171 11.7315C21.3589 11.3879 20.8507 11.1159 20.2923 10.9154C19.7339 10.7007 19.197 10.5074 18.6815 10.3356C18.3236 10.221 18.0015 10.1136 17.7151 10.0134C17.4287 9.89888 17.1782 9.77718 16.9634 9.64832C16.763 9.51946 16.6055 9.36913 16.4909 9.19732C16.3907 9.0255 16.3406 8.81074 16.3406 8.55302C16.3406 8.25235 16.405 8.00895 16.5339 7.82282C16.6771 7.62237 16.8489 7.46488 17.0493 7.35033C17.2498 7.22148 17.4717 7.13557 17.7151 7.09262C17.9728 7.04966 18.2234 7.02819 18.4668 7.02819C18.9393 7.02819 19.4261 7.14989 19.9272 7.39329Z" fill="currentcolor"/><path d="M10.7289 16.2846C10.872 15.626 10.9436 14.996 10.9436 14.3946V4.38658H7.24966V14.4161C7.24966 15.089 7.14944 15.6331 6.94899 16.0483C6.76286 16.4635 6.36913 16.6711 5.76778 16.6711C5.38121 16.6711 5.0519 16.5494 4.77987 16.306C4.52215 16.0626 4.34318 15.7405 4.24295 15.3396L1 16.4349C1.28635 17.4801 1.85906 18.3392 2.71812 19.0121C3.57718 19.6707 4.65101 20 5.9396 20C6.97047 20 7.80805 19.821 8.45235 19.4631C9.11096 19.1051 9.61924 18.6541 9.97718 18.1101C10.3494 17.5517 10.6 16.9432 10.7289 16.2846Z" fill="currentcolor"/></symbol><symbol id="code" viewBox="0 0 24 24"><path d="M8.70711 6.70711C9.09763 6.31658 9.09763 5.68342 8.70711 5.29289C8.31658 4.90237 7.68342 4.90237 7.29289 5.29289L1.29289 11.2929C0.902369 11.6834 0.902369 12.3166 1.29289 12.7071L7.29289 18.7071C7.68342 19.0976 8.31658 19.0976 8.70711 18.7071C9.09763 18.3166 9.09763 17.6834 8.70711 17.2929L3.41421 12L8.70711 6.70711Z" fill="currentcolor"/><path d="M16.7071 5.29289C16.3166 4.90237 15.6834 4.90237 15.2929 5.29289C14.9024 5.68342 14.9024 6.31658 15.2929 6.70711L20.5858 12L15.2929 17.2929C14.9024 17.6834 14.9024 18.3166 15.2929 18.7071C15.6834 19.0976 16.3166 19.0976 16.7071 18.7071L22.7071 12.7071C23.0976 12.3166 23.0976 11.6834 22.7071 11.2929L16.7071 5.29289Z" fill="currentcolor"/></symbol><symbol id="shield-alert" viewBox="0 0 24 24"><path d="M12 7C12.5523 7 13 7.44772 13 8V12C13 12.5523 12.5523 13 12 13C11.4477 13 11 12.5523 11 12V8C11 7.44772 11.4477 7 12 7Z" fill="currentcolor"/><path d="M12 15C11.4477 15 11 15.4477 11 16C11 16.5523 11.4477 17 12 17H12.01C12.5623 17 13.01 16.5523 13.01 16C13.01 15.4477 12.5623 15 12.01 15H12Z" fill="currentcolor"/><path fill-rule="evenodd" clip-rule="evenodd" d="M11.6489 1.06367C11.8753 0.978776 12.1247 0.978776 12.3511 1.06367L20.3511 4.06367C20.7414 4.21003 21 4.58316 21 5V12C21 15.4464 18.7183 18.2003 16.6585 20.0026C15.6076 20.9221 14.5615 21.6408 13.78 22.1292C13.3882 22.3741 13.0603 22.5627 12.8281 22.6913C12.7119 22.7556 12.6194 22.805 12.5547 22.839C12.5223 22.856 12.4968 22.8692 12.4788 22.8784L12.4573 22.8894L12.4508 22.8926L12.4486 22.8937C12.4483 22.8939 12.4472 22.8944 12 22C11.5528 22.8944 11.5525 22.8943 11.5522 22.8941L11.5492 22.8926L11.5427 22.8894L11.5212 22.8784C11.5032 22.8692 11.4777 22.856 11.4453 22.839C11.3806 22.805 11.2881 22.7556 11.1719 22.6913C10.9397 22.5627 10.6118 22.3741 10.22 22.1292C9.43854 21.6408 8.39238 20.9221 7.3415 20.0026C5.28175 18.2003 3 15.4464 3 12V5C3 4.58316 3.25857 4.21003 3.64888 4.06367L11.6489 1.06367ZM12 20.8628C12.1916 20.7541 12.4367 20.6103 12.72 20.4333C13.4385 19.9842 14.3924 19.3279 15.3415 18.4974C17.2817 16.7997 19 14.5536 19 12V5.693L12 3.068L5 5.693V12C5 14.5536 6.71825 16.7997 8.6585 18.4974C9.60762 19.3279 10.5615 19.9842 11.28 20.4333C11.5633 20.6103 11.8084 20.7541 12 20.8628Z" fill="currentcolor"/><path d="M12 22L12.4472 22.8944C12.1657 23.0352 11.8337 23.0349 11.5522 22.8941L12 22Z" fill="currentcolor"/></symbol><symbol id="shield-minus" viewBox="0 0 24 24"><path d="M8 10C7.44772 10 7 10.4477 7 11C7 11.5523 7.44772 12 8 12H16C16.5523 12 17 11.5523 17 11C17 10.4477 16.5523 10 16 10H8Z" fill="currentcolor"/><path fill-rule="evenodd" clip-rule="evenodd" d="M12.3511 1.06367C12.1247 0.978776 11.8753 0.978776 11.6489 1.06367L3.64888 4.06367C3.25857 4.21003 3 4.58316 3 5V12C3 15.4464 5.28175 18.2003 7.3415 20.0026C8.39238 20.9221 9.43854 21.6408 10.22 22.1292C10.6118 22.3741 10.9397 22.5627 11.1719 22.6913C11.2881 22.7556 11.3806 22.805 11.4453 22.839C11.4777 22.856 11.5032 22.8692 11.5212 22.8784L11.5427 22.8894L11.5492 22.8926L11.5514 22.8937C11.5517 22.8939 11.5528 22.8944 12 22L11.5528 22.8944C11.8343 23.0352 12.1657 23.0352 12.4472 22.8944L12 22C12.4472 22.8944 12.4469 22.8946 12.4472 22.8944L12.4486 22.8937L12.4508 22.8926L12.4573 22.8894L12.4788 22.8784C12.4968 22.8692 12.5223 22.856 12.5547 22.839C12.6194 22.805 12.7119 22.7556 12.8281 22.6913C13.0603 22.5627 13.3882 22.3741 13.78 22.1292C14.5615 21.6408 15.6076 20.9221 16.6585 20.0026C18.7183 18.2003 21 15.4464 21 12V5C21 4.58316 20.7414 4.21003 20.3511 4.06367L12.3511 1.06367ZM12.72 20.4333C12.4367 20.6103 12.1916 20.7541 12 20.8628C11.8084 20.7541 11.5633 20.6103 11.28 20.4333C10.5615 19.9842 9.60762 19.3279 8.6585 18.4974C6.71825 16.7997 5 14.5536 5 12V5.693L12 3.068L19 5.693V12C19 14.5536 17.2817 16.7997 15.3415 18.4974C14.3924 19.3279 13.4385 19.9842 12.72 20.4333Z" fill="currentcolor"/></symbol><symbol id="shield-ban" viewBox="0 0 24 24"><path fill-rule="evenodd" clip-rule="evenodd" d="M11.6489 1.06367C11.8753 0.978776 12.1247 0.978776 12.3511 1.06367L20.3511 4.06367C20.7414 4.21003 21 4.58316 21 5V12C21 15.4464 18.7183 18.2003 16.6585 20.0026C15.6076 20.9221 14.5615 21.6408 13.78 22.1292C13.3882 22.3741 13.0603 22.5627 12.8281 22.6913C12.7119 22.7556 12.6194 22.805 12.5547 22.839C12.5223 22.856 12.4968 22.8692 12.4788 22.8784L12.4573 22.8894L12.4508 22.8926L12.4486 22.8937L12.4472 22.8944C12.1657 23.0352 11.8343 23.0352 11.5528 22.8944L12 22C11.5528 22.8944 11.5514 22.8937 11.5514 22.8937L11.5492 22.8926L11.5427 22.8894L11.5212 22.8784C11.5032 22.8692 11.4777 22.856 11.4453 22.839C11.3806 22.805 11.2881 22.7556 11.1719 22.6913C10.9397 22.5627 10.6118 22.3741 10.22 22.1292C9.43854 21.6408 8.39238 20.9221 7.3415 20.0026C5.28175 18.2003 3 15.4464 3 12V5C3 4.58316 3.25857 4.21003 3.64888 4.06367L11.6489 1.06367ZM5 7.23006V12C5 14.5536 6.71825 16.7997 8.6585 18.4974C9.60762 19.3279 10.5615 19.9842 11.28 20.4333C11.5633 20.6103 11.8084 20.7541 12 20.8628C12.1916 20.7541 12.4367 20.6103 12.72 20.4333C13.4385 19.9842 14.3924 19.3279 15.3415 18.4974C15.8012 18.0952 16.2484 17.6622 16.6633 17.2016L5 7.23006ZM17.8755 15.6066L5.88967 5.35938L12 3.068L19 5.693V12C19 13.2912 18.5607 14.5038 17.8755 15.6066Z" fill="currentcolor"/></symbol><symbol id="shield-off" viewBox="0 0 24 24"><path d="M11.6489 1.06367C11.8753 0.978776 12.1247 0.978776 12.3511 1.06367L20.3511 4.06367C20.7414 4.21003 21 4.58316 21 5V12L21 12.0018C20.9986 12.7778 20.8829 13.5494 20.6565 14.2917C20.4954 14.8199 19.9366 15.1176 19.4083 14.9565C18.8801 14.7954 18.5824 14.2366 18.7435 13.7083C18.9124 13.1543 18.9989 12.5784 19 11.9992V5.693L12 3.068L9.15113 4.13633C8.63401 4.33025 8.05759 4.06824 7.86367 3.55112C7.66975 3.034 7.93176 2.45759 8.44888 2.26367L11.6489 1.06367Z" fill="currentcolor"/><path fill-rule="evenodd" clip-rule="evenodd" d="M1.29289 1.29289C1.68342 0.902369 2.31658 0.902369 2.70711 1.29289L5.39136 3.97714C5.40222 3.98753 5.41288 3.99818 5.42331 4.00909L18.3238 16.9096C18.3264 16.9122 18.3291 16.9148 18.3316 16.9174L22.7071 21.2929C23.0976 21.6834 23.0976 22.3166 22.7071 22.7071C22.3166 23.0976 21.6834 23.0976 21.2929 22.7071L17.6401 19.0543C16.1211 20.5843 14.3771 21.8762 12.4668 22.8844C12.1815 23.0349 11.8412 23.0387 11.5528 22.8944L12 22C11.5528 22.8944 11.5531 22.8946 11.5528 22.8944L11.5514 22.8937L11.5492 22.8926L11.5427 22.8894L11.5212 22.8784C11.5032 22.8692 11.4777 22.856 11.4453 22.839C11.3806 22.805 11.2881 22.7556 11.1719 22.6913C10.9397 22.5627 10.6118 22.3741 10.22 22.1293C9.43854 21.6408 8.39238 20.9221 7.3415 20.0026C5.28175 18.2003 3 15.4465 3 12V5.00001C3 4.83295 3.04158 4.67259 3.11679 4.53101L1.29289 2.70711C0.902369 2.31658 0.902369 1.68342 1.29289 1.29289ZM5 6.41421V12C5 14.5536 6.71825 16.7997 8.6585 18.4974C9.60762 19.3279 10.5615 19.9842 11.28 20.4333C11.5625 20.6098 11.807 20.7534 11.9984 20.8619C13.55 19.9877 14.9725 18.9034 16.2259 17.6401L5 6.41421Z" fill="currentcolor"/></symbol><symbol id="shield-x" viewBox="0 0 24 24"><path d="M15.2071 8.29289C15.5976 8.68342 15.5976 9.31658 15.2071 9.70711L13.4142 11.5L15.2071 13.2929C15.5976 13.6834 15.5976 14.3166 15.2071 14.7071C14.8166 15.0976 14.1834 15.0976 13.7929 14.7071L12 12.9142L10.2071 14.7071C9.81658 15.0976 9.18342 15.0976 8.79289 14.7071C8.40237 14.3166 8.40237 13.6834 8.79289 13.2929L10.5858 11.5L8.79289 9.70711C8.40237 9.31658 8.40237 8.68342 8.79289 8.29289C9.18342 7.90237 9.81658 7.90237 10.2071 8.29289L12 10.0858L13.7929 8.29289C14.1834 7.90237 14.8166 7.90237 15.2071 8.29289Z" fill="currentcolor"/><path fill-rule="evenodd" clip-rule="evenodd" d="M11.6489 1.06367C11.8753 0.978776 12.1247 0.978776 12.3511 1.06367L20.3511 4.06367C20.7414 4.21003 21 4.58316 21 5V12C21 15.4464 18.7183 18.2003 16.6585 20.0026C15.6076 20.9221 14.5615 21.6408 13.78 22.1292C13.3882 22.3741 13.0603 22.5627 12.8281 22.6913C12.7119 22.7556 12.6194 22.805 12.5547 22.839C12.5223 22.856 12.4968 22.8692 12.4788 22.8784L12.4573 22.8894L12.4508 22.8926L12.4486 22.8937C12.4483 22.8939 12.4472 22.8944 12 22C11.5528 22.8944 11.5525 22.8943 11.5522 22.8941L11.5492 22.8926L11.5427 22.8894L11.5212 22.8784C11.5032 22.8692 11.4777 22.856 11.4453 22.839C11.3806 22.805 11.2881 22.7556 11.1719 22.6913C10.9397 22.5627 10.6118 22.3741 10.22 22.1292C9.43854 21.6408 8.39238 20.9221 7.3415 20.0026C5.28175 18.2003 3 15.4464 3 12V5C3 4.58316 3.25857 4.21003 3.64888 4.06367L11.6489 1.06367ZM12 20.8628C12.1916 20.7541 12.4367 20.6103 12.72 20.4333C13.4385 19.9842 14.3924 19.3279 15.3415 18.4974C17.2817 16.7997 19 14.5536 19 12V5.693L12 3.068L5 5.693V12C5 14.5536 6.71825 16.7997 8.6585 18.4974C9.60762 19.3279 10.5615 19.9842 11.28 20.4333C11.5633 20.6103 11.8084 20.7541 12 20.8628Z" fill="currentcolor"/><path d="M12 22L12.4472 22.8944C12.1657 23.0352 11.8337 23.0349 11.5522 22.8941L12 22Z" fill="currentcolor"/></symbol><symbol id="shield" viewBox="0 0 24 24"><path fill-rule="evenodd" clip-rule="evenodd" d="M11.6489 1.06367C11.8753 0.978776 12.1247 0.978776 12.3511 1.06367L20.3511 4.06367C20.7414 4.21003 21 4.58316 21 5V12C21 15.4464 18.7183 18.2003 16.6585 20.0026C15.6076 20.9221 14.5615 21.6408 13.78 22.1292C13.3882 22.3741 13.0603 22.5627 12.8281 22.6913C12.7119 22.7556 12.6194 22.805 12.5547 22.839C12.5223 22.856 12.4968 22.8692 12.4788 22.8784L12.4573 22.8894L12.4508 22.8926L12.4486 22.8937C12.4483 22.8939 12.4472 22.8944 12 22C11.5528 22.8944 11.5525 22.8943 11.5522 22.8941L11.5492 22.8926L11.5427 22.8894L11.5212 22.8784C11.5032 22.8692 11.4777 22.856 11.4453 22.839C11.3806 22.805 11.2881 22.7556 11.1719 22.6913C10.9397 22.5627 10.6118 22.3741 10.22 22.1292C9.43854 21.6408 8.39238 20.9221 7.3415 20.0026C5.28175 18.2003 3 15.4464 3 12V5C3 4.58316 3.25857 4.21003 3.64888 4.06367L11.6489 1.06367ZM12 22L11.5522 22.8941C11.8337 23.0349 12.1657 23.0352 12.4472 22.8944L12 22ZM12 20.8628C12.1916 20.7541 12.4367 20.6103 12.72 20.4333C13.4385 19.9842 14.3924 19.3279 15.3415 18.4974C17.2817 16.7997 19 14.5536 19 12V5.693L12 3.068L5 5.693V12C5 14.5536 6.71825 16.7997 8.6585 18.4974C9.60762 19.3279 10.5615 19.9842 11.28 20.4333C11.5633 20.6103 11.8084 20.7541 12 20.8628Z" fill="currentcolor"/></symbol><symbol id="settings" viewBox="0 0 24 24"><path d="M12.22 2H11.78C11.2496 2 10.7409 2.21071 10.3658 2.58579C9.99072 2.96086 9.78 3.46957 9.78 4V4.18C9.77964 4.53073 9.68706 4.87519 9.51154 5.17884C9.33602 5.48248 9.08374 5.73464 8.78 5.91L8.35 6.16C8.04596 6.33554 7.70108 6.42795 7.35 6.42795C6.99893 6.42795 6.65404 6.33554 6.35 6.16L6.2 6.08C5.74107 5.81526 5.19584 5.74344 4.684 5.88031C4.17217 6.01717 3.73555 6.35154 3.47 6.81L3.25 7.19C2.98526 7.64893 2.91345 8.19416 3.05031 8.706C3.18717 9.21783 3.52154 9.65445 3.98 9.92L4.13 10.02C4.43228 10.1945 4.68362 10.4451 4.85905 10.7468C5.03448 11.0486 5.1279 11.391 5.13 11.74V12.25C5.1314 12.6024 5.03965 12.949 4.86405 13.2545C4.68844 13.5601 4.43521 13.8138 4.13 13.99L3.98 14.08C3.52154 14.3456 3.18717 14.7822 3.05031 15.294C2.91345 15.8058 2.98526 16.3511 3.25 16.81L3.47 17.19C3.73555 17.6485 4.17217 17.9828 4.684 18.1197C5.19584 18.2566 5.74107 18.1847 6.2 17.92L6.35 17.84C6.65404 17.6645 6.99893 17.5721 7.35 17.5721C7.70108 17.5721 8.04596 17.6645 8.35 17.84L8.78 18.09C9.08374 18.2654 9.33602 18.5175 9.51154 18.8212C9.68706 19.1248 9.77964 19.4693 9.78 19.82V20C9.78 20.5304 9.99072 21.0391 10.3658 21.4142C10.7409 21.7893 11.2496 22 11.78 22H12.22C12.7504 22 13.2591 21.7893 13.6342 21.4142C14.0093 21.0391 14.22 20.5304 14.22 20V19.82C14.2204 19.4693 14.3129 19.1248 14.4885 18.8212C14.664 18.5175 14.9163 18.2654 15.22 18.09L15.65 17.84C15.954 17.6645 16.2989 17.5721 16.65 17.5721C17.0011 17.5721 17.346 17.6645 17.65 17.84L17.8 17.92C18.2589 18.1847 18.8042 18.2566 19.316 18.1197C19.8278 17.9828 20.2645 17.6485 20.53 17.19L20.75 16.8C21.0147 16.3411 21.0866 15.7958 20.9497 15.284C20.8128 14.7722 20.4785 14.3356 20.02 14.07L19.87 13.99C19.5648 13.8138 19.3116 13.5601 19.136 13.2545C18.9604 12.949 18.8686 12.6024 18.87 12.25V11.75C18.8686 11.3976 18.9604 11.051 19.136 10.7455C19.3116 10.4399 19.5648 10.1862 19.87 10.01L20.02 9.92C20.4785 9.65445 20.8128 9.21783 20.9497 8.706C21.0866 8.19416 21.0147 7.64893 20.75 7.19L20.53 6.81C20.2645 6.35154 19.8278 6.01717 19.316 5.88031C18.8042 5.74344 18.2589 5.81526 17.8 6.08L17.65 6.16C17.346 6.33554 17.0011 6.42795 16.65 6.42795C16.2989 6.42795 15.954 6.33554 15.65 6.16L15.22 5.91C14.9163 5.73464 14.664 5.48248 14.4885 5.17884C14.3129 4.87519 14.2204 4.53073 14.22 4.18V4C14.22 3.46957 14.0093 2.96086 13.6342 2.58579C13.2591 2.21071 12.7504 2 12.22 2Z" stroke="currentcolor" stroke-width="2" stroke-linecap="round" stroke-linejoin="round"/><path d="M12 15C13.6569 15 15 13.6569 15 12C15 10.3431 13.6569 9 12 9C10.3431 9 9 10.3431 9 12C9 13.6569 10.3431 15 12 15Z" stroke="currentcolor" stroke-width="2" stroke-linecap="round" stroke-linejoin="round"/></symbol><symbol id="plus-circle" viewBox="0 0 24 24"><path fill-rule="evenodd" clip-rule="evenodd" d="M12 3C7.02944 3 3 7.02944 3 12C3 16.9706 7.02944 21 12 21C16.9706 21 21 16.9706 21 12C21 7.02944 16.9706 3 12 3ZM1 12C1 5.92487 5.92487 1 12 1C18.0751 1 23 5.92487 23 12C23 18.0751 18.0751 23 12 23C5.92487 23 1 18.0751 1 12ZM12 7C12.5523 7 13 7.44772 13 8V11H16C16.5523 11 17 11.4477 17 12C17 12.5523 16.5523 13 16 13H13V16C13 16.5523 12.5523 17 12 17C11.4477 17 11 16.5523 11 16V13H8C7.44772 13 7 12.5523 7 12C7 11.4477 7.44772 11 8 11H11V8C11 7.44772 11.4477 7 12 7Z" fill="currentcolor"/></symbol><symbol id="minus-circle" viewBox="0 0 24 24"><path fill-rule="evenodd" clip-rule="evenodd" d="M12 3C7.02944 3 3 7.02944 3 12C3 16.9706 7.02944 21 12 21C16.9706 21 21 16.9706 21 12C21 7.02944 16.9706 3 12 3ZM1 12C1 5.92487 5.92487 1 12 1C18.0751 1 23 5.92487 23 12C23 18.0751 18.0751 23 12 23C5.92487 23 1 18.0751 1 12ZM7 12C7 11.4477 7.44772 11 8 11H16C16.5523 11 17 11.4477 17 12C17 12.5523 16.5523 13 16 13H8C7.44772 13 7 12.5523 7 12Z" fill="currentcolor"/></symbol><symbol id="circle-equal" viewBox="0 0 24 24"><path fill-rule="evenodd" clip-rule="evenodd" d="M12 3C7.02944 3 3 7.02944 3 12C3 16.9706 7.02944 21 12 21C16.9706 21 21 16.9706 21 12C21 7.02944 16.9706 3 12 3ZM1 12C1 5.92487 5.92487 1 12 1C18.0751 1 23 5.92487 23 12C23 18.0751 18.0751 23 12 23C5.92487 23 1 18.0751 1 12ZM6 10C6 9.44772 6.44772 9 7 9H17C17.5523 9 18 9.44772 18 10C18 10.5523 17.5523 11 17 11H7C6.44772 11 6 10.5523 6 10ZM6 14C6 13.4477 6.44772 13 7 13H17C17.5523 13 18 13.4477 18 14C18 14.5523 17.5523 15 17 15H7C6.44772 15 6 14.5523 6 14Z" fill="currentcolor"/></symbol><symbol id="arrow-up-circle" viewBox="0 0 24 24"><path fill-rule="evenodd" clip-rule="evenodd" d="M12 3C7.02944 3 3 7.02944 3 12C3 16.9706 7.02944 21 12 21C16.9706 21 21 16.9706 21 12C21 7.02944 16.9706 3 12 3ZM1 12C1 5.92487 5.92487 1 12 1C18.0751 1 23 5.92487 23 12C23 18.0751 18.0751 23 12 23C5.92487 23 1 18.0751 1 12ZM7.29289 11.2929L11.2929 7.29289C11.6834 6.90237 12.3166 6.90237 12.7071 7.29289L16.7071 11.2929C17.0976 11.6834 17.0976 12.3166 16.7071 12.7071C16.3166 13.0976 15.6834 13.0976 15.2929 12.7071L13 10.4142V16C13 16.5523 12.5523 17 12 17C11.4477 17 11 16.5523 11 16V10.4142L8.70711 12.7071C8.31658 13.0976 7.68342 13.0976 7.29289 12.7071C6.90237 12.3166 6.90237 11.6834 7.29289 11.2929Z" fill="currentcolor"/></symbol></defs></svg>
