<svg width="2475" height="851" viewBox="0 0 2475 851" fill="none" xmlns="http://www.w3.org/2000/svg">
<g id="logo-with-glow">
<g id="logo">
<path id="glow" fill-rule="evenodd" clip-rule="evenodd" d="M2436.76 145.555L2433.12 141.909L2429.27 138.134L2425.56 134.423L2421.91 130.713L2418.33 127.132L2414.62 123.422L2410.97 119.712L2407.26 116.066L2403.48 112.291L2399.77 108.515L2396.05 104.87L2392.47 101.289L2388.76 97.5789L2385.04 93.8684L2381.4 90.2231L2377.62 86.4475L2373.91 82.737L2370.19 79.0265L2366.61 75.4463L2362.96 71.7358L2359.25 68.0253L2355.54 64.3799L2351.76 60.6044L2348.05 56.8939L2344.33 53.1834L2340.75 49.6032L2337.04 45.9578L2333.32 42.2473C2311.57 19.8543 2282.26 7.87662 2250.21 7.87662H2138.43C2116.09 7.87662 2094.98 13.8004 2077.2 24.5412C2059.48 13.7353 2038.51 7.87662 2016.56 7.87662H1830.52C1806.94 7.87662 1784.86 14.6466 1766.36 27.0799C1727.08 9.11344 1685.33 0 1642.14 0C1617.45 0 1594.46 2.92932 1573.42 8.59267C1560.52 3.45009 1546.39 0.781152 1531.93 0.781152C1514.47 0.781152 1496.62 4.55672 1477.21 12.3031C1474.99 13.2145 1472.85 14.1258 1470.63 15.2325L1368.36 65.6168C1350.71 50.189 1331.62 37.5604 1311.24 28.0564C1271.31 9.50401 1228.84 0 1184.87 0C1160.25 0 1137.19 2.92932 1116.15 8.59267C1103.25 3.45009 1089.11 0.781152 1074.65 0.781152C1057.2 0.781152 1039.35 4.55672 1019.94 12.3031C1017.72 13.2145 1015.51 14.1258 1013.42 15.2325L930.763 55.9175C929.721 55.0061 928.614 54.0948 927.441 53.1834C883.929 17.9014 826.411 0 756.518 0C679.72 0 612.366 26.4941 556.282 78.7662C555.696 78.1152 555.11 77.5293 554.654 77.2039C554.784 77.269 554.849 77.334 554.849 77.334C554.979 77.334 553.937 76.2925 552.765 75.3161C551.918 74.4047 549.964 72.3867 548.987 71.5405C549.117 71.6707 549.182 71.6707 549.247 71.6707C549.312 71.6707 548.27 70.6292 547.163 69.7178C527.23 51.556 507.038 38.0161 485.802 28.0564C445.873 9.50401 403.402 0 359.434 0C334.812 0 311.753 2.92932 290.778 8.59267C277.815 3.45009 263.68 0.781152 249.22 0.781152C231.763 0.781152 213.915 4.55672 194.503 12.3031C192.289 13.2145 190.139 14.1258 187.99 15.2325L72.2385 72.2566C6.96981 106.172 0 159.68 0 181.162V185.784C0 216.965 13.0277 246.063 38.8225 272.297C38.8225 272.297 39.2785 272.752 39.8647 273.338V534.959C17.9131 565.489 7.81661 592.243 7.81661 619.388C7.81661 651.936 20.1278 681.49 42.4051 702.581L46.118 706.357L49.8309 710.067L53.5438 713.713L57.1264 717.358L60.9044 721.133L64.4871 724.714L68.2651 728.489L71.978 732.2L75.6909 735.91L79.3386 739.556L82.9864 743.201L86.7644 746.977L90.347 750.557L94.125 754.332L97.8379 758.043L101.551 761.753L105.199 765.399L108.846 768.979L112.624 772.82L116.207 776.4L119.985 780.176L123.698 783.886L127.411 787.531L131.059 791.242L134.641 794.822L138.484 798.663L142.067 802.243L145.845 806.019L149.558 809.664C171.249 831.992 200.496 843.97 232.609 843.97H416.3C481.243 843.97 530.292 796.319 530.292 733.176C530.292 715.47 526.514 699.717 520.717 685.786C574.521 676.282 622.528 651.09 663.891 610.6C714.894 660.464 779.577 687.153 856.375 689.887C859.827 694.379 863.605 698.675 867.774 702.581L871.552 706.357L875.265 710.067L878.913 713.713L882.561 717.358L886.339 721.133L889.921 724.714L893.699 728.489L897.412 732.2L901.125 735.845L904.773 739.556L908.355 743.201L912.199 746.977L915.781 750.557L919.559 754.332L923.272 758.043L926.985 761.688L930.633 765.399L934.215 768.979L938.059 772.82L941.641 776.4L945.419 780.176L949.067 783.886L952.78 787.531L956.493 791.242L960.075 794.822L963.919 798.663L967.501 802.243L971.279 806.019L974.927 809.664C996.618 831.992 1025.93 843.97 1058.04 843.97H1241.73C1306.68 843.97 1355.73 796.384 1355.73 733.241L1358.4 735.845L1362.04 739.556L1365.63 743.201L1369.47 746.977L1373.05 750.557L1376.83 754.332L1380.54 758.043L1384.19 761.688L1387.9 765.399L1391.49 768.979L1395.33 772.82L1398.91 776.4L1402.69 780.176L1406.4 783.886L1410.05 787.531L1413.76 791.242L1417.35 794.822L1421.19 798.663L1424.77 802.243L1428.55 806.019L1432.2 809.664C1453.89 831.992 1483.2 843.97 1515.32 843.97H1699.01C1763.95 843.97 1813 796.319 1813 733.176C1813 732.135 1813 731.028 1812.93 729.987C1813.39 730.507 1813.84 730.963 1814.3 731.354C1815.02 732.2 1815.86 732.981 1816.71 733.762C1817.36 734.413 1817.95 735.064 1818.47 735.52C1818.93 736.04 1819.38 736.496 1819.84 736.887C1820.55 737.733 1821.4 738.514 1822.25 739.295C1822.83 739.946 1823.42 740.532 1824.01 741.053C1824.46 741.509 1824.92 741.964 1825.31 742.42C1826.09 743.201 1826.94 744.047 1827.78 744.828C1828.37 745.479 1829.02 746.065 1829.54 746.586C1830 747.107 1830.46 747.562 1830.91 747.953C1831.63 748.734 1832.47 749.58 1833.39 750.427C1833.91 751.013 1834.56 751.598 1835.08 752.184L1836.38 753.421C1837.1 754.202 1837.95 755.114 1838.92 755.96C1839.44 756.546 1840.1 757.132 1840.62 757.717C1841.07 758.108 1841.53 758.629 1841.92 759.019C1842.7 759.8 1843.55 760.647 1844.46 761.493C1844.98 762.079 1845.63 762.665 1846.15 763.251C1846.61 763.706 1847.07 764.162 1847.46 764.552C1848.24 765.334 1849.08 766.18 1849.93 767.026C1850.52 767.612 1851.17 768.198 1851.69 768.784C1851.82 768.914 1851.95 768.979 1852.02 769.109C1861.59 780.957 1873.25 792.349 1886.54 802.634C1927.77 834.726 1979.36 851 2039.81 851C2137.32 851 2216.4 787.466 2274.7 662.026L2421.65 346.506C2421.85 346.115 2424.45 340.843 2434.61 328.54C2451.94 307.579 2475 274.77 2475 232.458C2475 199.91 2462.75 170.356 2440.41 149.2L2436.76 145.555Z" fill="url(#paint0_linear_0_18)"/>
<g id="logo_2">
<g id="logo_3">
<path id="drop" fill-rule="evenodd" clip-rule="evenodd" d="M2410.65 177.672C2410.06 177.02 2409.41 176.434 2408.82 175.847C2408.24 175.196 2407.59 174.609 2406.94 173.958C2406.41 173.371 2405.76 172.72 2405.11 172.134C2404.53 171.482 2403.88 170.896 2403.29 170.309C2402.7 169.658 2402.05 169.071 2401.4 168.42C2400.88 167.833 2400.23 167.182 2399.58 166.595C2398.99 165.944 2398.41 165.357 2397.76 164.706C2397.17 164.12 2396.52 163.533 2395.87 162.882C2395.28 162.295 2394.7 161.644 2394.05 161.057C2393.46 160.406 2392.87 159.819 2392.22 159.168C2391.57 158.581 2390.99 157.995 2390.33 157.343C2389.75 156.692 2389.16 156.105 2388.51 155.519C2387.86 154.868 2387.34 154.281 2386.69 153.63C2386.04 153.043 2385.45 152.392 2384.87 151.805C2384.21 151.154 2383.63 150.567 2382.98 149.981C2382.33 149.329 2381.81 148.743 2381.16 148.091C2380.5 147.505 2379.92 146.854 2379.33 146.267C2378.68 145.616 2378.1 145.029 2377.44 144.443C2376.79 143.791 2376.27 143.205 2375.62 142.553C2374.97 141.967 2374.38 141.315 2373.8 140.729C2373.15 140.077 2372.56 139.491 2371.91 138.905C2371.32 138.253 2370.74 137.667 2370.09 137.015C2369.44 136.429 2368.85 135.777 2368.26 135.191C2367.61 134.539 2367.03 133.953 2366.38 133.367C2365.79 132.715 2365.21 132.129 2364.55 131.542C2363.9 130.891 2363.32 130.239 2362.73 129.653C2362.08 129.001 2361.49 128.415 2360.84 127.828C2360.26 127.177 2359.67 126.525 2359.02 125.939C2358.37 125.287 2357.78 124.701 2357.2 124.115C2356.55 123.463 2355.96 122.877 2355.31 122.225C2354.72 121.639 2354.14 120.987 2353.49 120.401C2352.84 119.814 2352.31 119.163 2351.66 118.576C2351.01 117.925 2350.43 117.339 2349.71 116.687C2349.19 116.101 2348.6 115.449 2347.95 114.863C2347.3 114.211 2346.72 113.625 2346.06 113.038C2345.48 112.387 2344.89 111.8 2344.18 111.149C2343.66 110.562 2343.01 109.911 2342.35 109.325C2341.77 108.673 2341.25 108.087 2340.53 107.5C2339.95 106.849 2339.29 106.262 2338.71 105.676C2338.12 105.024 2337.47 104.373 2336.82 103.786C2336.23 103.135 2335.65 102.548 2335 101.962C2334.41 101.31 2333.76 100.724 2333.17 100.073C2332.59 99.4862 2331.94 98.8998 2331.29 98.2482C2330.7 97.5967 2330.11 97.0103 2329.46 96.4239C2328.88 95.7723 2328.23 95.186 2327.64 94.5344C2326.99 93.948 2326.4 93.3616 2325.75 92.7101C2325.23 92.1237 2324.58 91.4721 2323.93 90.8206L2322.11 88.9963C2321.46 88.3447 2320.87 87.7583 2320.22 87.1719C2319.63 86.5204 2319.05 85.934 2318.4 85.3476C2317.75 84.6961 2317.16 84.0445 2316.57 83.4581C2315.92 82.8066 2315.34 82.2202 2314.69 81.6338C2314.1 80.9822 2313.51 80.3959 2312.86 79.8095C2312.21 79.1579 2311.63 78.5715 2311.04 77.92C2310.39 77.2684 2309.8 76.682 2309.15 76.0956C2308.57 75.4441 2307.98 74.8577 2307.33 74.2713C2306.68 73.6198 2306.16 73.0334 2305.51 72.3818C2304.85 71.7954 2304.27 71.1439 2303.62 70.5575C2303.03 69.906 2302.45 69.3196 2301.8 68.7332C2289.04 55.5068 2270.94 47.8186 2249.65 47.8186H2138C2111.5 47.8186 2089.76 59.807 2077.45 78.8321C2077.39 78.767 2077.32 78.767 2077.26 78.7018C2076.8 78.2458 2076.54 77.6594 2076.02 77.2033C2075.82 77.073 2075.63 77.0078 2075.43 76.8124C2074.98 76.4214 2074.65 75.835 2074.2 75.3789C2074 75.2486 2073.74 75.1835 2073.55 74.988C2073.09 74.5319 2072.83 74.0107 2072.37 73.5546C2072.18 73.3592 2071.92 73.294 2071.72 73.1637C2071.27 72.7076 2071.01 72.1212 2070.49 71.7303C2070.29 71.5348 2070.1 71.4697 2069.9 71.3394C2069.44 70.8833 2069.12 70.2969 2068.66 69.8408C2068.47 69.6453 2068.21 69.6453 2068.01 69.4499C2067.56 69.059 2067.3 68.4074 2066.84 68.0165C2066.65 67.821 2066.38 67.7559 2066.19 67.6256C2065.73 67.1695 2065.47 66.5831 2064.95 66.1922C2052.06 54.2037 2035.07 47.8186 2016.13 47.8186H1830.19C1805 47.8186 1785.08 59.2206 1772.45 76.4866C1765.29 71.9258 1757.99 67.6256 1750.31 64.042C1716.13 48.0792 1679.61 40 1641.92 40C1614.77 40 1590.55 43.9744 1569.52 51.8581C1568.81 51.4672 1568.16 51.0111 1567.5 50.555C1557.09 44.1047 1544.78 40.6515 1531.76 40.6515C1519.85 40.6515 1507.15 43.4532 1492.9 49.1868C1491.66 49.708 1490.42 50.2293 1489.25 50.8157L1373.56 107.891C1368.62 110.497 1365.62 113.494 1361.65 116.361C1341.73 93.6874 1318.94 76.0305 1293.29 64.042C1259.11 48.0792 1222.59 40 1184.9 40C1157.75 40 1133.53 43.9744 1112.5 51.8581C1111.85 51.4672 1111.14 51.0111 1110.49 50.555C1100.07 44.1047 1087.76 40.6515 1074.74 40.6515C1062.83 40.6515 1050.14 43.4532 1035.88 49.1868C1034.64 49.708 1033.4 50.2293 1032.23 50.8157L922.795 104.764C922.664 104.633 922.469 104.503 922.339 104.373C921.753 103.721 921.102 103.135 920.516 102.548C919.93 101.897 919.214 101.31 918.628 100.659C918.042 100.073 917.391 99.421 916.805 98.8346C916.219 98.1831 915.568 97.5967 914.982 97.0103C914.396 96.3587 913.68 95.7723 913.16 95.1208C909.514 91.2767 905.608 87.4326 900.985 83.6536C865.179 54.6598 816.743 40 756.783 40C690.769 40 632.893 62.8693 584.848 108.021C574.887 117.404 566.489 127.633 558.612 138.188C558.546 138.123 558.481 138.058 558.416 137.993C557.765 137.406 557.244 136.689 556.593 136.103C555.942 135.582 555.356 134.865 554.77 134.279C554.119 133.692 553.534 132.976 552.883 132.454C552.231 131.868 551.711 131.151 551.06 130.63C550.409 130.044 549.823 129.327 549.172 128.741C548.521 128.154 548 127.437 547.349 126.916C546.698 126.33 546.112 125.613 545.526 125.027C544.875 124.506 544.289 123.789 543.638 123.202C543.052 122.616 542.466 121.964 541.815 121.378C541.164 120.792 540.578 120.075 539.992 119.489C539.341 118.902 538.755 118.251 538.169 117.664C537.518 117.078 536.932 116.361 536.281 115.775C535.63 115.254 535.044 114.537 534.458 113.95C533.807 113.429 533.222 112.647 532.571 112.126C531.985 111.54 531.399 110.823 530.748 110.302C530.097 109.715 529.511 108.999 528.925 108.477C528.274 107.826 527.688 107.109 527.037 106.588C526.451 106.002 525.865 105.285 525.214 104.764C524.563 104.177 524.042 103.461 523.326 102.874C522.675 102.288 522.154 101.636 521.503 101.05C520.852 100.463 520.331 99.7468 519.68 99.1604C519.029 98.6391 518.508 97.9224 517.792 97.3361C502.689 83.6536 486.218 72.3818 468.314 64.042C434.136 48.0792 397.678 40 359.919 40C332.771 40 308.553 43.9744 287.525 51.8581C286.874 51.4672 286.158 51.0111 285.507 50.555C275.09 44.1047 262.786 40.6515 249.765 40.6515C237.852 40.6515 225.157 43.4532 210.899 49.1868C209.662 49.708 208.425 50.2293 207.254 50.8157L91.5664 107.891C49.1847 129.979 43 161.839 43 178.91V183.536C43 207.903 56.1507 226.668 69.692 240.481C70.343 241.197 70.929 241.719 71.58 242.37C72.1659 243.022 72.7518 243.543 73.4029 244.195C74.0539 244.846 74.6398 245.432 75.2257 246.084C75.8767 246.736 76.4627 247.257 77.0486 247.908C77.7647 248.56 78.2855 249.081 79.0017 249.733C79.5876 250.384 80.1735 250.971 80.7594 251.557C81.4105 252.274 81.9964 252.795 82.6474 253.446C82.7125 253.512 82.7776 253.642 82.8427 253.707V543.189C82.8427 544.948 81.3453 549.053 77.1137 554.721C58.9501 579.089 50.8123 598.44 50.8123 617.465C50.8123 639.422 58.885 657.47 72.1659 670.11C72.8169 670.697 73.4029 671.348 73.9888 671.935C74.6398 672.586 75.2257 673.172 75.8767 673.759C76.4627 674.41 77.0486 674.997 77.6996 675.648C78.3506 676.235 78.9366 676.886 79.5225 677.473C80.1735 678.124 80.7594 678.711 81.4105 679.362C81.9964 679.948 82.5823 680.535 83.2333 681.186C83.8843 681.773 84.4703 682.424 85.0562 683.011L86.9442 684.9C87.5301 685.487 88.116 686.138 88.767 686.725C89.4181 687.376 90.004 687.963 90.655 688.549C91.2409 689.201 91.8268 689.787 92.4779 690.438C93.0638 691.025 93.7148 691.676 94.3007 692.263C94.9518 692.914 95.5377 693.501 96.1887 694.087C96.7746 694.739 97.3606 695.325 98.0116 695.977C98.5975 696.563 99.2485 697.215 99.8344 697.801C100.485 698.452 101.071 699.039 101.722 699.625C102.308 700.277 102.894 700.863 103.545 701.515C104.131 702.101 104.782 702.753 105.368 703.339C106.019 703.991 106.605 704.577 107.256 705.163C107.842 705.815 108.428 706.401 109.079 707.053C109.665 707.639 110.316 708.291 110.902 708.877C111.553 709.529 112.139 710.115 112.79 710.701C113.376 711.353 113.962 711.939 114.613 712.526C115.264 713.177 115.785 713.829 116.501 714.415C117.087 715.067 117.673 715.653 118.324 716.24C118.909 716.891 119.56 717.543 120.146 718.129C120.797 718.716 121.318 719.367 122.034 719.953C122.62 720.605 123.206 721.191 123.857 721.843C124.443 722.429 125.094 723.081 125.68 723.667C126.331 724.319 126.917 724.905 127.568 725.492C128.154 726.143 128.74 726.73 129.391 727.381C129.977 727.967 130.628 728.619 131.214 729.205C131.865 729.857 132.451 730.443 133.102 731.03C133.688 731.681 134.274 732.268 134.925 732.854C135.511 733.506 136.097 734.157 136.748 734.744C137.399 735.395 137.984 735.982 138.636 736.568C139.221 737.219 139.807 737.806 140.458 738.392C141.109 739.044 141.63 739.63 142.281 740.282C142.932 740.933 143.518 741.52 144.169 742.106C144.755 742.758 145.341 743.344 145.992 743.995C146.643 744.582 147.164 745.168 147.815 745.82C148.466 746.406 149.052 747.058 149.703 747.709C150.289 748.296 150.875 748.882 151.526 749.534C152.177 750.12 152.698 750.706 153.349 751.358C154 752.01 154.586 752.596 155.237 753.182C155.823 753.834 156.408 754.42 157.06 755.072C157.711 755.723 158.296 756.31 158.947 756.896C159.533 757.548 160.119 758.134 160.77 758.72C161.356 759.372 161.942 760.024 162.593 760.61C163.244 761.261 163.83 761.848 164.481 762.434C165.067 763.086 165.653 763.672 166.304 764.259C166.89 764.91 167.476 765.497 168.127 766.148C168.713 766.8 169.364 767.386 170.015 767.972C170.601 768.624 171.187 769.21 171.838 769.797C172.424 770.448 173.01 771.035 173.661 771.686C174.247 772.273 174.898 772.924 175.484 773.511C176.135 774.162 176.72 774.748 177.371 775.335C177.957 775.986 178.543 776.573 179.194 777.224C179.845 777.811 180.431 778.462 181.082 779.049C193.842 792.21 211.941 799.963 233.164 799.963H416.753C458.224 799.963 488.366 771.165 488.366 731.421C488.366 702.688 473.197 681.056 458.289 663.269C453.08 656.949 452.429 653.821 452.429 653.756V645.286C458.354 645.742 464.408 645.938 470.658 645.938C535.37 645.938 591.749 622.026 638.167 574.919C647.021 565.928 654.312 556.09 661.408 545.991C661.473 546.056 661.539 546.186 661.604 546.251C661.929 546.642 662.32 546.838 662.645 547.098C662.971 547.424 663.166 547.815 663.492 548.141C663.752 548.467 664.208 548.662 664.533 548.988C664.794 549.314 664.989 549.639 665.314 549.965C665.64 550.291 666.031 550.486 666.356 550.812C666.617 551.138 666.812 551.529 667.137 551.855C667.463 552.18 667.853 552.311 668.179 552.702C668.504 552.962 668.7 553.353 669.025 553.679C669.286 554.005 669.741 554.2 670.067 554.526C670.327 554.852 670.523 555.177 670.848 555.503C671.174 555.829 671.564 556.024 671.89 556.35C672.15 556.676 672.411 557.067 672.671 557.393C672.997 557.718 673.387 557.849 673.713 558.24C674.038 558.5 674.234 558.891 674.559 559.217C674.819 559.543 675.275 559.738 675.601 560.064C675.926 560.39 676.056 560.716 676.382 561.041C676.707 561.367 677.098 561.628 677.424 561.888C677.749 562.214 677.944 562.605 678.205 562.931C678.53 563.191 678.921 563.387 679.246 563.713C679.572 564.038 679.767 564.429 680.028 564.755C680.418 565.081 680.809 565.276 681.134 565.602C681.395 565.928 681.59 566.254 681.916 566.58C682.241 566.905 682.632 567.101 682.957 567.427C683.283 567.752 683.478 568.143 683.738 568.469C684.064 568.73 684.455 568.99 684.78 569.316C685.106 569.642 685.301 569.968 685.561 570.293C685.952 570.619 686.343 570.815 686.668 571.14C686.928 571.466 687.124 571.792 687.449 572.118C687.775 572.443 688.165 572.639 688.491 572.965C688.816 573.29 689.012 573.681 689.337 574.007C689.598 574.268 689.988 574.528 690.379 574.854C690.639 575.18 690.835 575.506 691.16 575.831C737.318 622.352 797.472 645.938 869.866 645.938C873.707 645.938 877.093 645.221 880.869 645.091C884.514 654.864 889.983 663.269 897.144 670.11C897.795 670.697 898.381 671.348 898.967 671.935C899.618 672.586 900.204 673.172 900.855 673.759C901.441 674.41 902.027 674.997 902.678 675.648C903.329 676.235 903.85 676.886 904.501 677.473C905.152 678.124 905.738 678.711 906.389 679.362C906.975 679.948 907.561 680.535 908.212 681.186C908.863 681.773 909.384 682.424 910.035 683.011L911.923 684.9C912.509 685.487 913.094 686.138 913.745 686.725C914.396 687.376 914.982 687.963 915.633 688.549C916.219 689.201 916.805 689.787 917.456 690.438C918.042 691.025 918.693 691.676 919.279 692.263C919.93 692.914 920.516 693.501 921.167 694.087C921.753 694.739 922.339 695.325 922.99 695.977C923.576 696.563 924.162 697.215 924.813 697.801C925.464 698.452 926.05 699.039 926.701 699.625C927.287 700.277 927.873 700.863 928.524 701.515C929.11 702.101 929.696 702.753 930.347 703.339C930.932 703.991 931.584 704.577 932.235 705.163C932.82 705.815 933.406 706.401 934.057 707.053C934.643 707.639 935.229 708.291 935.88 708.877C936.531 709.529 937.117 710.115 937.703 710.701C938.354 711.353 938.94 711.939 939.591 712.526C940.242 713.177 940.763 713.829 941.479 714.415C942.065 715.067 942.651 715.653 943.237 716.24C943.888 716.891 944.474 717.543 945.125 718.129C945.776 718.716 946.297 719.367 947.013 719.953C947.599 720.605 948.185 721.191 948.836 721.843C949.422 722.429 950.008 723.081 950.659 723.667C951.245 724.319 951.896 724.905 952.547 725.492C953.132 726.143 953.718 726.73 954.369 727.381C954.955 727.967 955.541 728.619 956.192 729.205C956.778 729.857 957.429 730.443 958.08 731.03C958.666 731.681 959.252 732.268 959.903 732.854C960.489 733.506 961.075 734.157 961.726 734.744C962.312 735.395 962.963 735.982 963.549 736.568C964.2 737.219 964.786 737.806 965.437 738.392C966.088 739.044 966.609 739.63 967.26 740.282C967.911 740.933 968.497 741.52 969.083 742.106C969.734 742.758 970.32 743.344 970.971 743.995C971.622 744.582 972.142 745.168 972.793 745.82C973.444 746.406 974.03 747.058 974.616 747.709C975.267 748.296 975.853 748.882 976.504 749.534C977.09 750.12 977.676 750.706 978.327 751.358C978.978 752.01 979.564 752.596 980.215 753.182C980.801 753.834 981.387 754.42 982.038 755.072C982.624 755.723 983.275 756.31 983.861 756.896C984.512 757.548 985.098 758.134 985.749 758.72C986.335 759.372 986.921 760.024 987.572 760.61C988.158 761.261 988.809 761.848 989.395 762.434C990.046 763.086 990.631 763.672 991.282 764.259C991.868 764.91 992.454 765.497 993.105 766.148C993.691 766.8 994.342 767.386 994.928 767.972C995.579 768.624 996.165 769.21 996.816 769.797C997.402 770.448 997.988 771.035 998.639 771.686C999.225 772.273 999.876 772.924 1000.46 773.511C1001.11 774.162 1001.7 774.748 1002.35 775.335C1002.94 775.986 1003.52 776.573 1004.17 777.224C1004.82 777.811 1005.41 778.462 1006.06 779.049C1018.82 792.21 1036.85 799.963 1058.14 799.963H1241.73C1283.2 799.963 1313.34 771.165 1313.34 731.421C1313.34 702.688 1298.18 681.056 1283.27 663.269C1278.06 656.949 1277.41 653.821 1277.41 653.756V645.286C1283.33 645.742 1289.39 645.938 1295.64 645.938C1310.02 645.938 1323.76 644.374 1337.3 641.963C1340.88 652.974 1346.29 662.617 1354.16 670.11C1354.75 670.697 1355.4 671.348 1355.99 671.935C1356.64 672.586 1357.22 673.172 1357.87 673.759C1358.46 674.41 1359.05 674.997 1359.7 675.648C1360.35 676.235 1360.87 676.886 1361.52 677.473C1362.17 678.124 1362.76 678.711 1363.41 679.362C1363.99 679.948 1364.58 680.535 1365.23 681.186C1365.88 681.773 1366.4 682.424 1367.12 683.011C1367.7 683.662 1368.29 684.249 1368.94 684.9C1369.53 685.487 1370.11 686.138 1370.76 686.725C1371.42 687.376 1372 687.963 1372.65 688.549C1373.24 689.201 1373.82 689.787 1374.48 690.438C1375.06 691.025 1375.71 691.676 1376.3 692.263C1376.95 692.914 1377.54 693.501 1378.19 694.087C1378.77 694.739 1379.36 695.325 1380.01 695.977C1380.6 696.563 1381.18 697.215 1381.83 697.801C1382.48 698.452 1383.07 699.039 1383.72 699.625C1384.31 700.277 1384.89 700.863 1385.54 701.515C1386.19 702.101 1386.71 702.753 1387.37 703.339C1388.02 703.991 1388.6 704.577 1389.25 705.163C1389.84 705.815 1390.43 706.401 1391.08 707.053C1391.73 707.639 1392.25 708.291 1392.9 708.877C1393.55 709.529 1394.14 710.115 1394.79 710.701C1395.37 711.353 1395.96 711.939 1396.61 712.526C1397.26 713.177 1397.78 713.829 1398.5 714.415C1399.08 715.067 1399.67 715.653 1400.26 716.24C1400.91 716.891 1401.49 717.543 1402.14 718.129C1402.8 718.716 1403.32 719.367 1403.97 719.953C1404.62 720.605 1405.2 721.191 1405.85 721.843C1406.44 722.429 1407.03 723.081 1407.68 723.667C1408.33 724.319 1408.85 724.905 1409.57 725.492C1410.15 726.143 1410.74 726.73 1411.39 727.381C1411.97 727.967 1412.56 728.619 1413.21 729.205C1413.8 729.857 1414.45 730.443 1415.1 731.03C1415.69 731.681 1416.27 732.268 1416.92 732.854C1417.51 733.506 1418.09 734.157 1418.75 734.744C1419.33 735.395 1419.98 735.982 1420.57 736.568C1421.22 737.219 1421.81 737.806 1422.46 738.392C1423.04 739.044 1423.63 739.63 1424.28 740.282C1424.93 740.933 1425.52 741.52 1426.1 742.106C1426.75 742.758 1427.34 743.344 1427.99 743.995C1428.64 744.582 1429.16 745.168 1429.81 745.82C1430.46 746.406 1431.05 747.058 1431.64 747.709C1432.29 748.296 1432.87 748.882 1433.52 749.534C1434.11 750.12 1434.7 750.706 1435.41 751.358C1436 752.01 1436.58 752.596 1437.23 753.182C1437.82 753.834 1438.41 754.42 1439.06 755.072C1439.64 755.723 1440.29 756.31 1440.88 756.896C1441.53 757.548 1442.12 758.134 1442.77 758.72C1443.35 759.372 1443.94 760.024 1444.59 760.61C1445.18 761.261 1445.83 761.848 1446.41 762.434C1447.06 763.086 1447.65 763.672 1448.3 764.259C1448.89 764.91 1449.47 765.497 1450.12 766.148C1450.71 766.8 1451.36 767.386 1451.95 767.972C1452.6 768.624 1453.18 769.21 1453.84 769.797C1454.42 770.448 1455.01 771.035 1455.66 771.686C1456.24 772.273 1456.9 772.924 1457.48 773.511C1458.13 774.162 1458.72 774.748 1459.37 775.335C1459.96 775.986 1460.54 776.573 1461.19 777.224C1461.84 777.811 1462.43 778.462 1463.01 779.049C1475.84 792.21 1493.87 799.963 1515.16 799.963H1698.75C1740.22 799.963 1770.36 771.165 1770.36 731.421C1770.36 702.688 1755.19 681.056 1740.29 663.269C1735.08 656.949 1734.43 653.821 1734.43 653.756V645.286C1740.35 645.742 1746.41 645.938 1752.66 645.938C1764.57 645.938 1776.03 644.765 1787.29 643.006C1787.36 643.071 1787.36 643.071 1787.42 643.136C1787.94 643.723 1788.72 644.374 1789.24 644.961C1789.76 645.612 1790.61 646.198 1791.07 646.85C1791.59 647.436 1792.43 648.023 1792.95 648.674C1793.48 649.261 1794.26 649.912 1794.78 650.499C1795.3 651.15 1796.14 651.737 1796.6 652.388C1797.12 652.974 1797.97 653.561 1798.49 654.212C1798.94 654.799 1799.79 655.45 1800.31 656.037C1800.83 656.688 1801.68 657.275 1802.13 657.926C1802.65 658.513 1803.5 659.099 1804.02 659.751C1804.48 660.402 1805.39 660.923 1805.84 661.575C1806.37 662.227 1807.21 662.813 1807.67 663.464C1808.19 664.051 1809.03 664.637 1809.56 665.289C1810.01 665.94 1810.92 666.461 1811.38 667.113C1811.9 667.765 1812.75 668.351 1813.27 669.003C1813.72 669.589 1814.57 670.175 1815.09 670.827C1815.54 671.478 1816.46 672 1816.91 672.651C1817.43 673.303 1818.28 673.889 1818.8 674.541C1819.26 675.127 1820.1 675.779 1820.62 676.365C1821.08 677.017 1821.99 677.603 1822.45 678.255C1822.97 678.841 1823.81 679.427 1824.33 680.014C1824.79 680.665 1825.64 681.252 1826.16 681.903C1826.68 682.555 1827.46 683.141 1827.98 683.793C1828.5 684.379 1829.35 684.965 1829.87 685.617C1830.32 686.203 1831.23 686.79 1831.69 687.441C1832.21 688.028 1832.99 688.679 1833.51 689.266C1834.03 689.917 1834.88 690.504 1835.4 691.155C1835.86 691.807 1836.77 692.328 1837.22 692.979C1837.74 693.566 1838.53 694.217 1839.11 694.804C1839.57 695.455 1840.41 696.042 1840.93 696.693C1841.39 697.345 1842.3 697.866 1842.76 698.518C1843.28 699.169 1844.12 699.756 1844.65 700.342C1845.1 700.993 1845.95 701.58 1846.47 702.231C1846.92 702.883 1847.77 703.469 1848.29 704.121C1848.81 704.707 1849.66 705.294 1850.18 705.88C1850.64 706.532 1851.48 707.118 1852 707.77C1852.46 708.421 1853.3 709.008 1853.83 709.594C1854.35 710.245 1855.19 710.832 1855.71 711.418C1856.17 712.07 1857.02 712.656 1857.54 713.308C1858.06 713.894 1858.84 714.546 1859.36 715.132C1859.88 715.784 1860.73 716.37 1861.25 717.021C1861.7 717.608 1862.55 718.194 1863.07 718.846C1863.59 719.432 1864.37 720.084 1864.89 720.67C1865.41 721.322 1866.26 721.908 1866.78 722.56C1867.24 723.211 1868.08 723.732 1868.6 724.384C1869.12 725.036 1869.97 725.622 1870.49 726.208C1870.95 726.86 1871.79 727.446 1872.25 728.098C1872.77 728.749 1873.62 729.271 1874.14 729.922C1874.66 730.574 1875.5 731.16 1875.96 731.746C1876.48 732.398 1877.33 732.984 1877.85 733.636C1878.3 734.222 1879.15 734.809 1879.67 735.46C1880.19 736.112 1881.04 736.698 1881.56 737.285C1882.01 737.936 1882.86 738.523 1883.38 739.174C1890.93 748.817 1900.37 758.329 1912.16 767.516C1945.81 793.708 1988.65 807 2039.37 807C2118.99 807 2185 751.619 2235.78 642.354L2382.65 326.55C2384.15 323.162 2388.45 315.018 2401.34 299.446C2414.55 283.483 2432 258.985 2432 230.251C2432 208.359 2423.93 190.247 2410.65 177.672Z" fill="black"/>
<path id="peppy" fill-rule="evenodd" clip-rule="evenodd" d="M305.435 413.538C316.878 433.837 330.141 443.987 345.225 443.987C374.353 443.987 388.916 416.921 388.916 362.791C388.916 333.123 387.226 302.414 383.845 270.665C380.464 238.915 373.312 208.596 362.389 179.709C351.467 150.822 337.943 136.379 321.819 136.379C299.453 136.379 288.27 153.555 288.27 187.907V333.123C288.27 366.434 293.992 393.239 305.435 413.538ZM358.488 95C388.656 95 417.394 101.376 444.701 114.128C472.008 126.88 495.284 148.09 514.529 177.757C533.774 207.425 543.396 242.818 543.396 283.937C543.396 344.313 525.192 392.979 488.782 429.934C452.373 466.888 408.941 485.366 358.488 485.366C330.401 485.366 306.995 479.9 288.27 468.97V545.482C288.27 559.535 294.252 573.718 306.215 588.032C318.178 602.345 324.16 612.885 324.16 619.651V622.774C324.16 633.704 317.658 639.17 304.654 639.17H121.307C108.304 639.17 101.802 633.704 101.802 622.774V619.651C101.802 612.885 107.133 602.345 117.796 588.032C128.459 573.718 133.79 559.535 133.79 545.482V251.146C133.79 238.134 127.159 225.903 113.895 214.452C100.632 203.001 94 193.632 94 186.346V181.661C94 172.292 100.502 164.225 113.505 157.458L228.975 100.465C241.978 95.2602 251.211 94.3494 256.672 97.7326C262.133 101.116 264.864 107.492 264.864 116.86V132.475C284.109 107.492 315.317 95 358.488 95ZM700.889 200.209C700.889 183.064 704.669 168.257 712.228 155.788C719.788 143.318 729.824 137.084 742.337 137.084C750.678 137.084 757.977 139.941 764.233 145.656C770.49 151.371 775.052 158.645 777.919 167.478C780.786 176.31 782.742 184.493 783.784 192.026C784.827 199.56 785.348 206.704 785.348 213.458C785.348 232.162 778.571 246.45 765.016 256.321L714.965 292.949C705.581 266.452 700.889 235.539 700.889 200.209ZM904.999 345.164C897.7 342.567 891.183 344.385 885.448 350.62C868.765 367.245 845.565 375.558 815.848 375.558C784.045 375.558 757.977 362.569 737.644 336.592L879.192 244.631C896.918 233.201 905.781 217.874 905.781 198.651C905.781 172.154 892.617 148.254 866.289 126.952C839.96 105.651 802.814 95 754.849 95C702.192 95 656.704 112.925 618.385 148.774C580.065 184.623 560.905 230.863 560.905 287.494C560.905 346.204 579.022 393.743 615.256 430.111C651.491 466.48 698.803 484.664 757.195 484.664C804.117 484.664 842.306 470.766 871.763 442.97C901.219 415.174 915.948 388.287 915.948 362.31C915.948 353.477 912.298 347.762 904.999 345.164ZM1131.27 413.538C1142.72 433.837 1155.98 443.987 1171.06 443.987C1200.19 443.987 1214.75 416.921 1214.75 362.791C1214.75 333.123 1213.06 302.414 1209.68 270.665C1206.3 238.915 1199.15 208.596 1188.23 179.709C1177.31 150.822 1163.78 136.379 1147.66 136.379C1125.29 136.379 1114.11 153.555 1114.11 187.907V333.123C1114.11 366.434 1119.83 393.239 1131.27 413.538ZM1184.33 95C1214.49 95 1243.23 101.376 1270.54 114.128C1297.85 126.88 1321.12 148.09 1340.37 177.757C1359.61 207.425 1369.23 242.818 1369.23 283.937C1369.23 344.313 1351.03 392.979 1314.62 429.934C1278.21 466.888 1234.78 485.366 1184.33 485.366C1156.24 485.366 1132.83 479.9 1114.11 468.97V545.482C1114.11 559.535 1120.09 573.718 1132.05 588.032C1144.02 602.345 1150 612.885 1150 619.651V622.774C1150 633.704 1143.5 639.17 1130.49 639.17H947.146C934.142 639.17 927.641 633.704 927.641 622.774V619.651C927.641 612.885 932.972 602.345 943.635 588.032C954.297 573.718 959.629 559.535 959.629 545.482V251.146C959.629 238.134 952.997 225.903 939.734 214.452C926.47 203.001 919.839 193.632 919.839 186.346V181.661C919.839 172.292 926.34 164.225 939.344 157.458L1054.81 100.465C1067.82 95.2602 1077.05 94.3494 1082.51 97.7326C1087.97 101.116 1090.7 107.492 1090.7 116.86V132.475C1109.95 107.492 1141.16 95 1184.33 95ZM1629.21 443.987C1614.13 443.987 1600.87 433.837 1589.42 413.538C1577.98 393.239 1572.26 366.434 1572.26 333.123V187.907C1572.26 153.555 1583.44 136.379 1605.81 136.379C1621.93 136.379 1635.46 150.822 1646.38 179.709C1657.3 208.596 1664.45 238.915 1667.83 270.665C1671.22 302.414 1672.91 333.123 1672.91 362.791C1672.91 416.921 1658.34 443.987 1629.21 443.987ZM1798.52 177.757C1779.27 148.09 1756 126.88 1728.69 114.128C1701.38 101.376 1672.65 95 1642.48 95C1599.31 95 1568.1 107.492 1548.85 132.475V116.86C1548.85 107.492 1546.12 101.116 1540.66 97.7326C1535.2 94.3494 1525.97 95.2602 1512.96 100.465L1397.49 157.458C1384.49 164.225 1377.99 172.292 1377.99 181.661V186.346C1377.99 193.632 1384.62 203.001 1397.88 214.452C1411.15 225.903 1417.78 238.134 1417.78 251.146V545.482C1417.78 559.535 1412.45 573.718 1401.79 588.032C1391.12 602.345 1385.79 612.885 1385.79 619.651V622.774C1385.79 633.704 1392.29 639.17 1405.3 639.17H1588.64C1601.65 639.17 1608.15 633.704 1608.15 622.774V619.651C1608.15 612.885 1602.17 602.345 1590.2 588.032C1578.24 573.718 1572.26 559.535 1572.26 545.482V468.97C1590.98 479.9 1614.39 485.366 1642.48 485.366C1692.93 485.366 1736.36 466.888 1772.77 429.934C1809.18 392.979 1827.39 344.313 1827.39 283.937C1827.39 242.818 1817.76 207.425 1798.52 177.757ZM2249.46 100.83H2137.71C2124.68 100.83 2118.17 106.564 2118.17 118.031V121.159C2118.17 126.892 2123.32 134.059 2133.41 142.66C2143.57 151.26 2151.51 159.86 2157.25 168.461C2162.98 177.061 2162.72 191.525 2156.46 211.854L2093.94 365.097L2024.46 196.998C2018.73 179.798 2016.64 168.07 2018.2 161.815C2019.77 155.56 2022.89 148.654 2027.58 141.096C2032.27 133.538 2034.62 126.892 2034.62 121.159V118.031C2034.62 112.819 2032.92 108.649 2029.54 105.522C2026.15 102.394 2021.53 100.83 2015.86 100.83H1829.86C1816.84 100.83 1810.33 106.303 1810.33 117.249V120.377C1810.33 129.238 1816.58 141.356 1829.08 156.733C1841.59 172.109 1850.44 184.749 1855.65 194.653L2016.64 504.266C1990.53 567.792 1967.93 599.653 1948.65 599.653C1941.88 599.653 1936.54 593.789 1932.63 582.061C1928.72 570.333 1925.6 557.432 1923.25 543.359C1920.91 529.286 1914.33 516.385 1903.71 504.657C1893.03 492.93 1877.99 487.066 1858.78 487.066C1839.5 487.066 1824.26 492.669 1813.06 503.876C1801.86 515.082 1796.26 530.068 1796.26 548.832C1796.26 574.894 1808.5 597.437 1832.99 616.462C1857.41 635.487 1889.26 645 1928.33 645C1986.16 645 2035.85 600.174 2077.53 510.521L2224.45 194.653C2229.14 184.228 2237.74 171.458 2250.31 156.342C2262.75 141.226 2269 129.238 2269 120.377V117.249C2269 106.303 2262.49 100.83 2249.46 100.83Z" fill="white"/>
</g>
</g>
</g>
</g>
<defs>
<linearGradient id="paint0_linear_0_18" x1="0" y1="851" x2="2475" y2="851" gradientUnits="userSpaceOnUse">
<stop stop-color="#FF00CC"/>
<stop offset="0.704761" stop-color="#FFFF00"/>
<stop offset="1" stop-color="#B0FF31"/>
</linearGradient>
</defs>
</svg>
