<svg width="512" height="512" viewBox="0 0 512 512" fill="none" xmlns="http://www.w3.org/2000/svg">
<path d="M197.184 451.072C197.184 456.474 192.839 460.8 187.442 460.8H89.7675C76.7442 460.8 76.7442 441.267 89.7675 441.267H187.442C192.852 441.267 197.184 445.67 197.184 451.072ZM187.442 402.266H167.882C154.858 402.266 154.858 421.798 167.882 421.798H187.442C200.466 421.798 200.466 402.266 187.442 402.266ZM89.7675 421.798H128.825C141.848 421.798 141.848 402.266 128.825 402.266H89.7675C76.7442 402.266 76.7442 421.798 89.7675 421.798ZM187.442 363.264H89.7675C76.7442 363.264 76.7442 382.797 89.7675 382.797H187.442C200.466 382.797 200.466 363.264 187.442 363.264ZM324.161 324.262H148.372C135.349 324.262 135.349 343.795 148.372 343.795H324.161C337.185 343.795 337.185 324.262 324.161 324.262ZM89.7675 343.795H109.328C122.351 343.795 122.351 324.262 109.328 324.262H89.7675C76.7442 324.262 76.7442 343.795 89.7675 343.795ZM382.779 285.261H324.161C311.138 285.261 311.138 304.73 324.161 304.73H382.779C395.802 304.73 395.802 285.261 382.779 285.261ZM207.003 304.73H285.117C298.14 304.73 298.14 285.261 285.117 285.261H207.003C193.98 285.261 193.98 304.73 207.003 304.73ZM89.7675 304.73H167.882C180.905 304.73 180.905 285.261 167.882 285.261H89.7675C76.7442 285.261 76.7442 304.73 89.7675 304.73ZM402.276 246.272H246.047C233.024 246.272 233.024 265.741 246.047 265.741H402.276C415.299 265.741 415.299 246.272 402.276 246.272ZM216.745 256C216.745 250.598 212.335 246.272 207.003 246.272H148.385C135.362 246.272 135.362 265.741 148.385 265.741H207.003C212.348 265.741 216.745 261.389 216.745 256ZM89.7675 265.728H109.328C122.351 265.728 122.351 246.259 109.328 246.259H89.7675C76.7442 246.259 76.7442 265.728 89.7675 265.728ZM421.836 207.27H324.161C311.138 207.27 311.138 226.739 324.161 226.739H421.836C434.859 226.739 434.859 207.27 421.836 207.27ZM89.7675 226.739H187.442C200.466 226.739 200.466 207.27 187.442 207.27H89.7675C76.7442 207.27 76.7442 226.739 89.7675 226.739ZM314.42 177.997C314.42 183.334 318.765 187.725 324.161 187.725H421.836C434.859 187.725 434.859 168.192 421.836 168.192H324.161C318.752 168.192 314.42 172.595 314.42 177.997ZM167.882 168.205C154.858 168.205 154.858 187.738 167.882 187.738H187.442C200.466 187.738 200.466 168.205 187.442 168.205H167.882ZM89.7675 187.738H128.825C141.848 187.738 141.848 168.205 128.825 168.205H89.7675C76.7442 168.205 76.7442 187.738 89.7675 187.738ZM372.973 138.995C372.973 144.333 377.383 148.723 382.792 148.723H402.288C415.312 148.723 415.312 129.19 402.288 129.19H382.792C377.383 129.19 373.05 133.594 373.05 138.995H372.973ZM353.477 138.995C353.477 133.594 349.067 129.19 343.735 129.19H265.556C252.533 129.19 252.533 148.723 265.556 148.723H343.671C349.08 148.723 353.477 144.32 353.477 138.995ZM89.7675 148.736H226.499C239.523 148.736 239.523 129.203 226.499 129.203H89.7675C76.7442 129.203 76.7442 148.736 89.7675 148.736ZM177.688 99.9296C177.688 105.331 182.033 109.734 187.429 109.734H382.779C395.802 109.734 395.802 90.2016 382.779 90.2016H187.429C182.02 90.2016 177.688 94.6048 177.688 99.9296ZM89.7675 109.734H148.385C161.408 109.734 161.408 90.2016 148.385 90.2016H89.7675C76.7442 90.2016 76.7442 109.734 89.7675 109.734ZM89.7675 70.7328H324.161C337.185 70.7328 337.185 51.2 324.161 51.2H89.7675C76.7442 51.2 76.7442 70.7328 89.7675 70.7328Z" fill="black"/>
</svg>
