<svg width="512" height="512" viewBox="0 0 512 512" fill="none" xmlns="http://www.w3.org/2000/svg">
<path d="M228.928 355.312C237.728 355.712 246.72 356 255.824 356C265.024 356 274.112 355.808 283.024 355.312C274.112 366.832 265.312 377.024 256 386.736L256.128 386.608C246.864 377.008 237.968 366.8 229.584 356.176L228.928 355.312ZM137.76 342.512C155.088 346.912 176.224 350.656 197.792 352.96L199.888 353.136C213.088 371.264 226.432 387.216 240.752 402.224L240.576 402.032C219.6 425.44 191.296 441.888 159.28 447.792L158.4 447.92C158.336 447.92 158.272 447.92 158.208 447.92C154.24 447.92 150.496 446.944 147.216 445.216L147.344 445.28C134.032 437.68 128.256 408.608 132.752 371.248C133.824 362.048 135.584 352.368 137.744 342.496L137.76 342.512ZM374.288 342.304C376.176 349.888 377.952 359.552 379.216 369.376L379.36 370.752C383.952 408.096 378.288 437.136 365.088 444.896C362.144 446.528 358.624 447.488 354.88 447.488C354.512 447.488 354.144 447.472 353.776 447.456H353.824C320.976 441.456 292.688 425.12 271.76 402L271.648 401.872C285.712 387.104 298.96 371.184 311.104 354.432L312.032 353.088C335.648 350.624 356.816 346.816 377.44 341.616L374.288 342.288V342.304ZM156.464 282.592C160.464 290.432 164.656 298.24 169.264 306.08C173.861 313.877 178.56 321.493 183.36 328.928C169.472 326.896 156.064 324.336 143.248 321.216C146.848 308.624 151.36 295.584 156.448 282.56L156.464 282.592ZM355.312 282.192C360.608 295.328 365.104 308.432 368.832 321.136C356.032 324.272 342.512 326.928 328.528 328.928C333.328 321.424 338.128 313.696 342.624 305.776C347.12 297.984 351.328 290.016 355.344 282.176L355.312 282.192ZM121.824 196.608C128.8 220.256 136.288 240.032 145.008 259.104L143.808 256.192C136.352 272.272 128.976 291.936 122.928 312.176L122.096 315.456C110.8 311.984 101.712 308.576 92.864 304.752L94.704 305.456C60.08 290.72 37.68 271.344 37.68 255.984C37.68 240.624 60.08 221.152 94.704 206.48C103.104 202.88 112.32 199.632 121.824 196.608ZM389.648 196.528C399.328 199.52 408.528 202.864 417.136 206.48C451.76 221.28 474.16 240.624 474.16 255.984C474.064 271.344 451.664 290.768 417.04 305.472C408.64 309.072 399.44 312.304 389.952 315.328C382.912 291.6 375.424 271.84 366.736 252.736L367.952 255.744C375.376 239.68 382.768 220.016 388.8 199.776L389.648 196.48V196.528ZM328.4 183.04C342.304 185.104 355.696 187.632 368.512 190.784C364.912 203.424 360.416 216.416 355.312 229.44C351.312 221.648 347.12 213.792 342.512 205.968C338.016 198.128 333.216 190.496 328.416 183.056L328.4 183.04ZM183.248 183.04C178.448 190.576 173.648 198.288 169.168 206.24C164.672 214.032 160.464 221.872 156.464 229.712C151.168 216.592 146.672 203.52 142.944 190.784C155.744 187.792 169.232 185.12 183.232 183.072L183.248 183.04ZM255.92 177.952C270.72 177.952 285.456 178.624 299.952 179.808C308.069 191.445 315.952 203.84 323.6 216.992C331.035 229.792 337.819 242.763 343.952 255.904C337.792 269.008 331.04 282.096 323.696 294.896C316.096 308.096 308.24 320.656 300.096 332.288C285.536 333.552 270.784 334.24 255.904 334.24C241.104 334.24 226.368 333.536 211.872 332.384C203.76 320.752 195.84 308.304 188.224 295.2C180.789 282.4 174.005 269.429 167.872 256.288C173.936 243.152 180.784 230.032 188.128 217.216C195.728 204.016 203.584 191.504 211.728 179.872C226.288 178.592 241.04 177.92 255.92 177.92V177.952ZM255.616 125.456C264.896 135.056 273.792 145.248 282.16 155.872L282.8 156.72C274 156.32 265.008 156.048 255.904 156.048C246.704 156.048 237.616 156.24 228.704 156.72C237.6 145.2 246.4 135.008 255.728 125.296L255.6 125.424L255.616 125.456ZM158 64.464C190.848 70.48 219.12 86.816 240.064 109.92L240.176 110.048C226.112 124.832 212.864 140.752 200.72 157.536L199.792 158.88C176.192 161.328 155.024 165.104 134.416 170.304L137.552 169.632C135.312 159.84 133.648 150.352 132.48 141.248C127.888 103.904 133.552 74.864 146.752 67.136C150.048 65.584 153.904 64.624 157.968 64.496H158.016L158 64.464ZM353.36 64.064V64.192C353.568 64.192 353.808 64.176 354.064 64.176C357.888 64.176 361.488 65.12 364.656 66.784L364.528 66.72C377.84 74.352 383.616 103.408 379.12 140.784C378.048 149.984 376.288 159.68 374.128 169.568C356.768 165.12 335.632 161.36 314.064 159.072L312.016 158.896C298.8 140.752 285.456 124.8 271.136 109.776L271.328 109.968C292.304 86.608 320.56 70.16 352.512 64.224L353.408 64.08L353.36 64.064ZM353.456 42.272C314.384 48.208 280.56 67.184 255.856 94.56L255.728 94.704C230.848 67.344 197.024 48.496 158.912 42.784L158.016 42.672C157.808 42.672 157.552 42.672 157.296 42.672C149.44 42.672 142.064 44.736 135.68 48.352L135.904 48.24C108.416 64.096 102.256 113.504 116.448 175.504C55.584 194.304 16 224.352 16 256.016C16 287.808 55.792 317.936 116.832 336.592C102.752 398.832 109.04 448.32 136.592 464.16C142.64 467.632 149.904 469.664 157.632 469.664C157.984 469.664 158.336 469.664 158.672 469.648H158.624C197.696 463.712 231.52 444.72 256.224 417.328L256.352 417.184C281.232 444.56 315.056 463.408 353.168 469.12L354.064 469.232C354.304 469.232 354.608 469.232 354.896 469.232C362.704 469.232 370.048 467.184 376.4 463.616L376.176 463.728C403.648 447.888 409.824 398.48 395.632 336.464C456.272 317.824 495.856 287.712 495.856 256C495.856 224.208 456.064 194.08 395.024 175.376C409.104 113.2 402.816 63.664 375.264 47.808C369.152 44.304 361.824 42.24 354.016 42.24C353.808 42.24 353.6 42.24 353.392 42.24H353.424L353.456 42.272ZM300.512 256.016C300.512 280.704 280.496 300.72 255.808 300.72C231.12 300.72 211.104 280.704 211.104 256.016C211.104 231.328 231.12 211.312 255.808 211.312C268.16 211.312 279.328 216.32 287.424 224.4C295.52 232.496 300.512 243.664 300.512 256.016Z" fill="black"/>
</svg>
